M48
;GenerationSoftware,Autodesk,EAGLE,9.6.2*%
;CreationDate,2025-05-05T20:26:42Z*%
FMAT,2
ICI,OFF
INCH,TZ,000.000
T8C0.014
T7C0.035
T6C0.035
T5C0.040
T4C0.043
T3C0.047
T2C0.051
T1C0.125
%
G90
M72
T1
X3350Y150
X3350Y2050
X150Y2050
X150Y150
T2
X2482Y1921
X3018Y1921
T3
X3018Y879
T4
X2482Y879
T5
X2000Y350
X1600Y350
X1600Y550
X1700Y450
X1600Y450
X1700Y550
X1300Y250
X1300Y350
X1300Y450
X1300Y550
X450Y300
X450Y400
X450Y500
X1600Y250
X2000Y250
X2000Y450
X2000Y550
X1700Y250
X450Y200
X1700Y350
T6
X2350Y227
X2550Y227
X2650Y227
X2750Y227
X2850Y227
X2950Y227
X3050Y227
X3050Y573
X2950Y573
X2850Y573
X2750Y573
X2350Y573
X1050Y600
X650Y600
X1050Y150
X650Y150
X1050Y300
X2450Y227
X1050Y450
X650Y450
X2450Y573
X2550Y573
X2650Y573
X650Y300
T7
X933Y1939
X1033Y1839
X1033Y1939
X1133Y1839
X1133Y1939
X1233Y1839
X1233Y1939
X1333Y1839
X1333Y1939
X1433Y1839
X1633Y939
X1533Y1839
X1533Y1939
X1633Y1839
X1633Y1939
X1733Y1839
X1733Y1939
X1833Y1839
X1833Y1939
X1933Y1839
X1933Y1939
X2033Y1839
X2033Y1939
X2133Y1839
X2133Y1939
X1433Y1939
X933Y839
X433Y839
X433Y939
X533Y839
X533Y939
X633Y839
X633Y939
X733Y839
X733Y939
X833Y839
X833Y939
X933Y939
X1033Y839
X1033Y939
X1133Y839
X1133Y939
X1233Y839
X1233Y939
X1333Y839
X1333Y939
X1433Y839
X1433Y939
X1533Y839
X1533Y939
X1633Y839
X1733Y839
X1733Y939
X1833Y839
X1833Y939
X1933Y839
X733Y1839
X1933Y939
X2033Y839
X2033Y939
X2133Y839
X2133Y939
X433Y1839
X433Y1939
X533Y1839
X533Y1939
X633Y1839
X633Y1939
X733Y1939
X833Y1839
X833Y1939
X933Y1839
T8
X3260Y500
M30