G04 EAGLE Gerber RS-274X export*
G75*
%MOIN*%
%FSLAX34Y34*%
%LPD*%
%INCopper Layer 2*%
%IPPOS*%
%AMOC8*
5,1,8,0,0,1.08239X$1,22.5*%
G01*
%ADD10C,0.071654*%
%ADD11C,0.066142*%
%ADD12C,0.060630*%
%ADD13C,0.049000*%
%ADD14C,0.049606*%
%ADD15C,0.056000*%
%ADD16C,0.165000*%
%ADD17C,0.025780*%

G36*
X34855Y101D02*
X34855Y101D01*
X34860Y102D01*
X34861Y102D01*
X34862Y102D01*
X34867Y104D01*
X34872Y106D01*
X34873Y106D01*
X34874Y107D01*
X34878Y110D01*
X34882Y113D01*
X34883Y114D01*
X34884Y114D01*
X34887Y118D01*
X34890Y122D01*
X34891Y123D01*
X34892Y124D01*
X34894Y128D01*
X34896Y133D01*
X34896Y134D01*
X34897Y135D01*
X34899Y147D01*
X34899Y149D01*
X34899Y150D01*
X34899Y21850D01*
X34899Y21855D01*
X34898Y21860D01*
X34898Y21861D01*
X34898Y21862D01*
X34896Y21867D01*
X34894Y21872D01*
X34894Y21873D01*
X34893Y21874D01*
X34890Y21878D01*
X34887Y21882D01*
X34886Y21883D01*
X34886Y21884D01*
X34882Y21887D01*
X34878Y21890D01*
X34877Y21891D01*
X34876Y21892D01*
X34872Y21894D01*
X34867Y21896D01*
X34866Y21896D01*
X34865Y21897D01*
X34853Y21899D01*
X34851Y21899D01*
X34850Y21899D01*
X150Y21899D01*
X145Y21899D01*
X140Y21898D01*
X139Y21898D01*
X138Y21898D01*
X133Y21896D01*
X128Y21894D01*
X127Y21894D01*
X126Y21893D01*
X122Y21890D01*
X118Y21887D01*
X117Y21886D01*
X116Y21886D01*
X113Y21882D01*
X110Y21878D01*
X109Y21877D01*
X108Y21876D01*
X106Y21872D01*
X104Y21867D01*
X104Y21866D01*
X103Y21865D01*
X101Y21853D01*
X101Y21851D01*
X101Y21850D01*
X101Y150D01*
X101Y145D01*
X102Y140D01*
X102Y139D01*
X102Y138D01*
X104Y133D01*
X106Y128D01*
X106Y127D01*
X107Y126D01*
X110Y122D01*
X113Y118D01*
X114Y117D01*
X114Y116D01*
X118Y113D01*
X122Y110D01*
X123Y109D01*
X124Y108D01*
X128Y106D01*
X133Y104D01*
X134Y104D01*
X135Y103D01*
X147Y101D01*
X149Y101D01*
X150Y101D01*
X34850Y101D01*
X34855Y101D01*
G37*
%LPC*%
G36*
X33316Y19574D02*
X33316Y19574D01*
X32976Y19715D01*
X32715Y19976D01*
X32574Y20316D01*
X32574Y20684D01*
X32715Y21024D01*
X32976Y21285D01*
X33316Y21426D01*
X33684Y21426D01*
X34024Y21285D01*
X34285Y21024D01*
X34426Y20684D01*
X34426Y20316D01*
X34285Y19976D01*
X34024Y19715D01*
X33684Y19574D01*
X33316Y19574D01*
G37*
%LPD*%
%LPC*%
G36*
X1316Y19574D02*
X1316Y19574D01*
X976Y19715D01*
X715Y19976D01*
X574Y20316D01*
X574Y20684D01*
X715Y21024D01*
X976Y21285D01*
X1316Y21426D01*
X1684Y21426D01*
X2024Y21285D01*
X2285Y21024D01*
X2426Y20684D01*
X2426Y20316D01*
X2285Y19976D01*
X2024Y19715D01*
X1684Y19574D01*
X1316Y19574D01*
G37*
%LPD*%
%LPC*%
G36*
X1316Y574D02*
X1316Y574D01*
X976Y715D01*
X715Y976D01*
X574Y1316D01*
X574Y1684D01*
X715Y2024D01*
X976Y2285D01*
X1316Y2426D01*
X1684Y2426D01*
X2024Y2285D01*
X2285Y2024D01*
X2426Y1684D01*
X2426Y1316D01*
X2285Y976D01*
X2024Y715D01*
X1684Y574D01*
X1316Y574D01*
G37*
%LPD*%
%LPC*%
G36*
X33316Y574D02*
X33316Y574D01*
X32976Y715D01*
X32715Y976D01*
X32574Y1316D01*
X32574Y1684D01*
X32715Y2024D01*
X32976Y2285D01*
X33316Y2426D01*
X33684Y2426D01*
X34024Y2285D01*
X34285Y2024D01*
X34426Y1684D01*
X34426Y1316D01*
X34285Y976D01*
X34024Y715D01*
X33684Y574D01*
X33316Y574D01*
G37*
%LPD*%
%LPC*%
G36*
X24728Y18754D02*
X24728Y18754D01*
X24559Y18823D01*
X24430Y18953D01*
X24360Y19121D01*
X24360Y19304D01*
X24430Y19473D01*
X24559Y19602D01*
X24728Y19672D01*
X24910Y19672D01*
X25079Y19602D01*
X25208Y19473D01*
X25278Y19304D01*
X25278Y19121D01*
X25208Y18953D01*
X25079Y18823D01*
X24910Y18754D01*
X24728Y18754D01*
G37*
%LPD*%
%LPC*%
G36*
X24739Y8384D02*
X24739Y8384D01*
X24590Y8445D01*
X24476Y8559D01*
X24415Y8707D01*
X24415Y8868D01*
X24476Y9016D01*
X24590Y9130D01*
X24739Y9191D01*
X24899Y9191D01*
X25048Y9130D01*
X25161Y9016D01*
X25223Y8868D01*
X25223Y8707D01*
X25161Y8559D01*
X25048Y8445D01*
X24899Y8384D01*
X24739Y8384D01*
G37*
%LPD*%
%LPC*%
G36*
X16924Y3119D02*
X16924Y3119D01*
X16784Y3177D01*
X16677Y3284D01*
X16619Y3424D01*
X16619Y3576D01*
X16677Y3716D01*
X16784Y3823D01*
X16924Y3881D01*
X17076Y3881D01*
X17216Y3823D01*
X17323Y3716D01*
X17381Y3576D01*
X17381Y3424D01*
X17323Y3284D01*
X17216Y3177D01*
X17076Y3119D01*
X16924Y3119D01*
G37*
%LPD*%
%LPC*%
G36*
X19924Y3119D02*
X19924Y3119D01*
X19784Y3177D01*
X19677Y3284D01*
X19619Y3424D01*
X19619Y3576D01*
X19677Y3716D01*
X19784Y3823D01*
X19924Y3881D01*
X20076Y3881D01*
X20216Y3823D01*
X20323Y3716D01*
X20381Y3576D01*
X20381Y3424D01*
X20323Y3284D01*
X20216Y3177D01*
X20076Y3119D01*
X19924Y3119D01*
G37*
%LPD*%
%LPC*%
G36*
X12924Y4119D02*
X12924Y4119D01*
X12784Y4177D01*
X12677Y4284D01*
X12619Y4424D01*
X12619Y4576D01*
X12677Y4716D01*
X12784Y4823D01*
X12924Y4881D01*
X13076Y4881D01*
X13216Y4823D01*
X13323Y4716D01*
X13381Y4576D01*
X13381Y4424D01*
X13323Y4284D01*
X13216Y4177D01*
X13076Y4119D01*
X12924Y4119D01*
G37*
%LPD*%
%LPC*%
G36*
X15924Y4119D02*
X15924Y4119D01*
X15784Y4177D01*
X15677Y4284D01*
X15619Y4424D01*
X15619Y4576D01*
X15677Y4716D01*
X15784Y4823D01*
X15924Y4881D01*
X16076Y4881D01*
X16216Y4823D01*
X16323Y4716D01*
X16381Y4576D01*
X16381Y4424D01*
X16323Y4284D01*
X16216Y4177D01*
X16076Y4119D01*
X15924Y4119D01*
G37*
%LPD*%
%LPC*%
G36*
X16924Y4119D02*
X16924Y4119D01*
X16784Y4177D01*
X16677Y4284D01*
X16619Y4424D01*
X16619Y4576D01*
X16677Y4716D01*
X16784Y4823D01*
X16924Y4881D01*
X17076Y4881D01*
X17216Y4823D01*
X17323Y4716D01*
X17381Y4576D01*
X17381Y4424D01*
X17323Y4284D01*
X17216Y4177D01*
X17076Y4119D01*
X16924Y4119D01*
G37*
%LPD*%
%LPC*%
G36*
X19924Y4119D02*
X19924Y4119D01*
X19784Y4177D01*
X19677Y4284D01*
X19619Y4424D01*
X19619Y4576D01*
X19677Y4716D01*
X19784Y4823D01*
X19924Y4881D01*
X20076Y4881D01*
X20216Y4823D01*
X20323Y4716D01*
X20381Y4576D01*
X20381Y4424D01*
X20323Y4284D01*
X20216Y4177D01*
X20076Y4119D01*
X19924Y4119D01*
G37*
%LPD*%
%LPC*%
G36*
X16924Y5119D02*
X16924Y5119D01*
X16784Y5177D01*
X16677Y5284D01*
X16619Y5424D01*
X16619Y5576D01*
X16677Y5716D01*
X16784Y5823D01*
X16924Y5881D01*
X17076Y5881D01*
X17216Y5823D01*
X17323Y5716D01*
X17381Y5576D01*
X17381Y5424D01*
X17323Y5284D01*
X17216Y5177D01*
X17076Y5119D01*
X16924Y5119D01*
G37*
%LPD*%
%LPC*%
G36*
X19924Y5119D02*
X19924Y5119D01*
X19784Y5177D01*
X19677Y5284D01*
X19619Y5424D01*
X19619Y5576D01*
X19677Y5716D01*
X19784Y5823D01*
X19924Y5881D01*
X20076Y5881D01*
X20216Y5823D01*
X20323Y5716D01*
X20381Y5576D01*
X20381Y5424D01*
X20323Y5284D01*
X20216Y5177D01*
X20076Y5119D01*
X19924Y5119D01*
G37*
%LPD*%
%LPC*%
G36*
X15924Y5119D02*
X15924Y5119D01*
X15784Y5177D01*
X15677Y5284D01*
X15619Y5424D01*
X15619Y5576D01*
X15677Y5716D01*
X15784Y5823D01*
X15924Y5881D01*
X16076Y5881D01*
X16216Y5823D01*
X16323Y5716D01*
X16381Y5576D01*
X16381Y5424D01*
X16323Y5284D01*
X16216Y5177D01*
X16076Y5119D01*
X15924Y5119D01*
G37*
%LPD*%
%LPC*%
G36*
X12924Y5119D02*
X12924Y5119D01*
X12784Y5177D01*
X12677Y5284D01*
X12619Y5424D01*
X12619Y5576D01*
X12677Y5716D01*
X12784Y5823D01*
X12924Y5881D01*
X13076Y5881D01*
X13216Y5823D01*
X13323Y5716D01*
X13381Y5576D01*
X13381Y5424D01*
X13323Y5284D01*
X13216Y5177D01*
X13076Y5119D01*
X12924Y5119D01*
G37*
%LPD*%
%LPC*%
G36*
X12924Y3119D02*
X12924Y3119D01*
X12784Y3177D01*
X12677Y3284D01*
X12619Y3424D01*
X12619Y3576D01*
X12677Y3716D01*
X12784Y3823D01*
X12924Y3881D01*
X13076Y3881D01*
X13216Y3823D01*
X13323Y3716D01*
X13381Y3576D01*
X13381Y3424D01*
X13323Y3284D01*
X13216Y3177D01*
X13076Y3119D01*
X12924Y3119D01*
G37*
%LPD*%
%LPC*%
G36*
X16924Y2119D02*
X16924Y2119D01*
X16784Y2177D01*
X16677Y2284D01*
X16619Y2424D01*
X16619Y2576D01*
X16677Y2716D01*
X16784Y2823D01*
X16924Y2881D01*
X17076Y2881D01*
X17216Y2823D01*
X17323Y2716D01*
X17381Y2576D01*
X17381Y2424D01*
X17323Y2284D01*
X17216Y2177D01*
X17076Y2119D01*
X16924Y2119D01*
G37*
%LPD*%
%LPC*%
G36*
X19924Y2119D02*
X19924Y2119D01*
X19784Y2177D01*
X19677Y2284D01*
X19619Y2424D01*
X19619Y2576D01*
X19677Y2716D01*
X19784Y2823D01*
X19924Y2881D01*
X20076Y2881D01*
X20216Y2823D01*
X20323Y2716D01*
X20381Y2576D01*
X20381Y2424D01*
X20323Y2284D01*
X20216Y2177D01*
X20076Y2119D01*
X19924Y2119D01*
G37*
%LPD*%
%LPC*%
G36*
X12924Y2119D02*
X12924Y2119D01*
X12784Y2177D01*
X12677Y2284D01*
X12619Y2424D01*
X12619Y2576D01*
X12677Y2716D01*
X12784Y2823D01*
X12924Y2881D01*
X13076Y2881D01*
X13216Y2823D01*
X13323Y2716D01*
X13381Y2576D01*
X13381Y2424D01*
X13323Y2284D01*
X13216Y2177D01*
X13076Y2119D01*
X12924Y2119D01*
G37*
%LPD*%
%LPC*%
G36*
X15924Y2119D02*
X15924Y2119D01*
X15784Y2177D01*
X15677Y2284D01*
X15619Y2424D01*
X15619Y2576D01*
X15677Y2716D01*
X15784Y2823D01*
X15924Y2881D01*
X16076Y2881D01*
X16216Y2823D01*
X16323Y2716D01*
X16381Y2576D01*
X16381Y2424D01*
X16323Y2284D01*
X16216Y2177D01*
X16076Y2119D01*
X15924Y2119D01*
G37*
%LPD*%
%LPC*%
G36*
X15924Y3119D02*
X15924Y3119D01*
X15784Y3177D01*
X15677Y3284D01*
X15619Y3424D01*
X15619Y3576D01*
X15677Y3716D01*
X15784Y3823D01*
X15924Y3881D01*
X16076Y3881D01*
X16216Y3823D01*
X16323Y3716D01*
X16381Y3576D01*
X16381Y3424D01*
X16323Y3284D01*
X16216Y3177D01*
X16076Y3119D01*
X15924Y3119D01*
G37*
%LPD*%
%LPC*%
G36*
X10431Y1151D02*
X10431Y1151D01*
X10302Y1204D01*
X10204Y1302D01*
X10151Y1431D01*
X10151Y1569D01*
X10204Y1698D01*
X10302Y1796D01*
X10431Y1849D01*
X10569Y1849D01*
X10698Y1796D01*
X10796Y1698D01*
X10849Y1569D01*
X10849Y1431D01*
X10796Y1302D01*
X10698Y1204D01*
X10569Y1151D01*
X10431Y1151D01*
G37*
%LPD*%
%LPC*%
G36*
X29431Y5384D02*
X29431Y5384D01*
X29302Y5437D01*
X29204Y5535D01*
X29151Y5663D01*
X29151Y5802D01*
X29204Y5930D01*
X29302Y6028D01*
X29431Y6081D01*
X29569Y6081D01*
X29698Y6028D01*
X29796Y5930D01*
X29849Y5802D01*
X29849Y5663D01*
X29796Y5535D01*
X29698Y5437D01*
X29569Y5384D01*
X29431Y5384D01*
G37*
%LPD*%
%LPC*%
G36*
X30431Y5384D02*
X30431Y5384D01*
X30302Y5437D01*
X30204Y5535D01*
X30151Y5663D01*
X30151Y5802D01*
X30204Y5930D01*
X30302Y6028D01*
X30431Y6081D01*
X30569Y6081D01*
X30698Y6028D01*
X30796Y5930D01*
X30849Y5802D01*
X30849Y5663D01*
X30796Y5535D01*
X30698Y5437D01*
X30569Y5384D01*
X30431Y5384D01*
G37*
%LPD*%
%LPC*%
G36*
X23431Y5384D02*
X23431Y5384D01*
X23302Y5437D01*
X23204Y5535D01*
X23151Y5663D01*
X23151Y5802D01*
X23204Y5930D01*
X23302Y6028D01*
X23431Y6081D01*
X23569Y6081D01*
X23698Y6028D01*
X23796Y5930D01*
X23849Y5802D01*
X23849Y5663D01*
X23796Y5535D01*
X23698Y5437D01*
X23569Y5384D01*
X23431Y5384D01*
G37*
%LPD*%
%LPC*%
G36*
X30431Y1919D02*
X30431Y1919D01*
X30302Y1972D01*
X30204Y2070D01*
X30151Y2198D01*
X30151Y2337D01*
X30204Y2465D01*
X30302Y2563D01*
X30431Y2616D01*
X30569Y2616D01*
X30698Y2563D01*
X30796Y2465D01*
X30849Y2337D01*
X30849Y2198D01*
X30796Y2070D01*
X30698Y1972D01*
X30569Y1919D01*
X30431Y1919D01*
G37*
%LPD*%
%LPC*%
G36*
X24431Y5384D02*
X24431Y5384D01*
X24302Y5437D01*
X24204Y5535D01*
X24151Y5663D01*
X24151Y5802D01*
X24204Y5930D01*
X24302Y6028D01*
X24431Y6081D01*
X24569Y6081D01*
X24698Y6028D01*
X24796Y5930D01*
X24849Y5802D01*
X24849Y5663D01*
X24796Y5535D01*
X24698Y5437D01*
X24569Y5384D01*
X24431Y5384D01*
G37*
%LPD*%
%LPC*%
G36*
X10431Y5651D02*
X10431Y5651D01*
X10302Y5704D01*
X10204Y5802D01*
X10151Y5931D01*
X10151Y6069D01*
X10204Y6198D01*
X10302Y6296D01*
X10431Y6349D01*
X10569Y6349D01*
X10698Y6296D01*
X10796Y6198D01*
X10849Y6069D01*
X10849Y5931D01*
X10796Y5802D01*
X10698Y5704D01*
X10569Y5651D01*
X10431Y5651D01*
G37*
%LPD*%
%LPC*%
G36*
X10431Y2651D02*
X10431Y2651D01*
X10302Y2704D01*
X10204Y2802D01*
X10151Y2931D01*
X10151Y3069D01*
X10204Y3198D01*
X10302Y3296D01*
X10431Y3349D01*
X10569Y3349D01*
X10698Y3296D01*
X10796Y3198D01*
X10849Y3069D01*
X10849Y2931D01*
X10796Y2802D01*
X10698Y2704D01*
X10569Y2651D01*
X10431Y2651D01*
G37*
%LPD*%
%LPC*%
G36*
X24431Y1919D02*
X24431Y1919D01*
X24302Y1972D01*
X24204Y2070D01*
X24151Y2198D01*
X24151Y2337D01*
X24204Y2465D01*
X24302Y2563D01*
X24431Y2616D01*
X24569Y2616D01*
X24698Y2563D01*
X24796Y2465D01*
X24849Y2337D01*
X24849Y2198D01*
X24796Y2070D01*
X24698Y1972D01*
X24569Y1919D01*
X24431Y1919D01*
G37*
%LPD*%
%LPC*%
G36*
X23431Y1919D02*
X23431Y1919D01*
X23302Y1972D01*
X23204Y2070D01*
X23151Y2198D01*
X23151Y2337D01*
X23204Y2465D01*
X23302Y2563D01*
X23431Y2616D01*
X23569Y2616D01*
X23698Y2563D01*
X23796Y2465D01*
X23849Y2337D01*
X23849Y2198D01*
X23796Y2070D01*
X23698Y1972D01*
X23569Y1919D01*
X23431Y1919D01*
G37*
%LPD*%
%LPC*%
G36*
X10431Y4151D02*
X10431Y4151D01*
X10302Y4204D01*
X10204Y4302D01*
X10151Y4431D01*
X10151Y4569D01*
X10204Y4698D01*
X10302Y4796D01*
X10431Y4849D01*
X10569Y4849D01*
X10698Y4796D01*
X10796Y4698D01*
X10849Y4569D01*
X10849Y4431D01*
X10796Y4302D01*
X10698Y4204D01*
X10569Y4151D01*
X10431Y4151D01*
G37*
%LPD*%
%LPC*%
G36*
X29431Y1919D02*
X29431Y1919D01*
X29302Y1972D01*
X29204Y2070D01*
X29151Y2198D01*
X29151Y2337D01*
X29204Y2465D01*
X29302Y2563D01*
X29431Y2616D01*
X29569Y2616D01*
X29698Y2563D01*
X29796Y2465D01*
X29849Y2337D01*
X29849Y2198D01*
X29796Y2070D01*
X29698Y1972D01*
X29569Y1919D01*
X29431Y1919D01*
G37*
%LPD*%
%LPC*%
G36*
X28431Y1919D02*
X28431Y1919D01*
X28302Y1972D01*
X28204Y2070D01*
X28151Y2198D01*
X28151Y2337D01*
X28204Y2465D01*
X28302Y2563D01*
X28431Y2616D01*
X28569Y2616D01*
X28698Y2563D01*
X28796Y2465D01*
X28849Y2337D01*
X28849Y2198D01*
X28796Y2070D01*
X28698Y1972D01*
X28569Y1919D01*
X28431Y1919D01*
G37*
%LPD*%
%LPC*%
G36*
X25431Y1919D02*
X25431Y1919D01*
X25302Y1972D01*
X25204Y2070D01*
X25151Y2198D01*
X25151Y2337D01*
X25204Y2465D01*
X25302Y2563D01*
X25431Y2616D01*
X25569Y2616D01*
X25698Y2563D01*
X25796Y2465D01*
X25849Y2337D01*
X25849Y2198D01*
X25796Y2070D01*
X25698Y1972D01*
X25569Y1919D01*
X25431Y1919D01*
G37*
%LPD*%
%LPC*%
G36*
X28431Y5384D02*
X28431Y5384D01*
X28302Y5437D01*
X28204Y5535D01*
X28151Y5663D01*
X28151Y5802D01*
X28204Y5930D01*
X28302Y6028D01*
X28431Y6081D01*
X28569Y6081D01*
X28698Y6028D01*
X28796Y5930D01*
X28849Y5802D01*
X28849Y5663D01*
X28796Y5535D01*
X28698Y5437D01*
X28569Y5384D01*
X28431Y5384D01*
G37*
%LPD*%
%LPC*%
G36*
X25431Y5384D02*
X25431Y5384D01*
X25302Y5437D01*
X25204Y5535D01*
X25151Y5663D01*
X25151Y5802D01*
X25204Y5930D01*
X25302Y6028D01*
X25431Y6081D01*
X25569Y6081D01*
X25698Y6028D01*
X25796Y5930D01*
X25849Y5802D01*
X25849Y5663D01*
X25796Y5535D01*
X25698Y5437D01*
X25569Y5384D01*
X25431Y5384D01*
G37*
%LPD*%
%LPC*%
G36*
X21258Y19044D02*
X21258Y19044D01*
X21131Y19097D01*
X21034Y19194D01*
X20981Y19321D01*
X20981Y19459D01*
X21034Y19586D01*
X21131Y19683D01*
X21258Y19736D01*
X21396Y19736D01*
X21523Y19683D01*
X21620Y19586D01*
X21673Y19459D01*
X21673Y19321D01*
X21620Y19194D01*
X21523Y19097D01*
X21396Y19044D01*
X21258Y19044D01*
G37*
%LPD*%
%LPC*%
G36*
X20258Y19044D02*
X20258Y19044D01*
X20131Y19097D01*
X20034Y19194D01*
X19981Y19321D01*
X19981Y19459D01*
X20034Y19586D01*
X20131Y19683D01*
X20258Y19736D01*
X20396Y19736D01*
X20523Y19683D01*
X20620Y19586D01*
X20673Y19459D01*
X20673Y19321D01*
X20620Y19194D01*
X20523Y19097D01*
X20396Y19044D01*
X20258Y19044D01*
G37*
%LPD*%
%LPC*%
G36*
X19258Y19044D02*
X19258Y19044D01*
X19131Y19097D01*
X19034Y19194D01*
X18981Y19321D01*
X18981Y19459D01*
X19034Y19586D01*
X19131Y19683D01*
X19258Y19736D01*
X19396Y19736D01*
X19523Y19683D01*
X19620Y19586D01*
X19673Y19459D01*
X19673Y19321D01*
X19620Y19194D01*
X19523Y19097D01*
X19396Y19044D01*
X19258Y19044D01*
G37*
%LPD*%
%LPC*%
G36*
X18258Y19044D02*
X18258Y19044D01*
X18131Y19097D01*
X18034Y19194D01*
X17981Y19321D01*
X17981Y19459D01*
X18034Y19586D01*
X18131Y19683D01*
X18258Y19736D01*
X18396Y19736D01*
X18523Y19683D01*
X18620Y19586D01*
X18673Y19459D01*
X18673Y19321D01*
X18620Y19194D01*
X18523Y19097D01*
X18396Y19044D01*
X18258Y19044D01*
G37*
%LPD*%
%LPC*%
G36*
X17258Y19044D02*
X17258Y19044D01*
X17131Y19097D01*
X17034Y19194D01*
X16981Y19321D01*
X16981Y19459D01*
X17034Y19586D01*
X17131Y19683D01*
X17258Y19736D01*
X17396Y19736D01*
X17523Y19683D01*
X17620Y19586D01*
X17673Y19459D01*
X17673Y19321D01*
X17620Y19194D01*
X17523Y19097D01*
X17396Y19044D01*
X17258Y19044D01*
G37*
%LPD*%
%LPC*%
G36*
X16258Y19044D02*
X16258Y19044D01*
X16131Y19097D01*
X16034Y19194D01*
X15981Y19321D01*
X15981Y19459D01*
X16034Y19586D01*
X16131Y19683D01*
X16258Y19736D01*
X16396Y19736D01*
X16523Y19683D01*
X16620Y19586D01*
X16673Y19459D01*
X16673Y19321D01*
X16620Y19194D01*
X16523Y19097D01*
X16396Y19044D01*
X16258Y19044D01*
G37*
%LPD*%
%LPC*%
G36*
X15258Y19044D02*
X15258Y19044D01*
X15131Y19097D01*
X15034Y19194D01*
X14981Y19321D01*
X14981Y19459D01*
X15034Y19586D01*
X15131Y19683D01*
X15258Y19736D01*
X15396Y19736D01*
X15523Y19683D01*
X15620Y19586D01*
X15673Y19459D01*
X15673Y19321D01*
X15620Y19194D01*
X15523Y19097D01*
X15396Y19044D01*
X15258Y19044D01*
G37*
%LPD*%
%LPC*%
G36*
X14258Y19044D02*
X14258Y19044D01*
X14131Y19097D01*
X14034Y19194D01*
X13981Y19321D01*
X13981Y19459D01*
X14034Y19586D01*
X14131Y19683D01*
X14258Y19736D01*
X14396Y19736D01*
X14523Y19683D01*
X14620Y19586D01*
X14673Y19459D01*
X14673Y19321D01*
X14620Y19194D01*
X14523Y19097D01*
X14396Y19044D01*
X14258Y19044D01*
G37*
%LPD*%
%LPC*%
G36*
X13258Y19044D02*
X13258Y19044D01*
X13131Y19097D01*
X13034Y19194D01*
X12981Y19321D01*
X12981Y19459D01*
X13034Y19586D01*
X13131Y19683D01*
X13258Y19736D01*
X13396Y19736D01*
X13523Y19683D01*
X13620Y19586D01*
X13673Y19459D01*
X13673Y19321D01*
X13620Y19194D01*
X13523Y19097D01*
X13396Y19044D01*
X13258Y19044D01*
G37*
%LPD*%
%LPC*%
G36*
X12258Y19044D02*
X12258Y19044D01*
X12131Y19097D01*
X12034Y19194D01*
X11981Y19321D01*
X11981Y19459D01*
X12034Y19586D01*
X12131Y19683D01*
X12258Y19736D01*
X12396Y19736D01*
X12523Y19683D01*
X12620Y19586D01*
X12673Y19459D01*
X12673Y19321D01*
X12620Y19194D01*
X12523Y19097D01*
X12396Y19044D01*
X12258Y19044D01*
G37*
%LPD*%
%LPC*%
G36*
X10258Y19044D02*
X10258Y19044D01*
X10131Y19097D01*
X10034Y19194D01*
X9981Y19321D01*
X9981Y19459D01*
X10034Y19586D01*
X10131Y19683D01*
X10258Y19736D01*
X10396Y19736D01*
X10523Y19683D01*
X10620Y19586D01*
X10673Y19459D01*
X10673Y19321D01*
X10620Y19194D01*
X10523Y19097D01*
X10396Y19044D01*
X10258Y19044D01*
G37*
%LPD*%
%LPC*%
G36*
X9258Y19044D02*
X9258Y19044D01*
X9131Y19097D01*
X9034Y19194D01*
X8981Y19321D01*
X8981Y19459D01*
X9034Y19586D01*
X9131Y19683D01*
X9258Y19736D01*
X9396Y19736D01*
X9523Y19683D01*
X9620Y19586D01*
X9673Y19459D01*
X9673Y19321D01*
X9620Y19194D01*
X9523Y19097D01*
X9396Y19044D01*
X9258Y19044D01*
G37*
%LPD*%
%LPC*%
G36*
X8258Y19044D02*
X8258Y19044D01*
X8131Y19097D01*
X8034Y19194D01*
X7981Y19321D01*
X7981Y19459D01*
X8034Y19586D01*
X8131Y19683D01*
X8258Y19736D01*
X8396Y19736D01*
X8523Y19683D01*
X8620Y19586D01*
X8673Y19459D01*
X8673Y19321D01*
X8620Y19194D01*
X8523Y19097D01*
X8396Y19044D01*
X8258Y19044D01*
G37*
%LPD*%
%LPC*%
G36*
X7258Y19044D02*
X7258Y19044D01*
X7131Y19097D01*
X7034Y19194D01*
X6981Y19321D01*
X6981Y19459D01*
X7034Y19586D01*
X7131Y19683D01*
X7258Y19736D01*
X7396Y19736D01*
X7523Y19683D01*
X7620Y19586D01*
X7673Y19459D01*
X7673Y19321D01*
X7620Y19194D01*
X7523Y19097D01*
X7396Y19044D01*
X7258Y19044D01*
G37*
%LPD*%
%LPC*%
G36*
X6258Y19044D02*
X6258Y19044D01*
X6131Y19097D01*
X6034Y19194D01*
X5981Y19321D01*
X5981Y19459D01*
X6034Y19586D01*
X6131Y19683D01*
X6258Y19736D01*
X6396Y19736D01*
X6523Y19683D01*
X6620Y19586D01*
X6673Y19459D01*
X6673Y19321D01*
X6620Y19194D01*
X6523Y19097D01*
X6396Y19044D01*
X6258Y19044D01*
G37*
%LPD*%
%LPC*%
G36*
X5258Y19044D02*
X5258Y19044D01*
X5131Y19097D01*
X5034Y19194D01*
X4981Y19321D01*
X4981Y19459D01*
X5034Y19586D01*
X5131Y19683D01*
X5258Y19736D01*
X5396Y19736D01*
X5523Y19683D01*
X5620Y19586D01*
X5673Y19459D01*
X5673Y19321D01*
X5620Y19194D01*
X5523Y19097D01*
X5396Y19044D01*
X5258Y19044D01*
G37*
%LPD*%
%LPC*%
G36*
X4258Y19044D02*
X4258Y19044D01*
X4131Y19097D01*
X4034Y19194D01*
X3981Y19321D01*
X3981Y19459D01*
X4034Y19586D01*
X4131Y19683D01*
X4258Y19736D01*
X4396Y19736D01*
X4523Y19683D01*
X4620Y19586D01*
X4673Y19459D01*
X4673Y19321D01*
X4620Y19194D01*
X4523Y19097D01*
X4396Y19044D01*
X4258Y19044D01*
G37*
%LPD*%
%LPC*%
G36*
X21258Y8044D02*
X21258Y8044D01*
X21131Y8097D01*
X21034Y8194D01*
X20981Y8321D01*
X20981Y8459D01*
X21034Y8586D01*
X21131Y8683D01*
X21258Y8736D01*
X21396Y8736D01*
X21523Y8683D01*
X21620Y8586D01*
X21673Y8459D01*
X21673Y8321D01*
X21620Y8194D01*
X21523Y8097D01*
X21396Y8044D01*
X21258Y8044D01*
G37*
%LPD*%
%LPC*%
G36*
X10258Y8044D02*
X10258Y8044D01*
X10131Y8097D01*
X10034Y8194D01*
X9981Y8321D01*
X9981Y8459D01*
X10034Y8586D01*
X10131Y8683D01*
X10258Y8736D01*
X10396Y8736D01*
X10523Y8683D01*
X10620Y8586D01*
X10673Y8459D01*
X10673Y8321D01*
X10620Y8194D01*
X10523Y8097D01*
X10396Y8044D01*
X10258Y8044D01*
G37*
%LPD*%
%LPC*%
G36*
X11258Y19044D02*
X11258Y19044D01*
X11131Y19097D01*
X11034Y19194D01*
X10981Y19321D01*
X10981Y19459D01*
X11034Y19586D01*
X11131Y19683D01*
X11258Y19736D01*
X11396Y19736D01*
X11523Y19683D01*
X11620Y19586D01*
X11673Y19459D01*
X11673Y19321D01*
X11620Y19194D01*
X11523Y19097D01*
X11396Y19044D01*
X11258Y19044D01*
G37*
%LPD*%
%LPC*%
G36*
X5258Y18044D02*
X5258Y18044D01*
X5131Y18097D01*
X5034Y18194D01*
X4981Y18321D01*
X4981Y18459D01*
X5034Y18586D01*
X5131Y18683D01*
X5258Y18736D01*
X5396Y18736D01*
X5523Y18683D01*
X5620Y18586D01*
X5673Y18459D01*
X5673Y18321D01*
X5620Y18194D01*
X5523Y18097D01*
X5396Y18044D01*
X5258Y18044D01*
G37*
%LPD*%
%LPC*%
G36*
X4258Y18044D02*
X4258Y18044D01*
X4131Y18097D01*
X4034Y18194D01*
X3981Y18321D01*
X3981Y18459D01*
X4034Y18586D01*
X4131Y18683D01*
X4258Y18736D01*
X4396Y18736D01*
X4523Y18683D01*
X4620Y18586D01*
X4673Y18459D01*
X4673Y18321D01*
X4620Y18194D01*
X4523Y18097D01*
X4396Y18044D01*
X4258Y18044D01*
G37*
%LPD*%
%LPC*%
G36*
X21258Y18044D02*
X21258Y18044D01*
X21131Y18097D01*
X21034Y18194D01*
X20981Y18321D01*
X20981Y18459D01*
X21034Y18586D01*
X21131Y18683D01*
X21258Y18736D01*
X21396Y18736D01*
X21523Y18683D01*
X21620Y18586D01*
X21673Y18459D01*
X21673Y18321D01*
X21620Y18194D01*
X21523Y18097D01*
X21396Y18044D01*
X21258Y18044D01*
G37*
%LPD*%
%LPC*%
G36*
X20258Y18044D02*
X20258Y18044D01*
X20131Y18097D01*
X20034Y18194D01*
X19981Y18321D01*
X19981Y18459D01*
X20034Y18586D01*
X20131Y18683D01*
X20258Y18736D01*
X20396Y18736D01*
X20523Y18683D01*
X20620Y18586D01*
X20673Y18459D01*
X20673Y18321D01*
X20620Y18194D01*
X20523Y18097D01*
X20396Y18044D01*
X20258Y18044D01*
G37*
%LPD*%
%LPC*%
G36*
X19258Y18044D02*
X19258Y18044D01*
X19131Y18097D01*
X19034Y18194D01*
X18981Y18321D01*
X18981Y18459D01*
X19034Y18586D01*
X19131Y18683D01*
X19258Y18736D01*
X19396Y18736D01*
X19523Y18683D01*
X19620Y18586D01*
X19673Y18459D01*
X19673Y18321D01*
X19620Y18194D01*
X19523Y18097D01*
X19396Y18044D01*
X19258Y18044D01*
G37*
%LPD*%
%LPC*%
G36*
X18258Y18044D02*
X18258Y18044D01*
X18131Y18097D01*
X18034Y18194D01*
X17981Y18321D01*
X17981Y18459D01*
X18034Y18586D01*
X18131Y18683D01*
X18258Y18736D01*
X18396Y18736D01*
X18523Y18683D01*
X18620Y18586D01*
X18673Y18459D01*
X18673Y18321D01*
X18620Y18194D01*
X18523Y18097D01*
X18396Y18044D01*
X18258Y18044D01*
G37*
%LPD*%
%LPC*%
G36*
X17258Y18044D02*
X17258Y18044D01*
X17131Y18097D01*
X17034Y18194D01*
X16981Y18321D01*
X16981Y18459D01*
X17034Y18586D01*
X17131Y18683D01*
X17258Y18736D01*
X17396Y18736D01*
X17523Y18683D01*
X17620Y18586D01*
X17673Y18459D01*
X17673Y18321D01*
X17620Y18194D01*
X17523Y18097D01*
X17396Y18044D01*
X17258Y18044D01*
G37*
%LPD*%
%LPC*%
G36*
X4258Y9044D02*
X4258Y9044D01*
X4131Y9097D01*
X4034Y9194D01*
X3981Y9321D01*
X3981Y9459D01*
X4034Y9586D01*
X4131Y9683D01*
X4258Y9736D01*
X4396Y9736D01*
X4523Y9683D01*
X4620Y9586D01*
X4673Y9459D01*
X4673Y9321D01*
X4620Y9194D01*
X4523Y9097D01*
X4396Y9044D01*
X4258Y9044D01*
G37*
%LPD*%
%LPC*%
G36*
X20258Y9044D02*
X20258Y9044D01*
X20131Y9097D01*
X20034Y9194D01*
X19981Y9321D01*
X19981Y9459D01*
X20034Y9586D01*
X20131Y9683D01*
X20258Y9736D01*
X20396Y9736D01*
X20523Y9683D01*
X20620Y9586D01*
X20673Y9459D01*
X20673Y9321D01*
X20620Y9194D01*
X20523Y9097D01*
X20396Y9044D01*
X20258Y9044D01*
G37*
%LPD*%
%LPC*%
G36*
X19258Y9044D02*
X19258Y9044D01*
X19131Y9097D01*
X19034Y9194D01*
X18981Y9321D01*
X18981Y9459D01*
X19034Y9586D01*
X19131Y9683D01*
X19258Y9736D01*
X19396Y9736D01*
X19523Y9683D01*
X19620Y9586D01*
X19673Y9459D01*
X19673Y9321D01*
X19620Y9194D01*
X19523Y9097D01*
X19396Y9044D01*
X19258Y9044D01*
G37*
%LPD*%
%LPC*%
G36*
X21258Y9044D02*
X21258Y9044D01*
X21131Y9097D01*
X21034Y9194D01*
X20981Y9321D01*
X20981Y9459D01*
X21034Y9586D01*
X21131Y9683D01*
X21258Y9736D01*
X21396Y9736D01*
X21523Y9683D01*
X21620Y9586D01*
X21673Y9459D01*
X21673Y9321D01*
X21620Y9194D01*
X21523Y9097D01*
X21396Y9044D01*
X21258Y9044D01*
G37*
%LPD*%
%LPC*%
G36*
X18258Y9044D02*
X18258Y9044D01*
X18131Y9097D01*
X18034Y9194D01*
X17981Y9321D01*
X17981Y9459D01*
X18034Y9586D01*
X18131Y9683D01*
X18258Y9736D01*
X18396Y9736D01*
X18523Y9683D01*
X18620Y9586D01*
X18673Y9459D01*
X18673Y9321D01*
X18620Y9194D01*
X18523Y9097D01*
X18396Y9044D01*
X18258Y9044D01*
G37*
%LPD*%
%LPC*%
G36*
X17258Y9044D02*
X17258Y9044D01*
X17131Y9097D01*
X17034Y9194D01*
X16981Y9321D01*
X16981Y9459D01*
X17034Y9586D01*
X17131Y9683D01*
X17258Y9736D01*
X17396Y9736D01*
X17523Y9683D01*
X17620Y9586D01*
X17673Y9459D01*
X17673Y9321D01*
X17620Y9194D01*
X17523Y9097D01*
X17396Y9044D01*
X17258Y9044D01*
G37*
%LPD*%
%LPC*%
G36*
X16258Y9044D02*
X16258Y9044D01*
X16131Y9097D01*
X16034Y9194D01*
X15981Y9321D01*
X15981Y9459D01*
X16034Y9586D01*
X16131Y9683D01*
X16258Y9736D01*
X16396Y9736D01*
X16523Y9683D01*
X16620Y9586D01*
X16673Y9459D01*
X16673Y9321D01*
X16620Y9194D01*
X16523Y9097D01*
X16396Y9044D01*
X16258Y9044D01*
G37*
%LPD*%
%LPC*%
G36*
X15258Y9044D02*
X15258Y9044D01*
X15131Y9097D01*
X15034Y9194D01*
X14981Y9321D01*
X14981Y9459D01*
X15034Y9586D01*
X15131Y9683D01*
X15258Y9736D01*
X15396Y9736D01*
X15523Y9683D01*
X15620Y9586D01*
X15673Y9459D01*
X15673Y9321D01*
X15620Y9194D01*
X15523Y9097D01*
X15396Y9044D01*
X15258Y9044D01*
G37*
%LPD*%
%LPC*%
G36*
X6258Y8044D02*
X6258Y8044D01*
X6131Y8097D01*
X6034Y8194D01*
X5981Y8321D01*
X5981Y8459D01*
X6034Y8586D01*
X6131Y8683D01*
X6258Y8736D01*
X6396Y8736D01*
X6523Y8683D01*
X6620Y8586D01*
X6673Y8459D01*
X6673Y8321D01*
X6620Y8194D01*
X6523Y8097D01*
X6396Y8044D01*
X6258Y8044D01*
G37*
%LPD*%
%LPC*%
G36*
X7258Y8044D02*
X7258Y8044D01*
X7131Y8097D01*
X7034Y8194D01*
X6981Y8321D01*
X6981Y8459D01*
X7034Y8586D01*
X7131Y8683D01*
X7258Y8736D01*
X7396Y8736D01*
X7523Y8683D01*
X7620Y8586D01*
X7673Y8459D01*
X7673Y8321D01*
X7620Y8194D01*
X7523Y8097D01*
X7396Y8044D01*
X7258Y8044D01*
G37*
%LPD*%
%LPC*%
G36*
X8258Y8044D02*
X8258Y8044D01*
X8131Y8097D01*
X8034Y8194D01*
X7981Y8321D01*
X7981Y8459D01*
X8034Y8586D01*
X8131Y8683D01*
X8258Y8736D01*
X8396Y8736D01*
X8523Y8683D01*
X8620Y8586D01*
X8673Y8459D01*
X8673Y8321D01*
X8620Y8194D01*
X8523Y8097D01*
X8396Y8044D01*
X8258Y8044D01*
G37*
%LPD*%
%LPC*%
G36*
X10258Y9044D02*
X10258Y9044D01*
X10131Y9097D01*
X10034Y9194D01*
X9981Y9321D01*
X9981Y9459D01*
X10034Y9586D01*
X10131Y9683D01*
X10258Y9736D01*
X10396Y9736D01*
X10523Y9683D01*
X10620Y9586D01*
X10673Y9459D01*
X10673Y9321D01*
X10620Y9194D01*
X10523Y9097D01*
X10396Y9044D01*
X10258Y9044D01*
G37*
%LPD*%
%LPC*%
G36*
X9258Y8044D02*
X9258Y8044D01*
X9131Y8097D01*
X9034Y8194D01*
X8981Y8321D01*
X8981Y8459D01*
X9034Y8586D01*
X9131Y8683D01*
X9258Y8736D01*
X9396Y8736D01*
X9523Y8683D01*
X9620Y8586D01*
X9673Y8459D01*
X9673Y8321D01*
X9620Y8194D01*
X9523Y8097D01*
X9396Y8044D01*
X9258Y8044D01*
G37*
%LPD*%
%LPC*%
G36*
X5258Y8044D02*
X5258Y8044D01*
X5131Y8097D01*
X5034Y8194D01*
X4981Y8321D01*
X4981Y8459D01*
X5034Y8586D01*
X5131Y8683D01*
X5258Y8736D01*
X5396Y8736D01*
X5523Y8683D01*
X5620Y8586D01*
X5673Y8459D01*
X5673Y8321D01*
X5620Y8194D01*
X5523Y8097D01*
X5396Y8044D01*
X5258Y8044D01*
G37*
%LPD*%
%LPC*%
G36*
X4258Y8044D02*
X4258Y8044D01*
X4131Y8097D01*
X4034Y8194D01*
X3981Y8321D01*
X3981Y8459D01*
X4034Y8586D01*
X4131Y8683D01*
X4258Y8736D01*
X4396Y8736D01*
X4523Y8683D01*
X4620Y8586D01*
X4673Y8459D01*
X4673Y8321D01*
X4620Y8194D01*
X4523Y8097D01*
X4396Y8044D01*
X4258Y8044D01*
G37*
%LPD*%
%LPC*%
G36*
X12258Y9044D02*
X12258Y9044D01*
X12131Y9097D01*
X12034Y9194D01*
X11981Y9321D01*
X11981Y9459D01*
X12034Y9586D01*
X12131Y9683D01*
X12258Y9736D01*
X12396Y9736D01*
X12523Y9683D01*
X12620Y9586D01*
X12673Y9459D01*
X12673Y9321D01*
X12620Y9194D01*
X12523Y9097D01*
X12396Y9044D01*
X12258Y9044D01*
G37*
%LPD*%
%LPC*%
G36*
X20258Y8044D02*
X20258Y8044D01*
X20131Y8097D01*
X20034Y8194D01*
X19981Y8321D01*
X19981Y8459D01*
X20034Y8586D01*
X20131Y8683D01*
X20258Y8736D01*
X20396Y8736D01*
X20523Y8683D01*
X20620Y8586D01*
X20673Y8459D01*
X20673Y8321D01*
X20620Y8194D01*
X20523Y8097D01*
X20396Y8044D01*
X20258Y8044D01*
G37*
%LPD*%
%LPC*%
G36*
X19258Y8044D02*
X19258Y8044D01*
X19131Y8097D01*
X19034Y8194D01*
X18981Y8321D01*
X18981Y8459D01*
X19034Y8586D01*
X19131Y8683D01*
X19258Y8736D01*
X19396Y8736D01*
X19523Y8683D01*
X19620Y8586D01*
X19673Y8459D01*
X19673Y8321D01*
X19620Y8194D01*
X19523Y8097D01*
X19396Y8044D01*
X19258Y8044D01*
G37*
%LPD*%
%LPC*%
G36*
X18258Y8044D02*
X18258Y8044D01*
X18131Y8097D01*
X18034Y8194D01*
X17981Y8321D01*
X17981Y8459D01*
X18034Y8586D01*
X18131Y8683D01*
X18258Y8736D01*
X18396Y8736D01*
X18523Y8683D01*
X18620Y8586D01*
X18673Y8459D01*
X18673Y8321D01*
X18620Y8194D01*
X18523Y8097D01*
X18396Y8044D01*
X18258Y8044D01*
G37*
%LPD*%
%LPC*%
G36*
X17258Y8044D02*
X17258Y8044D01*
X17131Y8097D01*
X17034Y8194D01*
X16981Y8321D01*
X16981Y8459D01*
X17034Y8586D01*
X17131Y8683D01*
X17258Y8736D01*
X17396Y8736D01*
X17523Y8683D01*
X17620Y8586D01*
X17673Y8459D01*
X17673Y8321D01*
X17620Y8194D01*
X17523Y8097D01*
X17396Y8044D01*
X17258Y8044D01*
G37*
%LPD*%
%LPC*%
G36*
X16258Y8044D02*
X16258Y8044D01*
X16131Y8097D01*
X16034Y8194D01*
X15981Y8321D01*
X15981Y8459D01*
X16034Y8586D01*
X16131Y8683D01*
X16258Y8736D01*
X16396Y8736D01*
X16523Y8683D01*
X16620Y8586D01*
X16673Y8459D01*
X16673Y8321D01*
X16620Y8194D01*
X16523Y8097D01*
X16396Y8044D01*
X16258Y8044D01*
G37*
%LPD*%
%LPC*%
G36*
X15258Y8044D02*
X15258Y8044D01*
X15131Y8097D01*
X15034Y8194D01*
X14981Y8321D01*
X14981Y8459D01*
X15034Y8586D01*
X15131Y8683D01*
X15258Y8736D01*
X15396Y8736D01*
X15523Y8683D01*
X15620Y8586D01*
X15673Y8459D01*
X15673Y8321D01*
X15620Y8194D01*
X15523Y8097D01*
X15396Y8044D01*
X15258Y8044D01*
G37*
%LPD*%
%LPC*%
G36*
X14258Y8044D02*
X14258Y8044D01*
X14131Y8097D01*
X14034Y8194D01*
X13981Y8321D01*
X13981Y8459D01*
X14034Y8586D01*
X14131Y8683D01*
X14258Y8736D01*
X14396Y8736D01*
X14523Y8683D01*
X14620Y8586D01*
X14673Y8459D01*
X14673Y8321D01*
X14620Y8194D01*
X14523Y8097D01*
X14396Y8044D01*
X14258Y8044D01*
G37*
%LPD*%
%LPC*%
G36*
X13258Y8044D02*
X13258Y8044D01*
X13131Y8097D01*
X13034Y8194D01*
X12981Y8321D01*
X12981Y8459D01*
X13034Y8586D01*
X13131Y8683D01*
X13258Y8736D01*
X13396Y8736D01*
X13523Y8683D01*
X13620Y8586D01*
X13673Y8459D01*
X13673Y8321D01*
X13620Y8194D01*
X13523Y8097D01*
X13396Y8044D01*
X13258Y8044D01*
G37*
%LPD*%
%LPC*%
G36*
X12258Y8044D02*
X12258Y8044D01*
X12131Y8097D01*
X12034Y8194D01*
X11981Y8321D01*
X11981Y8459D01*
X12034Y8586D01*
X12131Y8683D01*
X12258Y8736D01*
X12396Y8736D01*
X12523Y8683D01*
X12620Y8586D01*
X12673Y8459D01*
X12673Y8321D01*
X12620Y8194D01*
X12523Y8097D01*
X12396Y8044D01*
X12258Y8044D01*
G37*
%LPD*%
%LPC*%
G36*
X11258Y8044D02*
X11258Y8044D01*
X11131Y8097D01*
X11034Y8194D01*
X10981Y8321D01*
X10981Y8459D01*
X11034Y8586D01*
X11131Y8683D01*
X11258Y8736D01*
X11396Y8736D01*
X11523Y8683D01*
X11620Y8586D01*
X11673Y8459D01*
X11673Y8321D01*
X11620Y8194D01*
X11523Y8097D01*
X11396Y8044D01*
X11258Y8044D01*
G37*
%LPD*%
%LPC*%
G36*
X6258Y18044D02*
X6258Y18044D01*
X6131Y18097D01*
X6034Y18194D01*
X5981Y18321D01*
X5981Y18459D01*
X6034Y18586D01*
X6131Y18683D01*
X6258Y18736D01*
X6396Y18736D01*
X6523Y18683D01*
X6620Y18586D01*
X6673Y18459D01*
X6673Y18321D01*
X6620Y18194D01*
X6523Y18097D01*
X6396Y18044D01*
X6258Y18044D01*
G37*
%LPD*%
%LPC*%
G36*
X8258Y18044D02*
X8258Y18044D01*
X8131Y18097D01*
X8034Y18194D01*
X7981Y18321D01*
X7981Y18459D01*
X8034Y18586D01*
X8131Y18683D01*
X8258Y18736D01*
X8396Y18736D01*
X8523Y18683D01*
X8620Y18586D01*
X8673Y18459D01*
X8673Y18321D01*
X8620Y18194D01*
X8523Y18097D01*
X8396Y18044D01*
X8258Y18044D01*
G37*
%LPD*%
%LPC*%
G36*
X7258Y18044D02*
X7258Y18044D01*
X7131Y18097D01*
X7034Y18194D01*
X6981Y18321D01*
X6981Y18459D01*
X7034Y18586D01*
X7131Y18683D01*
X7258Y18736D01*
X7396Y18736D01*
X7523Y18683D01*
X7620Y18586D01*
X7673Y18459D01*
X7673Y18321D01*
X7620Y18194D01*
X7523Y18097D01*
X7396Y18044D01*
X7258Y18044D01*
G37*
%LPD*%
%LPC*%
G36*
X13258Y9044D02*
X13258Y9044D01*
X13131Y9097D01*
X13034Y9194D01*
X12981Y9321D01*
X12981Y9459D01*
X13034Y9586D01*
X13131Y9683D01*
X13258Y9736D01*
X13396Y9736D01*
X13523Y9683D01*
X13620Y9586D01*
X13673Y9459D01*
X13673Y9321D01*
X13620Y9194D01*
X13523Y9097D01*
X13396Y9044D01*
X13258Y9044D01*
G37*
%LPD*%
%LPC*%
G36*
X9258Y18044D02*
X9258Y18044D01*
X9131Y18097D01*
X9034Y18194D01*
X8981Y18321D01*
X8981Y18459D01*
X9034Y18586D01*
X9131Y18683D01*
X9258Y18736D01*
X9396Y18736D01*
X9523Y18683D01*
X9620Y18586D01*
X9673Y18459D01*
X9673Y18321D01*
X9620Y18194D01*
X9523Y18097D01*
X9396Y18044D01*
X9258Y18044D01*
G37*
%LPD*%
%LPC*%
G36*
X10258Y18044D02*
X10258Y18044D01*
X10131Y18097D01*
X10034Y18194D01*
X9981Y18321D01*
X9981Y18459D01*
X10034Y18586D01*
X10131Y18683D01*
X10258Y18736D01*
X10396Y18736D01*
X10523Y18683D01*
X10620Y18586D01*
X10673Y18459D01*
X10673Y18321D01*
X10620Y18194D01*
X10523Y18097D01*
X10396Y18044D01*
X10258Y18044D01*
G37*
%LPD*%
%LPC*%
G36*
X12258Y18044D02*
X12258Y18044D01*
X12131Y18097D01*
X12034Y18194D01*
X11981Y18321D01*
X11981Y18459D01*
X12034Y18586D01*
X12131Y18683D01*
X12258Y18736D01*
X12396Y18736D01*
X12523Y18683D01*
X12620Y18586D01*
X12673Y18459D01*
X12673Y18321D01*
X12620Y18194D01*
X12523Y18097D01*
X12396Y18044D01*
X12258Y18044D01*
G37*
%LPD*%
%LPC*%
G36*
X13258Y18044D02*
X13258Y18044D01*
X13131Y18097D01*
X13034Y18194D01*
X12981Y18321D01*
X12981Y18459D01*
X13034Y18586D01*
X13131Y18683D01*
X13258Y18736D01*
X13396Y18736D01*
X13523Y18683D01*
X13620Y18586D01*
X13673Y18459D01*
X13673Y18321D01*
X13620Y18194D01*
X13523Y18097D01*
X13396Y18044D01*
X13258Y18044D01*
G37*
%LPD*%
%LPC*%
G36*
X9258Y9044D02*
X9258Y9044D01*
X9131Y9097D01*
X9034Y9194D01*
X8981Y9321D01*
X8981Y9459D01*
X9034Y9586D01*
X9131Y9683D01*
X9258Y9736D01*
X9396Y9736D01*
X9523Y9683D01*
X9620Y9586D01*
X9673Y9459D01*
X9673Y9321D01*
X9620Y9194D01*
X9523Y9097D01*
X9396Y9044D01*
X9258Y9044D01*
G37*
%LPD*%
%LPC*%
G36*
X8258Y9044D02*
X8258Y9044D01*
X8131Y9097D01*
X8034Y9194D01*
X7981Y9321D01*
X7981Y9459D01*
X8034Y9586D01*
X8131Y9683D01*
X8258Y9736D01*
X8396Y9736D01*
X8523Y9683D01*
X8620Y9586D01*
X8673Y9459D01*
X8673Y9321D01*
X8620Y9194D01*
X8523Y9097D01*
X8396Y9044D01*
X8258Y9044D01*
G37*
%LPD*%
%LPC*%
G36*
X7258Y9044D02*
X7258Y9044D01*
X7131Y9097D01*
X7034Y9194D01*
X6981Y9321D01*
X6981Y9459D01*
X7034Y9586D01*
X7131Y9683D01*
X7258Y9736D01*
X7396Y9736D01*
X7523Y9683D01*
X7620Y9586D01*
X7673Y9459D01*
X7673Y9321D01*
X7620Y9194D01*
X7523Y9097D01*
X7396Y9044D01*
X7258Y9044D01*
G37*
%LPD*%
%LPC*%
G36*
X6258Y9044D02*
X6258Y9044D01*
X6131Y9097D01*
X6034Y9194D01*
X5981Y9321D01*
X5981Y9459D01*
X6034Y9586D01*
X6131Y9683D01*
X6258Y9736D01*
X6396Y9736D01*
X6523Y9683D01*
X6620Y9586D01*
X6673Y9459D01*
X6673Y9321D01*
X6620Y9194D01*
X6523Y9097D01*
X6396Y9044D01*
X6258Y9044D01*
G37*
%LPD*%
%LPC*%
G36*
X5258Y9044D02*
X5258Y9044D01*
X5131Y9097D01*
X5034Y9194D01*
X4981Y9321D01*
X4981Y9459D01*
X5034Y9586D01*
X5131Y9683D01*
X5258Y9736D01*
X5396Y9736D01*
X5523Y9683D01*
X5620Y9586D01*
X5673Y9459D01*
X5673Y9321D01*
X5620Y9194D01*
X5523Y9097D01*
X5396Y9044D01*
X5258Y9044D01*
G37*
%LPD*%
%LPC*%
G36*
X15258Y18044D02*
X15258Y18044D01*
X15131Y18097D01*
X15034Y18194D01*
X14981Y18321D01*
X14981Y18459D01*
X15034Y18586D01*
X15131Y18683D01*
X15258Y18736D01*
X15396Y18736D01*
X15523Y18683D01*
X15620Y18586D01*
X15673Y18459D01*
X15673Y18321D01*
X15620Y18194D01*
X15523Y18097D01*
X15396Y18044D01*
X15258Y18044D01*
G37*
%LPD*%
%LPC*%
G36*
X16258Y18044D02*
X16258Y18044D01*
X16131Y18097D01*
X16034Y18194D01*
X15981Y18321D01*
X15981Y18459D01*
X16034Y18586D01*
X16131Y18683D01*
X16258Y18736D01*
X16396Y18736D01*
X16523Y18683D01*
X16620Y18586D01*
X16673Y18459D01*
X16673Y18321D01*
X16620Y18194D01*
X16523Y18097D01*
X16396Y18044D01*
X16258Y18044D01*
G37*
%LPD*%
%LPC*%
G36*
X29732Y19312D02*
X29732Y19312D01*
X29733Y19320D01*
X29756Y19389D01*
X29789Y19453D01*
X29831Y19512D01*
X29882Y19563D01*
X29941Y19605D01*
X30005Y19638D01*
X30074Y19660D01*
X30082Y19662D01*
X30082Y19312D01*
X29732Y19312D01*
G37*
%LPD*%
%LPC*%
G36*
X30280Y19312D02*
X30280Y19312D01*
X30280Y19662D01*
X30289Y19660D01*
X30357Y19638D01*
X30422Y19605D01*
X30480Y19563D01*
X30531Y19512D01*
X30574Y19453D01*
X30606Y19389D01*
X30629Y19320D01*
X30630Y19312D01*
X30280Y19312D01*
G37*
%LPD*%
%LPC*%
G36*
X30280Y19113D02*
X30280Y19113D01*
X30630Y19113D01*
X30629Y19105D01*
X30606Y19036D01*
X30574Y18972D01*
X30531Y18914D01*
X30480Y18862D01*
X30422Y18820D01*
X30357Y18787D01*
X30289Y18765D01*
X30280Y18764D01*
X30280Y19113D01*
G37*
%LPD*%
%LPC*%
G36*
X30074Y18765D02*
X30074Y18765D01*
X30005Y18787D01*
X29941Y18820D01*
X29882Y18862D01*
X29831Y18914D01*
X29789Y18972D01*
X29756Y19036D01*
X29733Y19105D01*
X29732Y19113D01*
X30082Y19113D01*
X30082Y18764D01*
X30074Y18765D01*
G37*
%LPD*%
%LPC*%
G36*
X30280Y8887D02*
X30280Y8887D01*
X30280Y9209D01*
X30282Y9208D01*
X30347Y9187D01*
X30407Y9156D01*
X30462Y9117D01*
X30510Y9068D01*
X30550Y9014D01*
X30581Y8953D01*
X30602Y8888D01*
X30602Y8887D01*
X30280Y8887D01*
G37*
%LPD*%
%LPC*%
G36*
X29760Y8887D02*
X29760Y8887D01*
X29760Y8888D01*
X29781Y8953D01*
X29812Y9014D01*
X29852Y9068D01*
X29900Y9117D01*
X29955Y9156D01*
X30015Y9187D01*
X30080Y9208D01*
X30082Y9209D01*
X30082Y8887D01*
X29760Y8887D01*
G37*
%LPD*%
%LPC*%
G36*
X30080Y8367D02*
X30080Y8367D01*
X30015Y8388D01*
X29955Y8418D01*
X29900Y8458D01*
X29852Y8506D01*
X29812Y8561D01*
X29781Y8622D01*
X29760Y8686D01*
X29760Y8688D01*
X30082Y8688D01*
X30082Y8366D01*
X30080Y8367D01*
G37*
%LPD*%
%LPC*%
G36*
X30280Y8688D02*
X30280Y8688D01*
X30602Y8688D01*
X30602Y8686D01*
X30581Y8622D01*
X30550Y8561D01*
X30510Y8506D01*
X30462Y8458D01*
X30407Y8418D01*
X30347Y8388D01*
X30282Y8367D01*
X30280Y8366D01*
X30280Y8688D01*
G37*
%LPD*%
%LPC*%
G36*
X4132Y3099D02*
X4132Y3099D01*
X4147Y3146D01*
X4174Y3200D01*
X4210Y3248D01*
X4252Y3290D01*
X4300Y3326D01*
X4354Y3353D01*
X4401Y3368D01*
X4401Y3099D01*
X4132Y3099D01*
G37*
%LPD*%
%LPC*%
G36*
X4599Y3099D02*
X4599Y3099D01*
X4599Y3368D01*
X4646Y3353D01*
X4700Y3326D01*
X4748Y3290D01*
X4790Y3248D01*
X4826Y3200D01*
X4853Y3146D01*
X4868Y3099D01*
X4599Y3099D01*
G37*
%LPD*%
%LPC*%
G36*
X4132Y4099D02*
X4132Y4099D01*
X4147Y4146D01*
X4174Y4200D01*
X4210Y4248D01*
X4252Y4290D01*
X4300Y4326D01*
X4354Y4353D01*
X4401Y4368D01*
X4401Y4099D01*
X4132Y4099D01*
G37*
%LPD*%
%LPC*%
G36*
X4599Y4099D02*
X4599Y4099D01*
X4599Y4368D01*
X4646Y4353D01*
X4700Y4326D01*
X4748Y4290D01*
X4790Y4248D01*
X4826Y4200D01*
X4853Y4146D01*
X4868Y4099D01*
X4599Y4099D01*
G37*
%LPD*%
%LPC*%
G36*
X4599Y3901D02*
X4599Y3901D01*
X4868Y3901D01*
X4853Y3854D01*
X4826Y3800D01*
X4790Y3752D01*
X4748Y3710D01*
X4700Y3674D01*
X4646Y3647D01*
X4599Y3632D01*
X4599Y3901D01*
G37*
%LPD*%
%LPC*%
G36*
X4354Y3647D02*
X4354Y3647D01*
X4300Y3674D01*
X4252Y3710D01*
X4210Y3752D01*
X4174Y3800D01*
X4147Y3854D01*
X4132Y3901D01*
X4401Y3901D01*
X4401Y3632D01*
X4354Y3647D01*
G37*
%LPD*%
%LPC*%
G36*
X4354Y2647D02*
X4354Y2647D01*
X4300Y2674D01*
X4252Y2710D01*
X4210Y2752D01*
X4174Y2800D01*
X4147Y2854D01*
X4132Y2901D01*
X4401Y2901D01*
X4401Y2632D01*
X4354Y2647D01*
G37*
%LPD*%
%LPC*%
G36*
X4599Y2901D02*
X4599Y2901D01*
X4868Y2901D01*
X4853Y2854D01*
X4826Y2800D01*
X4790Y2752D01*
X4748Y2710D01*
X4700Y2674D01*
X4646Y2647D01*
X4599Y2632D01*
X4599Y2901D01*
G37*
%LPD*%
%LPC*%
G36*
X4599Y5099D02*
X4599Y5099D01*
X4599Y5368D01*
X4646Y5353D01*
X4700Y5326D01*
X4748Y5290D01*
X4790Y5248D01*
X4826Y5200D01*
X4853Y5146D01*
X4868Y5099D01*
X4599Y5099D01*
G37*
%LPD*%
%LPC*%
G36*
X4132Y5099D02*
X4132Y5099D01*
X4147Y5146D01*
X4174Y5200D01*
X4210Y5248D01*
X4252Y5290D01*
X4300Y5326D01*
X4354Y5353D01*
X4401Y5368D01*
X4401Y5099D01*
X4132Y5099D01*
G37*
%LPD*%
%LPC*%
G36*
X4354Y1647D02*
X4354Y1647D01*
X4300Y1674D01*
X4252Y1710D01*
X4210Y1752D01*
X4174Y1800D01*
X4147Y1854D01*
X4132Y1901D01*
X4401Y1901D01*
X4401Y1632D01*
X4354Y1647D01*
G37*
%LPD*%
%LPC*%
G36*
X4599Y4901D02*
X4599Y4901D01*
X4868Y4901D01*
X4853Y4854D01*
X4826Y4800D01*
X4790Y4752D01*
X4748Y4710D01*
X4700Y4674D01*
X4646Y4647D01*
X4599Y4632D01*
X4599Y4901D01*
G37*
%LPD*%
%LPC*%
G36*
X4354Y4647D02*
X4354Y4647D01*
X4300Y4674D01*
X4252Y4710D01*
X4210Y4752D01*
X4174Y4800D01*
X4147Y4854D01*
X4132Y4901D01*
X4401Y4901D01*
X4401Y4632D01*
X4354Y4647D01*
G37*
%LPD*%
%LPC*%
G36*
X4599Y1901D02*
X4599Y1901D01*
X4868Y1901D01*
X4853Y1854D01*
X4826Y1800D01*
X4790Y1752D01*
X4748Y1710D01*
X4700Y1674D01*
X4646Y1647D01*
X4599Y1632D01*
X4599Y1901D01*
G37*
%LPD*%
%LPC*%
G36*
X4599Y2099D02*
X4599Y2099D01*
X4599Y2368D01*
X4646Y2353D01*
X4700Y2326D01*
X4748Y2290D01*
X4790Y2248D01*
X4826Y2200D01*
X4853Y2146D01*
X4868Y2099D01*
X4599Y2099D01*
G37*
%LPD*%
%LPC*%
G36*
X4132Y2099D02*
X4132Y2099D01*
X4147Y2146D01*
X4174Y2200D01*
X4210Y2248D01*
X4252Y2290D01*
X4300Y2326D01*
X4354Y2353D01*
X4401Y2368D01*
X4401Y2099D01*
X4132Y2099D01*
G37*
%LPD*%
%LPC*%
G36*
X26588Y5820D02*
X26588Y5820D01*
X26588Y6070D01*
X26602Y6068D01*
X26665Y6041D01*
X26722Y6003D01*
X26771Y5955D01*
X26809Y5897D01*
X26835Y5834D01*
X26838Y5820D01*
X26588Y5820D01*
G37*
%LPD*%
%LPC*%
G36*
X27162Y5820D02*
X27162Y5820D01*
X27165Y5834D01*
X27191Y5897D01*
X27229Y5955D01*
X27278Y6003D01*
X27335Y6041D01*
X27398Y6068D01*
X27412Y6070D01*
X27412Y5820D01*
X27162Y5820D01*
G37*
%LPD*%
%LPC*%
G36*
X27588Y5820D02*
X27588Y5820D01*
X27588Y6070D01*
X27602Y6068D01*
X27665Y6041D01*
X27722Y6003D01*
X27771Y5955D01*
X27809Y5897D01*
X27835Y5834D01*
X27838Y5820D01*
X27588Y5820D01*
G37*
%LPD*%
%LPC*%
G36*
X6588Y5912D02*
X6588Y5912D01*
X6838Y5912D01*
X6835Y5898D01*
X6809Y5835D01*
X6771Y5778D01*
X6722Y5729D01*
X6665Y5691D01*
X6602Y5665D01*
X6588Y5662D01*
X6588Y5912D01*
G37*
%LPD*%
%LPC*%
G36*
X6398Y5665D02*
X6398Y5665D01*
X6335Y5691D01*
X6278Y5729D01*
X6229Y5778D01*
X6191Y5835D01*
X6165Y5898D01*
X6162Y5912D01*
X6412Y5912D01*
X6412Y5662D01*
X6398Y5665D01*
G37*
%LPD*%
%LPC*%
G36*
X26162Y5820D02*
X26162Y5820D01*
X26165Y5834D01*
X26191Y5897D01*
X26229Y5955D01*
X26278Y6003D01*
X26335Y6041D01*
X26398Y6068D01*
X26412Y6070D01*
X26412Y5820D01*
X26162Y5820D01*
G37*
%LPD*%
%LPC*%
G36*
X6588Y1588D02*
X6588Y1588D01*
X6588Y1838D01*
X6602Y1835D01*
X6665Y1809D01*
X6722Y1771D01*
X6771Y1722D01*
X6809Y1665D01*
X6835Y1602D01*
X6838Y1588D01*
X6588Y1588D01*
G37*
%LPD*%
%LPC*%
G36*
X6162Y1588D02*
X6162Y1588D01*
X6165Y1602D01*
X6191Y1665D01*
X6229Y1722D01*
X6278Y1771D01*
X6335Y1809D01*
X6398Y1835D01*
X6412Y1838D01*
X6412Y1588D01*
X6162Y1588D01*
G37*
%LPD*%
%LPC*%
G36*
X6588Y1412D02*
X6588Y1412D01*
X6838Y1412D01*
X6835Y1398D01*
X6809Y1335D01*
X6771Y1278D01*
X6722Y1229D01*
X6665Y1191D01*
X6602Y1165D01*
X6588Y1162D01*
X6588Y1412D01*
G37*
%LPD*%
%LPC*%
G36*
X27398Y5397D02*
X27398Y5397D01*
X27335Y5423D01*
X27278Y5461D01*
X27229Y5510D01*
X27191Y5567D01*
X27165Y5631D01*
X27162Y5644D01*
X27412Y5644D01*
X27412Y5394D01*
X27398Y5397D01*
G37*
%LPD*%
%LPC*%
G36*
X26588Y5644D02*
X26588Y5644D01*
X26838Y5644D01*
X26835Y5631D01*
X26809Y5567D01*
X26771Y5510D01*
X26722Y5461D01*
X26665Y5423D01*
X26602Y5397D01*
X26588Y5394D01*
X26588Y5644D01*
G37*
%LPD*%
%LPC*%
G36*
X26398Y5397D02*
X26398Y5397D01*
X26335Y5423D01*
X26278Y5461D01*
X26229Y5510D01*
X26191Y5567D01*
X26165Y5631D01*
X26162Y5644D01*
X26412Y5644D01*
X26412Y5394D01*
X26398Y5397D01*
G37*
%LPD*%
%LPC*%
G36*
X6588Y4588D02*
X6588Y4588D01*
X6588Y4838D01*
X6602Y4835D01*
X6665Y4809D01*
X6722Y4771D01*
X6771Y4722D01*
X6809Y4665D01*
X6835Y4602D01*
X6838Y4588D01*
X6588Y4588D01*
G37*
%LPD*%
%LPC*%
G36*
X6162Y4588D02*
X6162Y4588D01*
X6165Y4602D01*
X6191Y4665D01*
X6229Y4722D01*
X6278Y4771D01*
X6335Y4809D01*
X6398Y4835D01*
X6412Y4838D01*
X6412Y4588D01*
X6162Y4588D01*
G37*
%LPD*%
%LPC*%
G36*
X6588Y4412D02*
X6588Y4412D01*
X6838Y4412D01*
X6835Y4398D01*
X6809Y4335D01*
X6771Y4278D01*
X6722Y4229D01*
X6665Y4191D01*
X6602Y4165D01*
X6588Y4162D01*
X6588Y4412D01*
G37*
%LPD*%
%LPC*%
G36*
X6398Y4165D02*
X6398Y4165D01*
X6335Y4191D01*
X6278Y4229D01*
X6229Y4278D01*
X6191Y4335D01*
X6165Y4398D01*
X6162Y4412D01*
X6412Y4412D01*
X6412Y4162D01*
X6398Y4165D01*
G37*
%LPD*%
%LPC*%
G36*
X27588Y5644D02*
X27588Y5644D01*
X27838Y5644D01*
X27835Y5631D01*
X27809Y5567D01*
X27771Y5510D01*
X27722Y5461D01*
X27665Y5423D01*
X27602Y5397D01*
X27588Y5394D01*
X27588Y5644D01*
G37*
%LPD*%
%LPC*%
G36*
X6588Y3088D02*
X6588Y3088D01*
X6588Y3338D01*
X6602Y3335D01*
X6665Y3309D01*
X6722Y3271D01*
X6771Y3222D01*
X6809Y3165D01*
X6835Y3102D01*
X6838Y3088D01*
X6588Y3088D01*
G37*
%LPD*%
%LPC*%
G36*
X6162Y3088D02*
X6162Y3088D01*
X6165Y3102D01*
X6191Y3165D01*
X6229Y3222D01*
X6278Y3271D01*
X6335Y3309D01*
X6398Y3335D01*
X6412Y3338D01*
X6412Y3088D01*
X6162Y3088D01*
G37*
%LPD*%
%LPC*%
G36*
X6588Y2912D02*
X6588Y2912D01*
X6838Y2912D01*
X6835Y2898D01*
X6809Y2835D01*
X6771Y2778D01*
X6722Y2729D01*
X6665Y2691D01*
X6602Y2665D01*
X6588Y2662D01*
X6588Y2912D01*
G37*
%LPD*%
%LPC*%
G36*
X6398Y2665D02*
X6398Y2665D01*
X6335Y2691D01*
X6278Y2729D01*
X6229Y2778D01*
X6191Y2835D01*
X6165Y2898D01*
X6162Y2912D01*
X6412Y2912D01*
X6412Y2662D01*
X6398Y2665D01*
G37*
%LPD*%
%LPC*%
G36*
X6162Y6088D02*
X6162Y6088D01*
X6165Y6102D01*
X6191Y6165D01*
X6229Y6222D01*
X6278Y6271D01*
X6335Y6309D01*
X6398Y6335D01*
X6412Y6338D01*
X6412Y6088D01*
X6162Y6088D01*
G37*
%LPD*%
%LPC*%
G36*
X6588Y6088D02*
X6588Y6088D01*
X6588Y6338D01*
X6602Y6335D01*
X6665Y6309D01*
X6722Y6271D01*
X6771Y6222D01*
X6809Y6165D01*
X6835Y6102D01*
X6838Y6088D01*
X6588Y6088D01*
G37*
%LPD*%
%LPC*%
G36*
X6398Y1165D02*
X6398Y1165D01*
X6335Y1191D01*
X6278Y1229D01*
X6229Y1278D01*
X6191Y1335D01*
X6165Y1398D01*
X6162Y1412D01*
X6412Y1412D01*
X6412Y1162D01*
X6398Y1165D01*
G37*
%LPD*%
%LPC*%
G36*
X26588Y2356D02*
X26588Y2356D01*
X26588Y2606D01*
X26602Y2603D01*
X26665Y2577D01*
X26722Y2539D01*
X26771Y2490D01*
X26809Y2433D01*
X26835Y2369D01*
X26838Y2356D01*
X26588Y2356D01*
G37*
%LPD*%
%LPC*%
G36*
X27588Y2356D02*
X27588Y2356D01*
X27588Y2606D01*
X27602Y2603D01*
X27665Y2577D01*
X27722Y2539D01*
X27771Y2490D01*
X27809Y2433D01*
X27835Y2369D01*
X27838Y2356D01*
X27588Y2356D01*
G37*
%LPD*%
%LPC*%
G36*
X26162Y2356D02*
X26162Y2356D01*
X26165Y2369D01*
X26191Y2433D01*
X26229Y2490D01*
X26278Y2539D01*
X26335Y2577D01*
X26398Y2603D01*
X26412Y2606D01*
X26412Y2356D01*
X26162Y2356D01*
G37*
%LPD*%
%LPC*%
G36*
X27162Y2356D02*
X27162Y2356D01*
X27165Y2369D01*
X27191Y2433D01*
X27229Y2490D01*
X27278Y2539D01*
X27335Y2577D01*
X27398Y2603D01*
X27412Y2606D01*
X27412Y2356D01*
X27162Y2356D01*
G37*
%LPD*%
%LPC*%
G36*
X27588Y2180D02*
X27588Y2180D01*
X27838Y2180D01*
X27835Y2166D01*
X27809Y2103D01*
X27771Y2045D01*
X27722Y1997D01*
X27665Y1959D01*
X27602Y1932D01*
X27588Y1930D01*
X27588Y2180D01*
G37*
%LPD*%
%LPC*%
G36*
X27398Y1932D02*
X27398Y1932D01*
X27335Y1959D01*
X27278Y1997D01*
X27229Y2045D01*
X27191Y2103D01*
X27165Y2166D01*
X27162Y2180D01*
X27412Y2180D01*
X27412Y1930D01*
X27398Y1932D01*
G37*
%LPD*%
%LPC*%
G36*
X26588Y2180D02*
X26588Y2180D01*
X26838Y2180D01*
X26835Y2166D01*
X26809Y2103D01*
X26771Y2045D01*
X26722Y1997D01*
X26665Y1959D01*
X26602Y1932D01*
X26588Y1930D01*
X26588Y2180D01*
G37*
%LPD*%
%LPC*%
G36*
X26398Y1932D02*
X26398Y1932D01*
X26335Y1959D01*
X26278Y1997D01*
X26229Y2045D01*
X26191Y2103D01*
X26165Y2166D01*
X26162Y2180D01*
X26412Y2180D01*
X26412Y1930D01*
X26398Y1932D01*
G37*
%LPD*%
%LPC*%
G36*
X13992Y9477D02*
X13992Y9477D01*
X13994Y9491D01*
X14020Y9554D01*
X14058Y9610D01*
X14106Y9658D01*
X14163Y9696D01*
X14226Y9722D01*
X14240Y9725D01*
X14240Y9477D01*
X13992Y9477D01*
G37*
%LPD*%
%LPC*%
G36*
X10992Y9477D02*
X10992Y9477D01*
X10994Y9491D01*
X11020Y9554D01*
X11058Y9610D01*
X11106Y9658D01*
X11163Y9696D01*
X11226Y9722D01*
X11240Y9725D01*
X11240Y9477D01*
X10992Y9477D01*
G37*
%LPD*%
%LPC*%
G36*
X14414Y9477D02*
X14414Y9477D01*
X14414Y9725D01*
X14428Y9722D01*
X14491Y9696D01*
X14547Y9658D01*
X14595Y9610D01*
X14633Y9554D01*
X14659Y9491D01*
X14662Y9477D01*
X14414Y9477D01*
G37*
%LPD*%
%LPC*%
G36*
X11414Y9477D02*
X11414Y9477D01*
X11414Y9725D01*
X11428Y9722D01*
X11491Y9696D01*
X11547Y9658D01*
X11595Y9610D01*
X11633Y9554D01*
X11659Y9491D01*
X11662Y9477D01*
X11414Y9477D01*
G37*
%LPD*%
%LPC*%
G36*
X14414Y18303D02*
X14414Y18303D01*
X14662Y18303D01*
X14659Y18289D01*
X14633Y18226D01*
X14595Y18169D01*
X14547Y18121D01*
X14491Y18083D01*
X14428Y18057D01*
X14414Y18054D01*
X14414Y18303D01*
G37*
%LPD*%
%LPC*%
G36*
X11226Y18057D02*
X11226Y18057D01*
X11163Y18083D01*
X11106Y18121D01*
X11058Y18169D01*
X11020Y18226D01*
X10994Y18289D01*
X10992Y18303D01*
X11240Y18303D01*
X11240Y18054D01*
X11226Y18057D01*
G37*
%LPD*%
%LPC*%
G36*
X11414Y18303D02*
X11414Y18303D01*
X11662Y18303D01*
X11659Y18289D01*
X11633Y18226D01*
X11595Y18169D01*
X11547Y18121D01*
X11491Y18083D01*
X11428Y18057D01*
X11414Y18054D01*
X11414Y18303D01*
G37*
%LPD*%
%LPC*%
G36*
X11414Y9303D02*
X11414Y9303D01*
X11662Y9303D01*
X11659Y9289D01*
X11633Y9226D01*
X11595Y9169D01*
X11547Y9121D01*
X11491Y9083D01*
X11428Y9057D01*
X11414Y9054D01*
X11414Y9303D01*
G37*
%LPD*%
%LPC*%
G36*
X14226Y18057D02*
X14226Y18057D01*
X14163Y18083D01*
X14106Y18121D01*
X14058Y18169D01*
X14020Y18226D01*
X13994Y18289D01*
X13992Y18303D01*
X14240Y18303D01*
X14240Y18054D01*
X14226Y18057D01*
G37*
%LPD*%
%LPC*%
G36*
X11414Y18477D02*
X11414Y18477D01*
X11414Y18725D01*
X11428Y18722D01*
X11491Y18696D01*
X11547Y18658D01*
X11595Y18610D01*
X11633Y18554D01*
X11659Y18491D01*
X11662Y18477D01*
X11414Y18477D01*
G37*
%LPD*%
%LPC*%
G36*
X13992Y18477D02*
X13992Y18477D01*
X13994Y18491D01*
X14020Y18554D01*
X14058Y18610D01*
X14106Y18658D01*
X14163Y18696D01*
X14226Y18722D01*
X14240Y18725D01*
X14240Y18477D01*
X13992Y18477D01*
G37*
%LPD*%
%LPC*%
G36*
X14226Y9057D02*
X14226Y9057D01*
X14163Y9083D01*
X14106Y9121D01*
X14058Y9169D01*
X14020Y9226D01*
X13994Y9289D01*
X13992Y9303D01*
X14240Y9303D01*
X14240Y9054D01*
X14226Y9057D01*
G37*
%LPD*%
%LPC*%
G36*
X14414Y9303D02*
X14414Y9303D01*
X14662Y9303D01*
X14659Y9289D01*
X14633Y9226D01*
X14595Y9169D01*
X14547Y9121D01*
X14491Y9083D01*
X14428Y9057D01*
X14414Y9054D01*
X14414Y9303D01*
G37*
%LPD*%
%LPC*%
G36*
X14414Y18477D02*
X14414Y18477D01*
X14414Y18725D01*
X14428Y18722D01*
X14491Y18696D01*
X14547Y18658D01*
X14595Y18610D01*
X14633Y18554D01*
X14659Y18491D01*
X14662Y18477D01*
X14414Y18477D01*
G37*
%LPD*%
%LPC*%
G36*
X10992Y18477D02*
X10992Y18477D01*
X10994Y18491D01*
X11020Y18554D01*
X11058Y18610D01*
X11106Y18658D01*
X11163Y18696D01*
X11226Y18722D01*
X11240Y18725D01*
X11240Y18477D01*
X10992Y18477D01*
G37*
%LPD*%
%LPC*%
G36*
X11226Y9057D02*
X11226Y9057D01*
X11163Y9083D01*
X11106Y9121D01*
X11058Y9169D01*
X11020Y9226D01*
X10994Y9289D01*
X10992Y9303D01*
X11240Y9303D01*
X11240Y9054D01*
X11226Y9057D01*
G37*
%LPD*%
%LPC*%
G36*
X4499Y2999D02*
X4499Y2999D01*
X4499Y3001D01*
X4501Y3001D01*
X4501Y2999D01*
X4499Y2999D01*
G37*
%LPD*%
%LPC*%
G36*
X30180Y8787D02*
X30180Y8787D01*
X30180Y8788D01*
X30182Y8788D01*
X30182Y8787D01*
X30180Y8787D01*
G37*
%LPD*%
%LPC*%
G36*
X30180Y19212D02*
X30180Y19212D01*
X30180Y19213D01*
X30182Y19213D01*
X30182Y19212D01*
X30180Y19212D01*
G37*
%LPD*%
%LPC*%
G36*
X4499Y1999D02*
X4499Y1999D01*
X4499Y2001D01*
X4501Y2001D01*
X4501Y1999D01*
X4499Y1999D01*
G37*
%LPD*%
%LPC*%
G36*
X4499Y4999D02*
X4499Y4999D01*
X4499Y5001D01*
X4501Y5001D01*
X4501Y4999D01*
X4499Y4999D01*
G37*
%LPD*%
%LPC*%
G36*
X4499Y3999D02*
X4499Y3999D01*
X4499Y4001D01*
X4501Y4001D01*
X4501Y3999D01*
X4499Y3999D01*
G37*
%LPD*%
D10*
X24819Y19213D03*
X30181Y19213D03*
D11*
X30181Y8787D03*
D12*
X24819Y8787D03*
D13*
X4327Y8390D03*
X4327Y9390D03*
X5327Y8390D03*
X5327Y9390D03*
X6327Y8390D03*
X6327Y9390D03*
X7327Y8390D03*
X7327Y9390D03*
X8327Y8390D03*
X8327Y9390D03*
X9327Y8390D03*
X9327Y9390D03*
X10327Y8390D03*
X10327Y9390D03*
X11327Y8390D03*
X11327Y9390D03*
X12327Y8390D03*
X12327Y9390D03*
X13327Y8390D03*
X13327Y9390D03*
X14327Y8390D03*
X14327Y9390D03*
X15327Y8390D03*
X15327Y9390D03*
X16327Y8390D03*
X16327Y9390D03*
X17327Y8390D03*
X17327Y9390D03*
X18327Y8390D03*
X18327Y9390D03*
X19327Y8390D03*
X19327Y9390D03*
X20327Y8390D03*
X20327Y9390D03*
X21327Y8390D03*
X21327Y9390D03*
X4327Y18390D03*
X4327Y19390D03*
X5327Y18390D03*
X5327Y19390D03*
X6327Y18390D03*
X6327Y19390D03*
X7327Y18390D03*
X7327Y19390D03*
X8327Y18390D03*
X8327Y19390D03*
X9327Y18390D03*
X9327Y19390D03*
X10327Y18390D03*
X10327Y19390D03*
X11327Y18390D03*
X11327Y19390D03*
X12327Y18390D03*
X12327Y19390D03*
X13327Y18390D03*
X13327Y19390D03*
X14327Y18390D03*
X14327Y19390D03*
X15327Y18390D03*
X15327Y19390D03*
X16327Y18390D03*
X16327Y19390D03*
X17327Y18390D03*
X17327Y19390D03*
X18327Y18390D03*
X18327Y19390D03*
X19327Y18390D03*
X19327Y19390D03*
X20327Y18390D03*
X20327Y19390D03*
X21327Y18390D03*
X21327Y19390D03*
D14*
X23500Y2268D03*
X24500Y2268D03*
X25500Y2268D03*
X26500Y2268D03*
X27500Y2268D03*
X28500Y2268D03*
X29500Y2268D03*
X30500Y2268D03*
X30500Y5732D03*
X29500Y5732D03*
X28500Y5732D03*
X27500Y5732D03*
X26500Y5732D03*
X25500Y5732D03*
X24500Y5732D03*
X23500Y5732D03*
D15*
X20000Y2500D03*
X20000Y3500D03*
X20000Y4500D03*
X20000Y5500D03*
X17000Y2500D03*
X16000Y2500D03*
X17000Y3500D03*
X16000Y3500D03*
X17000Y4500D03*
X16000Y4500D03*
X17000Y5500D03*
X16000Y5500D03*
X13000Y2500D03*
X13000Y3500D03*
X13000Y4500D03*
X13000Y5500D03*
X4500Y2000D03*
X4500Y3000D03*
X4500Y4000D03*
X4500Y5000D03*
D14*
X10500Y6000D03*
X6500Y6000D03*
X10500Y1500D03*
X6500Y1500D03*
X10500Y3000D03*
X6500Y3000D03*
X10500Y4500D03*
X6500Y4500D03*
D16*
X1500Y1500D03*
X1500Y20500D03*
X33500Y20500D03*
X33500Y1500D03*
D17*
X32600Y5000D03*
M02*
