G04 EAGLE Gerber RS-274X export*
G75*
%MOIN*%
%FSLAX34Y34*%
%LPD*%
%INBottom Copper*%
%IPPOS*%
%AMOC8*
5,1,8,0,0,1.08239X$1,22.5*%
G01*
%ADD10R,0.110236X0.110236*%
%ADD11R,0.060000X0.060000*%
%ADD12P,0.064943X8X22.500000*%
%ADD13R,0.049606X0.049606*%
%ADD14C,0.049606*%
%ADD15C,0.056000*%
%ADD16P,0.060614X8X112.500000*%
%ADD17C,0.059055*%
%ADD18C,0.175000*%
%ADD19C,0.025780*%
%ADD20C,0.010000*%


D10*
X24819Y19213D03*
X30181Y19213D03*
X30181Y8787D03*
X24819Y8787D03*
D11*
X4327Y8390D03*
D12*
X4327Y9390D03*
X5327Y8390D03*
X5327Y9390D03*
X6327Y8390D03*
X6327Y9390D03*
X7327Y8390D03*
X7327Y9390D03*
X8327Y8390D03*
X8327Y9390D03*
X9327Y8390D03*
X9327Y9390D03*
X10327Y8390D03*
X10327Y9390D03*
X11327Y8390D03*
X11327Y9390D03*
X12327Y8390D03*
X12327Y9390D03*
X13327Y8390D03*
X13327Y9390D03*
X14327Y8390D03*
X14327Y9390D03*
X15327Y8390D03*
X15327Y9390D03*
X16327Y8390D03*
X16327Y9390D03*
X17327Y8390D03*
X17327Y9390D03*
X18327Y8390D03*
X18327Y9390D03*
X19327Y8390D03*
X19327Y9390D03*
X20327Y8390D03*
X20327Y9390D03*
X21327Y8390D03*
X21327Y9390D03*
D11*
X4327Y18390D03*
D12*
X4327Y19390D03*
X5327Y18390D03*
X5327Y19390D03*
X6327Y18390D03*
X6327Y19390D03*
X7327Y18390D03*
X7327Y19390D03*
X8327Y18390D03*
X8327Y19390D03*
X9327Y18390D03*
X9327Y19390D03*
X10327Y18390D03*
X10327Y19390D03*
X11327Y18390D03*
X11327Y19390D03*
X12327Y18390D03*
X12327Y19390D03*
X13327Y18390D03*
X13327Y19390D03*
X14327Y18390D03*
X14327Y19390D03*
X15327Y18390D03*
X15327Y19390D03*
X16327Y18390D03*
X16327Y19390D03*
X17327Y18390D03*
X17327Y19390D03*
X18327Y18390D03*
X18327Y19390D03*
X19327Y18390D03*
X19327Y19390D03*
X20327Y18390D03*
X20327Y19390D03*
X21327Y18390D03*
X21327Y19390D03*
D13*
X23500Y2268D03*
D14*
X24500Y2268D03*
X25500Y2268D03*
X26500Y2268D03*
X27500Y2268D03*
X28500Y2268D03*
X29500Y2268D03*
X30500Y2268D03*
X30500Y5732D03*
X29500Y5732D03*
X28500Y5732D03*
X27500Y5732D03*
X26500Y5732D03*
X25500Y5732D03*
X24500Y5732D03*
X23500Y5732D03*
D15*
X20280Y2500D02*
X19720Y2500D01*
X19720Y3500D02*
X20280Y3500D01*
X20280Y4500D02*
X19720Y4500D01*
X19720Y5500D02*
X20280Y5500D01*
D16*
X17000Y2500D03*
X16000Y2500D03*
X17000Y3500D03*
X16000Y3500D03*
X17000Y4500D03*
X16000Y4500D03*
X17000Y5500D03*
X16000Y5500D03*
D15*
X13280Y2500D02*
X12720Y2500D01*
X12720Y3500D02*
X13280Y3500D01*
X13280Y4500D02*
X12720Y4500D01*
X12720Y5500D02*
X13280Y5500D01*
X4780Y2000D02*
X4220Y2000D01*
X4220Y3000D02*
X4780Y3000D01*
X4780Y4000D02*
X4220Y4000D01*
X4220Y5000D02*
X4780Y5000D01*
D17*
X10500Y6000D03*
X6500Y6000D03*
X10500Y1500D03*
X6500Y1500D03*
X10500Y3000D03*
X6500Y3000D03*
X10500Y4500D03*
X6500Y4500D03*
D18*
X1500Y1500D03*
X1500Y20500D03*
X33500Y20500D03*
X33500Y1500D03*
D19*
X32600Y5000D03*
D20*
X17000Y5500D02*
X17000Y7800D01*
X17000Y8080D01*
X16777Y8303D01*
X21777Y18203D02*
X21777Y18576D01*
X21513Y18840D01*
X21140Y18840D01*
X20877Y18576D01*
X10777Y17940D02*
X10327Y18390D01*
X20877Y18303D02*
X20877Y18576D01*
X20877Y18303D02*
X20513Y17940D01*
X10777Y17940D01*
X16777Y13203D02*
X16777Y8303D01*
X16777Y13203D02*
X21777Y18203D01*
X20656Y5732D02*
X23500Y5732D01*
X20656Y5732D02*
X20458Y5930D01*
X18870Y5930D02*
X17000Y7800D01*
X18870Y5930D02*
X20458Y5930D01*
X23787Y8787D02*
X24819Y8787D01*
X20140Y7940D02*
X19877Y8203D01*
X17777Y8203D02*
X17513Y7940D01*
X17140Y7940D02*
X17000Y7800D01*
X17140Y7940D02*
X17513Y7940D01*
X19877Y8203D02*
X19877Y8476D01*
X17777Y8476D02*
X17777Y8203D01*
X19513Y8840D02*
X19877Y8476D01*
X19513Y8840D02*
X18140Y8840D01*
X17777Y8476D01*
X22940Y7940D02*
X23787Y8787D01*
X22940Y7940D02*
X20140Y7940D01*
X16430Y2322D02*
X16178Y2070D01*
X5140Y7940D02*
X4877Y8203D01*
X4877Y8840D02*
X4327Y9390D01*
X5140Y7940D02*
X5777Y7940D01*
X4877Y8203D02*
X4877Y8840D01*
X16000Y3500D02*
X16000Y3175D01*
X16430Y2745D01*
X16430Y2322D01*
X16178Y2070D02*
X11647Y2070D01*
X5777Y7940D01*
X30500Y5169D02*
X30500Y2268D01*
X30500Y5169D02*
X30898Y5567D01*
X30898Y13133D02*
X24819Y19213D01*
X30898Y13133D02*
X30898Y5567D01*
X23024Y2500D02*
X20000Y2500D01*
X23024Y2500D02*
X23190Y2666D01*
X25102Y2666D01*
X25500Y2268D01*
X27268Y3500D02*
X20000Y3500D01*
X27268Y3500D02*
X28500Y2268D01*
X27268Y4500D02*
X20000Y4500D01*
X27268Y4500D02*
X28500Y5732D01*
X23169Y5500D02*
X20000Y5500D01*
X23169Y5500D02*
X23335Y5334D01*
X25102Y5334D01*
X25500Y5732D01*
X16000Y2892D02*
X16000Y2500D01*
X16000Y2892D02*
X15570Y3322D01*
X15570Y5678D02*
X15877Y5985D01*
X15877Y12940D01*
X21327Y18390D01*
X15570Y5678D02*
X15570Y3322D01*
X25520Y8174D02*
X25520Y9401D01*
X25432Y9489D01*
X24206Y9489D01*
X19690Y9390D02*
X19327Y9390D01*
X23657Y8940D02*
X24206Y9489D01*
X23657Y8940D02*
X20140Y8940D01*
X19690Y9390D01*
X24500Y7154D02*
X24500Y5732D01*
X24500Y7154D02*
X25520Y8174D01*
M02*
