G04 EAGLE Gerber RS-274X export*
G75*
%MOIN*%
%FSLAX34Y34*%
%LPD*%
%INSilkscreen Top*%
%IPPOS*%
%AMOC8*
5,1,8,0,0,1.08239X$1,22.5*%
G01*
%ADD10C,0.006000*%
%ADD11C,0.005000*%
%ADD12C,0.004000*%
%ADD13C,0.010000*%
%ADD14C,0.008000*%
%ADD15C,0.007874*%
%ADD16R,0.021850X0.023622*%
%ADD17C,0.003000*%


D10*
X31580Y6051D02*
X32220Y6051D01*
X32220Y5980D02*
X32220Y6122D01*
X31580Y6122D02*
X31580Y5980D01*
X31793Y6381D02*
X32220Y6381D01*
X31793Y6381D02*
X31793Y6558D01*
X31795Y6577D01*
X31799Y6595D01*
X31807Y6611D01*
X31818Y6627D01*
X31831Y6640D01*
X31846Y6651D01*
X31863Y6659D01*
X31881Y6663D01*
X31900Y6665D01*
X32220Y6665D01*
X31971Y6946D02*
X31971Y7372D01*
X32220Y7666D02*
X31580Y7666D01*
X31580Y7844D01*
X31582Y7869D01*
X31587Y7894D01*
X31596Y7918D01*
X31608Y7940D01*
X31623Y7961D01*
X31641Y7979D01*
X31662Y7994D01*
X31684Y8006D01*
X31708Y8015D01*
X31733Y8020D01*
X31758Y8022D01*
X31783Y8020D01*
X31808Y8015D01*
X31832Y8006D01*
X31854Y7994D01*
X31875Y7979D01*
X31893Y7961D01*
X31908Y7940D01*
X31920Y7918D01*
X31929Y7894D01*
X31934Y7869D01*
X31936Y7844D01*
X31936Y7666D01*
X31971Y8369D02*
X31971Y8529D01*
X31972Y8369D02*
X31974Y8349D01*
X31979Y8329D01*
X31987Y8310D01*
X31998Y8293D01*
X32012Y8278D01*
X32028Y8265D01*
X32046Y8255D01*
X32066Y8249D01*
X32086Y8245D01*
X32106Y8245D01*
X32126Y8249D01*
X32146Y8255D01*
X32164Y8265D01*
X32180Y8278D01*
X32194Y8293D01*
X32205Y8310D01*
X32213Y8329D01*
X32218Y8349D01*
X32220Y8369D01*
X32220Y8529D01*
X31900Y8529D01*
X31881Y8527D01*
X31863Y8523D01*
X31847Y8515D01*
X31831Y8504D01*
X31818Y8491D01*
X31807Y8476D01*
X31799Y8459D01*
X31795Y8441D01*
X31793Y8422D01*
X31793Y8280D01*
X31580Y8811D02*
X32113Y8811D01*
X32113Y8810D02*
X32132Y8812D01*
X32150Y8816D01*
X32167Y8824D01*
X32182Y8835D01*
X32195Y8848D01*
X32206Y8864D01*
X32214Y8880D01*
X32218Y8898D01*
X32220Y8917D01*
X32220Y9161D02*
X31793Y9161D01*
X31793Y9481D01*
X31795Y9500D01*
X31799Y9518D01*
X31807Y9535D01*
X31818Y9550D01*
X31831Y9563D01*
X31847Y9574D01*
X31863Y9582D01*
X31881Y9586D01*
X31900Y9588D01*
X32220Y9588D01*
X32220Y9374D02*
X31793Y9374D01*
X31580Y10397D02*
X31582Y10420D01*
X31586Y10442D01*
X31594Y10463D01*
X31605Y10484D01*
X31619Y10502D01*
X31635Y10518D01*
X31653Y10532D01*
X31674Y10543D01*
X31695Y10551D01*
X31717Y10555D01*
X31740Y10557D01*
X31580Y10397D02*
X31582Y10371D01*
X31586Y10346D01*
X31594Y10321D01*
X31606Y10298D01*
X31619Y10276D01*
X31636Y10256D01*
X31655Y10238D01*
X31676Y10223D01*
X31698Y10211D01*
X31723Y10201D01*
X31865Y10504D02*
X31847Y10519D01*
X31828Y10533D01*
X31808Y10543D01*
X31786Y10551D01*
X31763Y10555D01*
X31740Y10557D01*
X31864Y10504D02*
X32220Y10202D01*
X32220Y10557D01*
X32220Y10838D02*
X31580Y10838D01*
X31580Y11015D01*
X31582Y11040D01*
X31587Y11065D01*
X31596Y11089D01*
X31608Y11111D01*
X31623Y11132D01*
X31641Y11150D01*
X31662Y11165D01*
X31684Y11177D01*
X31708Y11186D01*
X31733Y11191D01*
X31758Y11193D01*
X32042Y11193D01*
X32067Y11191D01*
X32092Y11186D01*
X32116Y11177D01*
X32138Y11165D01*
X32159Y11150D01*
X32177Y11132D01*
X32192Y11111D01*
X32204Y11089D01*
X32213Y11065D01*
X32218Y11040D01*
X32220Y11015D01*
X32220Y10838D01*
X32078Y11468D02*
X31936Y11468D01*
X31914Y11470D01*
X31892Y11475D01*
X31872Y11483D01*
X31853Y11495D01*
X31836Y11510D01*
X31821Y11527D01*
X31809Y11546D01*
X31801Y11566D01*
X31796Y11588D01*
X31794Y11610D01*
X31796Y11632D01*
X31801Y11654D01*
X31809Y11674D01*
X31821Y11693D01*
X31836Y11710D01*
X31853Y11725D01*
X31872Y11737D01*
X31892Y11745D01*
X31914Y11750D01*
X31936Y11752D01*
X32078Y11752D01*
X32100Y11750D01*
X32122Y11745D01*
X32142Y11737D01*
X32161Y11725D01*
X32178Y11710D01*
X32193Y11693D01*
X32205Y11674D01*
X32213Y11654D01*
X32218Y11632D01*
X32220Y11610D01*
X32218Y11588D01*
X32213Y11566D01*
X32205Y11546D01*
X32193Y11527D01*
X32178Y11510D01*
X32161Y11495D01*
X32142Y11483D01*
X32122Y11475D01*
X32100Y11470D01*
X32078Y11468D01*
X32220Y12036D02*
X31687Y12036D01*
X31668Y12038D01*
X31650Y12042D01*
X31634Y12050D01*
X31618Y12061D01*
X31605Y12074D01*
X31594Y12089D01*
X31586Y12106D01*
X31582Y12124D01*
X31580Y12143D01*
X31580Y12179D01*
X31793Y12179D02*
X31793Y11965D01*
X31580Y12710D02*
X32220Y12710D01*
X31936Y12923D02*
X31580Y12710D01*
X31936Y12923D02*
X31580Y13136D01*
X32220Y13136D01*
X31971Y13538D02*
X31971Y13698D01*
X31972Y13538D02*
X31974Y13518D01*
X31979Y13498D01*
X31987Y13479D01*
X31998Y13462D01*
X32012Y13447D01*
X32028Y13434D01*
X32046Y13424D01*
X32066Y13418D01*
X32086Y13414D01*
X32106Y13414D01*
X32126Y13418D01*
X32146Y13424D01*
X32164Y13434D01*
X32180Y13447D01*
X32194Y13462D01*
X32205Y13479D01*
X32213Y13498D01*
X32218Y13518D01*
X32220Y13538D01*
X32220Y13698D01*
X31900Y13698D01*
X31900Y13699D02*
X31881Y13697D01*
X31863Y13693D01*
X31847Y13685D01*
X31831Y13674D01*
X31818Y13661D01*
X31807Y13646D01*
X31799Y13629D01*
X31795Y13611D01*
X31793Y13592D01*
X31793Y13449D01*
X31793Y13991D02*
X32220Y13991D01*
X31793Y13991D02*
X31793Y14169D01*
X31795Y14188D01*
X31799Y14206D01*
X31807Y14222D01*
X31818Y14238D01*
X31831Y14251D01*
X31846Y14262D01*
X31863Y14270D01*
X31881Y14274D01*
X31900Y14276D01*
X32220Y14276D01*
X32220Y14544D02*
X31793Y14544D01*
X31616Y14526D02*
X31580Y14526D01*
X31580Y14561D01*
X31616Y14561D01*
X31616Y14526D01*
X31793Y14815D02*
X32433Y14815D01*
X31793Y14815D02*
X31793Y14992D01*
X31795Y15011D01*
X31799Y15029D01*
X31807Y15045D01*
X31818Y15061D01*
X31831Y15074D01*
X31846Y15085D01*
X31863Y15093D01*
X31881Y15097D01*
X31900Y15099D01*
X32113Y15099D01*
X32132Y15097D01*
X32150Y15093D01*
X32167Y15085D01*
X32182Y15074D01*
X32195Y15061D01*
X32206Y15046D01*
X32214Y15029D01*
X32218Y15011D01*
X32220Y14992D01*
X32220Y14815D01*
X32113Y15366D02*
X31793Y15366D01*
X32113Y15365D02*
X32132Y15367D01*
X32150Y15371D01*
X32167Y15379D01*
X32182Y15390D01*
X32195Y15403D01*
X32206Y15419D01*
X32214Y15435D01*
X32218Y15453D01*
X32220Y15472D01*
X32220Y15650D01*
X31793Y15650D01*
X31580Y15929D02*
X32113Y15929D01*
X32113Y15928D02*
X32132Y15930D01*
X32150Y15934D01*
X32167Y15942D01*
X32182Y15953D01*
X32195Y15966D01*
X32206Y15982D01*
X32214Y15998D01*
X32218Y16016D01*
X32220Y16035D01*
X31971Y16369D02*
X31971Y16529D01*
X31972Y16369D02*
X31974Y16349D01*
X31979Y16329D01*
X31987Y16310D01*
X31998Y16293D01*
X32012Y16278D01*
X32028Y16265D01*
X32046Y16255D01*
X32066Y16249D01*
X32086Y16245D01*
X32106Y16245D01*
X32126Y16249D01*
X32146Y16255D01*
X32164Y16265D01*
X32180Y16278D01*
X32194Y16293D01*
X32205Y16310D01*
X32213Y16329D01*
X32218Y16349D01*
X32220Y16369D01*
X32220Y16529D01*
X31900Y16529D01*
X31900Y16530D02*
X31881Y16528D01*
X31863Y16524D01*
X31847Y16516D01*
X31831Y16505D01*
X31818Y16492D01*
X31807Y16477D01*
X31799Y16460D01*
X31795Y16442D01*
X31793Y16423D01*
X31793Y16280D01*
X31793Y16750D02*
X31793Y16964D01*
X31580Y16822D02*
X32113Y16822D01*
X32113Y16821D02*
X32132Y16823D01*
X32150Y16827D01*
X32167Y16835D01*
X32182Y16846D01*
X32195Y16859D01*
X32206Y16875D01*
X32214Y16891D01*
X32218Y16909D01*
X32220Y16928D01*
X32220Y16964D01*
X32078Y17191D02*
X31936Y17191D01*
X31914Y17193D01*
X31892Y17198D01*
X31872Y17206D01*
X31853Y17218D01*
X31836Y17233D01*
X31821Y17250D01*
X31809Y17269D01*
X31801Y17289D01*
X31796Y17311D01*
X31794Y17333D01*
X31796Y17355D01*
X31801Y17377D01*
X31809Y17397D01*
X31821Y17416D01*
X31836Y17433D01*
X31853Y17448D01*
X31872Y17460D01*
X31892Y17468D01*
X31914Y17473D01*
X31936Y17475D01*
X31936Y17476D02*
X32078Y17476D01*
X32078Y17475D02*
X32100Y17473D01*
X32122Y17468D01*
X32142Y17460D01*
X32161Y17448D01*
X32178Y17433D01*
X32193Y17416D01*
X32205Y17397D01*
X32213Y17377D01*
X32218Y17355D01*
X32220Y17333D01*
X32218Y17311D01*
X32213Y17289D01*
X32205Y17269D01*
X32193Y17250D01*
X32178Y17233D01*
X32161Y17218D01*
X32142Y17206D01*
X32122Y17198D01*
X32100Y17193D01*
X32078Y17191D01*
X32220Y17748D02*
X31793Y17748D01*
X31793Y17962D01*
X31864Y17962D01*
X32630Y5980D02*
X33270Y5980D01*
X32914Y5980D02*
X32914Y6336D01*
X32630Y6336D02*
X33270Y6336D01*
X33021Y6732D02*
X33021Y6892D01*
X33022Y6732D02*
X33024Y6712D01*
X33029Y6692D01*
X33037Y6673D01*
X33048Y6656D01*
X33062Y6641D01*
X33078Y6628D01*
X33096Y6618D01*
X33116Y6612D01*
X33136Y6608D01*
X33156Y6608D01*
X33176Y6612D01*
X33196Y6618D01*
X33214Y6628D01*
X33230Y6641D01*
X33244Y6656D01*
X33255Y6673D01*
X33263Y6692D01*
X33268Y6712D01*
X33270Y6732D01*
X33270Y6892D01*
X32950Y6892D01*
X32931Y6890D01*
X32913Y6886D01*
X32897Y6878D01*
X32881Y6867D01*
X32868Y6854D01*
X32857Y6839D01*
X32849Y6822D01*
X32845Y6804D01*
X32843Y6785D01*
X32843Y6643D01*
X33483Y7144D02*
X33483Y7215D01*
X32843Y7428D01*
X32843Y7144D02*
X33270Y7286D01*
X33270Y7938D02*
X32630Y7938D01*
X33270Y7938D02*
X33270Y7760D01*
X33268Y7741D01*
X33264Y7723D01*
X33256Y7707D01*
X33245Y7691D01*
X33232Y7678D01*
X33217Y7667D01*
X33200Y7659D01*
X33182Y7655D01*
X33163Y7653D01*
X33163Y7654D02*
X32950Y7654D01*
X32950Y7653D02*
X32931Y7655D01*
X32913Y7659D01*
X32897Y7667D01*
X32881Y7678D01*
X32868Y7691D01*
X32857Y7707D01*
X32849Y7723D01*
X32845Y7741D01*
X32843Y7760D01*
X32843Y7938D01*
X33270Y8317D02*
X33270Y8495D01*
X33270Y8317D02*
X33268Y8298D01*
X33264Y8280D01*
X33256Y8264D01*
X33245Y8248D01*
X33232Y8235D01*
X33217Y8224D01*
X33200Y8216D01*
X33182Y8212D01*
X33163Y8210D01*
X32986Y8210D01*
X32986Y8211D02*
X32964Y8213D01*
X32942Y8218D01*
X32922Y8226D01*
X32903Y8238D01*
X32886Y8253D01*
X32871Y8270D01*
X32859Y8289D01*
X32851Y8309D01*
X32846Y8331D01*
X32844Y8353D01*
X32846Y8375D01*
X32851Y8397D01*
X32859Y8417D01*
X32871Y8436D01*
X32886Y8453D01*
X32903Y8468D01*
X32922Y8480D01*
X32942Y8488D01*
X32964Y8493D01*
X32986Y8495D01*
X33057Y8495D01*
X33057Y8210D01*
X33270Y8764D02*
X32843Y8764D01*
X32843Y8942D01*
X32845Y8961D01*
X32849Y8979D01*
X32857Y8995D01*
X32868Y9011D01*
X32881Y9024D01*
X32896Y9035D01*
X32913Y9043D01*
X32931Y9047D01*
X32950Y9049D01*
X33270Y9049D01*
X33270Y9770D02*
X32630Y9627D01*
X32843Y9912D02*
X33270Y9770D01*
X33270Y10054D02*
X32843Y9912D01*
X32630Y10196D02*
X33270Y10054D01*
X33270Y10533D02*
X33270Y10710D01*
X33270Y10533D02*
X33268Y10514D01*
X33264Y10496D01*
X33256Y10480D01*
X33245Y10464D01*
X33232Y10451D01*
X33217Y10440D01*
X33200Y10432D01*
X33182Y10428D01*
X33163Y10426D01*
X32986Y10426D01*
X32964Y10428D01*
X32942Y10433D01*
X32922Y10441D01*
X32903Y10453D01*
X32886Y10468D01*
X32871Y10485D01*
X32859Y10504D01*
X32851Y10524D01*
X32846Y10546D01*
X32844Y10568D01*
X32846Y10590D01*
X32851Y10612D01*
X32859Y10632D01*
X32871Y10651D01*
X32886Y10668D01*
X32903Y10683D01*
X32922Y10695D01*
X32942Y10703D01*
X32964Y10708D01*
X32986Y10710D01*
X33057Y10710D01*
X33057Y10426D01*
X33270Y10983D02*
X32630Y10983D01*
X33270Y10983D02*
X33270Y11160D01*
X33268Y11179D01*
X33264Y11197D01*
X33256Y11214D01*
X33245Y11229D01*
X33232Y11242D01*
X33217Y11253D01*
X33200Y11261D01*
X33182Y11265D01*
X33163Y11267D01*
X32950Y11267D01*
X32931Y11265D01*
X32913Y11261D01*
X32897Y11253D01*
X32881Y11242D01*
X32868Y11229D01*
X32857Y11214D01*
X32849Y11197D01*
X32845Y11179D01*
X32843Y11160D01*
X32843Y10983D01*
X32630Y11537D02*
X33270Y11537D01*
X33270Y11714D01*
X33268Y11733D01*
X33264Y11751D01*
X33256Y11768D01*
X33245Y11783D01*
X33232Y11796D01*
X33217Y11807D01*
X33200Y11815D01*
X33182Y11819D01*
X33163Y11821D01*
X32950Y11821D01*
X32931Y11819D01*
X32913Y11815D01*
X32897Y11807D01*
X32881Y11796D01*
X32868Y11783D01*
X32857Y11768D01*
X32849Y11751D01*
X32845Y11733D01*
X32843Y11714D01*
X32843Y11537D01*
X32630Y12425D02*
X33270Y12425D01*
X32630Y12425D02*
X32630Y12603D01*
X32632Y12628D01*
X32637Y12653D01*
X32646Y12677D01*
X32658Y12699D01*
X32673Y12720D01*
X32691Y12738D01*
X32712Y12753D01*
X32734Y12765D01*
X32758Y12774D01*
X32783Y12779D01*
X32808Y12781D01*
X32833Y12779D01*
X32858Y12774D01*
X32882Y12765D01*
X32904Y12753D01*
X32925Y12738D01*
X32943Y12720D01*
X32958Y12699D01*
X32970Y12677D01*
X32979Y12653D01*
X32984Y12628D01*
X32986Y12603D01*
X32986Y12425D01*
X32986Y12638D02*
X33270Y12780D01*
X33270Y13138D02*
X33270Y13316D01*
X33270Y13138D02*
X33268Y13119D01*
X33264Y13101D01*
X33256Y13085D01*
X33245Y13069D01*
X33232Y13056D01*
X33217Y13045D01*
X33200Y13037D01*
X33182Y13033D01*
X33163Y13031D01*
X32986Y13031D01*
X32964Y13033D01*
X32942Y13038D01*
X32922Y13046D01*
X32903Y13058D01*
X32886Y13073D01*
X32871Y13090D01*
X32859Y13109D01*
X32851Y13129D01*
X32846Y13151D01*
X32844Y13173D01*
X32846Y13195D01*
X32851Y13217D01*
X32859Y13237D01*
X32871Y13256D01*
X32886Y13273D01*
X32903Y13288D01*
X32922Y13300D01*
X32942Y13308D01*
X32964Y13313D01*
X32986Y13315D01*
X32986Y13316D02*
X33057Y13316D01*
X33057Y13031D01*
X32843Y13544D02*
X33270Y13686D01*
X32843Y13828D01*
X32843Y14055D02*
X33270Y14055D01*
X32666Y14038D02*
X32630Y14038D01*
X32630Y14073D01*
X32666Y14073D01*
X32666Y14038D01*
X33021Y14356D02*
X33092Y14534D01*
X33021Y14357D02*
X33013Y14341D01*
X33002Y14326D01*
X32988Y14315D01*
X32972Y14306D01*
X32954Y14301D01*
X32936Y14299D01*
X32918Y14301D01*
X32901Y14306D01*
X32885Y14315D01*
X32871Y14326D01*
X32859Y14341D01*
X32851Y14357D01*
X32846Y14374D01*
X32844Y14392D01*
X32843Y14392D02*
X32845Y14425D01*
X32849Y14457D01*
X32857Y14490D01*
X32866Y14521D01*
X32879Y14552D01*
X33093Y14534D02*
X33101Y14550D01*
X33112Y14565D01*
X33126Y14576D01*
X33142Y14585D01*
X33160Y14590D01*
X33178Y14592D01*
X33196Y14590D01*
X33213Y14585D01*
X33229Y14576D01*
X33243Y14565D01*
X33255Y14550D01*
X33263Y14534D01*
X33268Y14517D01*
X33270Y14499D01*
X33270Y14498D02*
X33268Y14459D01*
X33264Y14419D01*
X33256Y14380D01*
X33247Y14341D01*
X33234Y14303D01*
X33270Y14835D02*
X32843Y14835D01*
X32666Y14817D02*
X32630Y14817D01*
X32630Y14853D01*
X32666Y14853D01*
X32666Y14817D01*
X32986Y15082D02*
X33128Y15082D01*
X32986Y15083D02*
X32964Y15085D01*
X32942Y15090D01*
X32922Y15098D01*
X32903Y15110D01*
X32886Y15125D01*
X32871Y15142D01*
X32859Y15161D01*
X32851Y15181D01*
X32846Y15203D01*
X32844Y15225D01*
X32846Y15247D01*
X32851Y15269D01*
X32859Y15289D01*
X32871Y15308D01*
X32886Y15325D01*
X32903Y15340D01*
X32922Y15352D01*
X32942Y15360D01*
X32964Y15365D01*
X32986Y15367D01*
X33128Y15367D01*
X33150Y15365D01*
X33172Y15360D01*
X33192Y15352D01*
X33211Y15340D01*
X33228Y15325D01*
X33243Y15308D01*
X33255Y15289D01*
X33263Y15269D01*
X33268Y15247D01*
X33270Y15225D01*
X33268Y15203D01*
X33263Y15181D01*
X33255Y15161D01*
X33243Y15142D01*
X33228Y15125D01*
X33211Y15110D01*
X33192Y15098D01*
X33172Y15090D01*
X33150Y15085D01*
X33128Y15083D01*
X33270Y15636D02*
X32843Y15636D01*
X32843Y15814D01*
X32845Y15833D01*
X32849Y15851D01*
X32857Y15867D01*
X32868Y15883D01*
X32881Y15896D01*
X32896Y15907D01*
X32913Y15915D01*
X32931Y15919D01*
X32950Y15921D01*
X33270Y15921D01*
X33217Y16192D02*
X33181Y16192D01*
X33181Y16227D01*
X33217Y16227D01*
X33217Y16192D01*
X32932Y16192D02*
X32897Y16192D01*
X32897Y16227D01*
X32932Y16227D01*
X32932Y16192D01*
X32772Y16811D02*
X32630Y16989D01*
X33270Y16989D01*
X33270Y16811D02*
X33270Y17167D01*
X33270Y17402D02*
X33234Y17402D01*
X33234Y17437D01*
X33270Y17437D01*
X33270Y17402D01*
X32950Y17673D02*
X32910Y17675D01*
X32871Y17679D01*
X32832Y17686D01*
X32793Y17697D01*
X32756Y17710D01*
X32719Y17726D01*
X32719Y17725D02*
X32700Y17733D01*
X32683Y17744D01*
X32668Y17758D01*
X32655Y17773D01*
X32644Y17791D01*
X32636Y17810D01*
X32632Y17830D01*
X32630Y17850D01*
X32632Y17870D01*
X32636Y17890D01*
X32644Y17909D01*
X32655Y17927D01*
X32668Y17942D01*
X32683Y17956D01*
X32700Y17967D01*
X32719Y17975D01*
X32756Y17991D01*
X32793Y18004D01*
X32832Y18015D01*
X32871Y18022D01*
X32910Y18026D01*
X32950Y18028D01*
X32950Y17673D02*
X32990Y17675D01*
X33029Y17679D01*
X33068Y17686D01*
X33107Y17697D01*
X33144Y17710D01*
X33181Y17726D01*
X33181Y17725D02*
X33200Y17733D01*
X33217Y17744D01*
X33232Y17758D01*
X33245Y17773D01*
X33256Y17791D01*
X33264Y17810D01*
X33268Y17830D01*
X33270Y17850D01*
X33181Y17975D02*
X33144Y17991D01*
X33107Y18004D01*
X33068Y18015D01*
X33029Y18022D01*
X32990Y18026D01*
X32950Y18028D01*
X33181Y17975D02*
X33200Y17967D01*
X33217Y17956D01*
X33232Y17942D01*
X33245Y17927D01*
X33256Y17909D01*
X33264Y17890D01*
X33268Y17870D01*
X33270Y17850D01*
X33128Y17708D02*
X32772Y17993D01*
D11*
X24144Y19819D02*
X24144Y8181D01*
X24144Y19819D02*
X30947Y19819D01*
X30947Y8181D01*
X24144Y8181D01*
D12*
X27274Y9801D02*
X27274Y10261D01*
X27223Y9801D02*
X27325Y9801D01*
X27325Y10261D02*
X27223Y10261D01*
X27521Y10261D02*
X27521Y9801D01*
X27777Y9801D02*
X27521Y10261D01*
X27777Y10261D02*
X27777Y9801D01*
X26922Y17866D02*
X26922Y18071D01*
X26924Y18092D01*
X26929Y18113D01*
X26937Y18132D01*
X26949Y18150D01*
X26963Y18165D01*
X26980Y18178D01*
X26999Y18188D01*
X27019Y18195D01*
X27039Y18199D01*
X27061Y18199D01*
X27081Y18195D01*
X27101Y18188D01*
X27120Y18178D01*
X27137Y18165D01*
X27151Y18150D01*
X27163Y18132D01*
X27171Y18113D01*
X27176Y18092D01*
X27178Y18071D01*
X27178Y17866D01*
X27176Y17845D01*
X27171Y17824D01*
X27163Y17805D01*
X27151Y17787D01*
X27137Y17772D01*
X27120Y17759D01*
X27101Y17749D01*
X27081Y17742D01*
X27061Y17738D01*
X27039Y17738D01*
X27019Y17742D01*
X26999Y17749D01*
X26980Y17759D01*
X26963Y17772D01*
X26949Y17787D01*
X26937Y17805D01*
X26929Y17824D01*
X26924Y17845D01*
X26922Y17866D01*
X27387Y17866D02*
X27387Y18199D01*
X27387Y17866D02*
X27389Y17845D01*
X27394Y17824D01*
X27402Y17805D01*
X27414Y17787D01*
X27428Y17772D01*
X27445Y17759D01*
X27464Y17749D01*
X27484Y17742D01*
X27504Y17738D01*
X27526Y17738D01*
X27546Y17742D01*
X27566Y17749D01*
X27585Y17759D01*
X27602Y17772D01*
X27616Y17787D01*
X27628Y17805D01*
X27636Y17824D01*
X27641Y17845D01*
X27643Y17866D01*
X27643Y18199D01*
X27950Y18199D02*
X27950Y17739D01*
X27822Y18199D02*
X28078Y18199D01*
D13*
X29750Y18031D02*
X30250Y18031D01*
X25000Y17781D02*
X25000Y18281D01*
X25250Y9969D02*
X24750Y9969D01*
X24750Y18031D02*
X25250Y18031D01*
X29750Y9969D02*
X30250Y9969D01*
X25000Y9719D02*
X25000Y10219D01*
D12*
X24970Y12742D02*
X25430Y12742D01*
X25226Y12895D02*
X24970Y12742D01*
X25226Y12895D02*
X24970Y13049D01*
X25430Y13049D01*
X25430Y13360D02*
X24970Y13360D01*
X24970Y13233D02*
X24970Y13488D01*
X25430Y13653D02*
X25430Y13780D01*
X25428Y13801D01*
X25423Y13822D01*
X25415Y13841D01*
X25403Y13859D01*
X25389Y13874D01*
X25372Y13887D01*
X25353Y13897D01*
X25333Y13904D01*
X25313Y13908D01*
X25291Y13908D01*
X25271Y13904D01*
X25251Y13897D01*
X25232Y13887D01*
X25215Y13874D01*
X25201Y13859D01*
X25189Y13841D01*
X25181Y13822D01*
X25176Y13801D01*
X25174Y13780D01*
X24970Y13806D02*
X24970Y13653D01*
X24970Y13806D02*
X24972Y13825D01*
X24977Y13843D01*
X24985Y13860D01*
X24997Y13875D01*
X25011Y13887D01*
X25027Y13897D01*
X25044Y13904D01*
X25063Y13908D01*
X25081Y13908D01*
X25100Y13904D01*
X25117Y13897D01*
X25133Y13887D01*
X25147Y13875D01*
X25159Y13860D01*
X25167Y13843D01*
X25172Y13825D01*
X25174Y13806D01*
X25174Y13704D01*
X25174Y14103D02*
X25174Y14256D01*
X25175Y14256D02*
X25177Y14274D01*
X25181Y14291D01*
X25189Y14307D01*
X25199Y14322D01*
X25211Y14334D01*
X25226Y14344D01*
X25242Y14352D01*
X25259Y14356D01*
X25277Y14358D01*
X25302Y14358D01*
X25323Y14356D01*
X25344Y14351D01*
X25363Y14343D01*
X25381Y14331D01*
X25396Y14317D01*
X25409Y14300D01*
X25419Y14281D01*
X25426Y14261D01*
X25430Y14241D01*
X25430Y14219D01*
X25426Y14199D01*
X25419Y14179D01*
X25409Y14160D01*
X25396Y14143D01*
X25381Y14129D01*
X25363Y14117D01*
X25344Y14109D01*
X25323Y14104D01*
X25302Y14102D01*
X25302Y14103D02*
X25174Y14103D01*
X25147Y14105D01*
X25121Y14110D01*
X25096Y14119D01*
X25072Y14130D01*
X25050Y14145D01*
X25030Y14163D01*
X25012Y14183D01*
X24997Y14205D01*
X24986Y14229D01*
X24977Y14254D01*
X24972Y14280D01*
X24970Y14307D01*
X25034Y14591D02*
X25065Y14578D01*
X25098Y14567D01*
X25132Y14559D01*
X25166Y14555D01*
X25200Y14553D01*
X25034Y14590D02*
X25019Y14597D01*
X25005Y14606D01*
X24993Y14618D01*
X24983Y14632D01*
X24976Y14647D01*
X24971Y14663D01*
X24970Y14680D01*
X24971Y14697D01*
X24976Y14713D01*
X24983Y14728D01*
X24993Y14742D01*
X25005Y14754D01*
X25019Y14763D01*
X25034Y14770D01*
X25065Y14783D01*
X25098Y14794D01*
X25132Y14802D01*
X25166Y14806D01*
X25200Y14808D01*
X25200Y14553D02*
X25234Y14555D01*
X25268Y14559D01*
X25302Y14567D01*
X25335Y14578D01*
X25366Y14591D01*
X25366Y14590D02*
X25381Y14597D01*
X25395Y14606D01*
X25407Y14618D01*
X25417Y14632D01*
X25424Y14647D01*
X25429Y14663D01*
X25430Y14680D01*
X25366Y14770D02*
X25335Y14783D01*
X25302Y14794D01*
X25268Y14802D01*
X25234Y14806D01*
X25200Y14808D01*
X25366Y14770D02*
X25381Y14763D01*
X25395Y14754D01*
X25407Y14742D01*
X25417Y14728D01*
X25424Y14713D01*
X25429Y14697D01*
X25430Y14680D01*
X25328Y14578D02*
X25072Y14782D01*
X25302Y15002D02*
X25281Y15004D01*
X25260Y15009D01*
X25241Y15017D01*
X25223Y15029D01*
X25208Y15043D01*
X25195Y15060D01*
X25185Y15079D01*
X25178Y15099D01*
X25174Y15119D01*
X25174Y15141D01*
X25178Y15161D01*
X25185Y15181D01*
X25195Y15200D01*
X25208Y15217D01*
X25223Y15231D01*
X25241Y15243D01*
X25260Y15251D01*
X25281Y15256D01*
X25302Y15258D01*
X25323Y15256D01*
X25344Y15251D01*
X25363Y15243D01*
X25381Y15231D01*
X25396Y15217D01*
X25409Y15200D01*
X25419Y15181D01*
X25426Y15161D01*
X25430Y15141D01*
X25430Y15119D01*
X25426Y15099D01*
X25419Y15079D01*
X25409Y15060D01*
X25396Y15043D01*
X25381Y15029D01*
X25363Y15017D01*
X25344Y15009D01*
X25323Y15004D01*
X25302Y15002D01*
X25072Y15028D02*
X25053Y15030D01*
X25035Y15035D01*
X25018Y15043D01*
X25003Y15055D01*
X24991Y15069D01*
X24981Y15085D01*
X24974Y15102D01*
X24970Y15121D01*
X24970Y15139D01*
X24974Y15158D01*
X24981Y15175D01*
X24991Y15191D01*
X25003Y15205D01*
X25018Y15217D01*
X25035Y15225D01*
X25053Y15230D01*
X25072Y15232D01*
X25091Y15230D01*
X25109Y15225D01*
X25126Y15217D01*
X25141Y15205D01*
X25153Y15191D01*
X25163Y15175D01*
X25170Y15158D01*
X25174Y15139D01*
X25174Y15121D01*
X25170Y15102D01*
X25163Y15085D01*
X25153Y15069D01*
X25141Y15055D01*
X25126Y15043D01*
X25109Y15035D01*
X25091Y15030D01*
X25072Y15028D01*
D13*
X19667Y20730D02*
X5887Y20730D01*
X5763Y20728D01*
X5640Y20722D01*
X5516Y20713D01*
X5394Y20699D01*
X5271Y20682D01*
X5149Y20660D01*
X5028Y20635D01*
X4908Y20606D01*
X4789Y20574D01*
X4670Y20537D01*
X4553Y20497D01*
X4438Y20454D01*
X4323Y20406D01*
X4211Y20355D01*
X4100Y20301D01*
X3990Y20243D01*
X3883Y20182D01*
X3777Y20117D01*
X3674Y20049D01*
X3573Y19978D01*
X3474Y19904D01*
X3377Y19827D01*
X3283Y19746D01*
X3192Y19663D01*
X3103Y19577D01*
X3017Y19488D01*
X2934Y19397D01*
X2853Y19303D01*
X2776Y19206D01*
X2702Y19107D01*
X2631Y19006D01*
X2563Y18903D01*
X2498Y18797D01*
X2437Y18690D01*
X2379Y18580D01*
X2325Y18469D01*
X2274Y18357D01*
X2226Y18242D01*
X2183Y18127D01*
X2143Y18010D01*
X2106Y17891D01*
X2074Y17772D01*
X2045Y17652D01*
X2020Y17531D01*
X1998Y17409D01*
X1981Y17286D01*
X1967Y17164D01*
X1958Y17040D01*
X1952Y16917D01*
X1950Y16793D01*
X1950Y10887D01*
X1952Y10763D01*
X1958Y10640D01*
X1967Y10516D01*
X1981Y10394D01*
X1998Y10271D01*
X2020Y10149D01*
X2045Y10028D01*
X2074Y9908D01*
X2106Y9789D01*
X2143Y9670D01*
X2183Y9553D01*
X2226Y9438D01*
X2274Y9323D01*
X2325Y9211D01*
X2379Y9100D01*
X2437Y8990D01*
X2498Y8883D01*
X2563Y8777D01*
X2631Y8674D01*
X2702Y8573D01*
X2776Y8474D01*
X2853Y8377D01*
X2934Y8283D01*
X3017Y8192D01*
X3103Y8103D01*
X3192Y8017D01*
X3283Y7934D01*
X3377Y7853D01*
X3474Y7776D01*
X3573Y7702D01*
X3674Y7631D01*
X3777Y7563D01*
X3883Y7498D01*
X3990Y7437D01*
X4100Y7379D01*
X4211Y7325D01*
X4323Y7274D01*
X4438Y7226D01*
X4553Y7183D01*
X4670Y7143D01*
X4789Y7106D01*
X4908Y7074D01*
X5028Y7045D01*
X5149Y7020D01*
X5271Y6998D01*
X5394Y6981D01*
X5516Y6967D01*
X5640Y6958D01*
X5763Y6952D01*
X5887Y6950D01*
X19667Y6950D01*
X19791Y6952D01*
X19914Y6958D01*
X20038Y6967D01*
X20160Y6981D01*
X20283Y6998D01*
X20405Y7020D01*
X20526Y7045D01*
X20646Y7074D01*
X20765Y7106D01*
X20884Y7143D01*
X21001Y7183D01*
X21116Y7226D01*
X21231Y7274D01*
X21343Y7325D01*
X21454Y7379D01*
X21564Y7437D01*
X21671Y7498D01*
X21777Y7563D01*
X21880Y7631D01*
X21981Y7702D01*
X22080Y7776D01*
X22177Y7853D01*
X22271Y7934D01*
X22362Y8017D01*
X22451Y8103D01*
X22537Y8192D01*
X22620Y8283D01*
X22701Y8377D01*
X22778Y8474D01*
X22852Y8573D01*
X22923Y8674D01*
X22991Y8777D01*
X23056Y8883D01*
X23117Y8990D01*
X23175Y9100D01*
X23229Y9211D01*
X23280Y9323D01*
X23328Y9438D01*
X23371Y9553D01*
X23411Y9670D01*
X23448Y9789D01*
X23480Y9908D01*
X23509Y10028D01*
X23534Y10149D01*
X23556Y10271D01*
X23573Y10394D01*
X23587Y10516D01*
X23596Y10640D01*
X23602Y10763D01*
X23604Y10887D01*
X23604Y16793D01*
X23602Y16917D01*
X23596Y17040D01*
X23587Y17164D01*
X23573Y17286D01*
X23556Y17409D01*
X23534Y17531D01*
X23509Y17652D01*
X23480Y17772D01*
X23448Y17891D01*
X23411Y18010D01*
X23371Y18127D01*
X23328Y18242D01*
X23280Y18357D01*
X23229Y18469D01*
X23175Y18580D01*
X23117Y18690D01*
X23056Y18797D01*
X22991Y18903D01*
X22923Y19006D01*
X22852Y19107D01*
X22778Y19206D01*
X22701Y19303D01*
X22620Y19397D01*
X22537Y19488D01*
X22451Y19577D01*
X22362Y19663D01*
X22271Y19746D01*
X22177Y19827D01*
X22080Y19904D01*
X21981Y19978D01*
X21880Y20049D01*
X21777Y20117D01*
X21671Y20182D01*
X21564Y20243D01*
X21454Y20301D01*
X21343Y20355D01*
X21231Y20406D01*
X21116Y20454D01*
X21001Y20497D01*
X20884Y20537D01*
X20765Y20574D01*
X20646Y20606D01*
X20526Y20635D01*
X20405Y20660D01*
X20283Y20682D01*
X20160Y20699D01*
X20038Y20713D01*
X19914Y20722D01*
X19791Y20728D01*
X19667Y20730D01*
D10*
X10530Y14220D02*
X10530Y13780D01*
X10530Y14220D02*
X10652Y14220D01*
X10673Y14218D01*
X10694Y14213D01*
X10713Y14204D01*
X10730Y14191D01*
X10745Y14176D01*
X10758Y14159D01*
X10767Y14140D01*
X10772Y14119D01*
X10774Y14098D01*
X10772Y14077D01*
X10767Y14056D01*
X10758Y14037D01*
X10745Y14020D01*
X10730Y14005D01*
X10713Y13992D01*
X10694Y13983D01*
X10673Y13978D01*
X10652Y13976D01*
X10530Y13976D01*
X10951Y13976D02*
X10951Y13878D01*
X10951Y13976D02*
X10953Y13994D01*
X10958Y14011D01*
X10966Y14028D01*
X10977Y14042D01*
X10990Y14054D01*
X11005Y14064D01*
X11022Y14070D01*
X11040Y14074D01*
X11058Y14074D01*
X11076Y14070D01*
X11093Y14064D01*
X11108Y14054D01*
X11121Y14042D01*
X11132Y14028D01*
X11140Y14011D01*
X11145Y13994D01*
X11147Y13976D01*
X11147Y13878D01*
X11145Y13860D01*
X11140Y13843D01*
X11132Y13826D01*
X11121Y13812D01*
X11108Y13800D01*
X11093Y13790D01*
X11076Y13784D01*
X11058Y13780D01*
X11040Y13780D01*
X11022Y13784D01*
X11005Y13790D01*
X10990Y13800D01*
X10977Y13812D01*
X10966Y13826D01*
X10958Y13843D01*
X10953Y13860D01*
X10951Y13878D01*
X11415Y13780D02*
X11513Y13780D01*
X11415Y13780D02*
X11399Y13782D01*
X11383Y13787D01*
X11369Y13796D01*
X11358Y13807D01*
X11349Y13821D01*
X11344Y13837D01*
X11342Y13853D01*
X11342Y14000D01*
X11344Y14016D01*
X11349Y14032D01*
X11358Y14046D01*
X11369Y14057D01*
X11383Y14066D01*
X11399Y14071D01*
X11415Y14073D01*
X11513Y14073D01*
X11708Y14220D02*
X11708Y13780D01*
X11708Y13927D02*
X11903Y14073D01*
X11793Y13988D02*
X11903Y13780D01*
X12149Y13780D02*
X12272Y13780D01*
X12149Y13780D02*
X12133Y13782D01*
X12117Y13787D01*
X12103Y13796D01*
X12092Y13807D01*
X12083Y13821D01*
X12078Y13837D01*
X12076Y13853D01*
X12076Y13976D01*
X12078Y13994D01*
X12083Y14011D01*
X12091Y14028D01*
X12102Y14042D01*
X12115Y14054D01*
X12130Y14064D01*
X12147Y14070D01*
X12165Y14074D01*
X12183Y14074D01*
X12201Y14070D01*
X12218Y14064D01*
X12233Y14054D01*
X12246Y14042D01*
X12257Y14028D01*
X12265Y14011D01*
X12270Y13994D01*
X12272Y13976D01*
X12272Y13927D01*
X12076Y13927D01*
X12426Y14073D02*
X12573Y14073D01*
X12475Y14220D02*
X12475Y13853D01*
X12477Y13837D01*
X12482Y13821D01*
X12491Y13807D01*
X12502Y13796D01*
X12516Y13787D01*
X12532Y13782D01*
X12548Y13780D01*
X12573Y13780D01*
X12780Y14024D02*
X12902Y14024D01*
X12923Y14022D01*
X12944Y14017D01*
X12963Y14008D01*
X12980Y13995D01*
X12995Y13980D01*
X13008Y13963D01*
X13017Y13944D01*
X13022Y13923D01*
X13024Y13902D01*
X13022Y13881D01*
X13017Y13860D01*
X13008Y13841D01*
X12995Y13824D01*
X12980Y13809D01*
X12963Y13796D01*
X12944Y13787D01*
X12923Y13782D01*
X12902Y13780D01*
X12780Y13780D01*
X12780Y14220D01*
X12902Y14220D01*
X12920Y14218D01*
X12937Y14213D01*
X12954Y14205D01*
X12968Y14194D01*
X12980Y14181D01*
X12990Y14166D01*
X12996Y14149D01*
X13000Y14131D01*
X13000Y14113D01*
X12996Y14095D01*
X12990Y14078D01*
X12980Y14063D01*
X12968Y14050D01*
X12954Y14039D01*
X12937Y14031D01*
X12920Y14026D01*
X12902Y14024D01*
X13274Y13780D02*
X13397Y13780D01*
X13274Y13780D02*
X13258Y13782D01*
X13242Y13787D01*
X13228Y13796D01*
X13217Y13807D01*
X13208Y13821D01*
X13203Y13837D01*
X13201Y13853D01*
X13201Y13976D01*
X13203Y13994D01*
X13208Y14011D01*
X13216Y14028D01*
X13227Y14042D01*
X13240Y14054D01*
X13255Y14064D01*
X13272Y14070D01*
X13290Y14074D01*
X13308Y14074D01*
X13326Y14070D01*
X13343Y14064D01*
X13358Y14054D01*
X13371Y14042D01*
X13382Y14028D01*
X13390Y14011D01*
X13395Y13994D01*
X13397Y13976D01*
X13397Y13927D01*
X13201Y13927D01*
X13674Y13951D02*
X13784Y13951D01*
X13674Y13952D02*
X13656Y13950D01*
X13639Y13945D01*
X13623Y13936D01*
X13610Y13924D01*
X13600Y13909D01*
X13592Y13893D01*
X13588Y13875D01*
X13588Y13857D01*
X13592Y13839D01*
X13600Y13823D01*
X13610Y13808D01*
X13623Y13796D01*
X13639Y13787D01*
X13656Y13782D01*
X13674Y13780D01*
X13784Y13780D01*
X13784Y14000D01*
X13783Y14000D02*
X13781Y14016D01*
X13776Y14032D01*
X13767Y14046D01*
X13756Y14057D01*
X13742Y14066D01*
X13726Y14071D01*
X13710Y14073D01*
X13613Y14073D01*
X14067Y13780D02*
X14189Y13780D01*
X14067Y13780D02*
X14051Y13782D01*
X14035Y13787D01*
X14021Y13796D01*
X14010Y13807D01*
X14001Y13821D01*
X13996Y13837D01*
X13994Y13853D01*
X13993Y13853D02*
X13993Y14000D01*
X13994Y14000D02*
X13996Y14016D01*
X14001Y14032D01*
X14010Y14046D01*
X14021Y14057D01*
X14035Y14066D01*
X14051Y14071D01*
X14067Y14073D01*
X14189Y14073D01*
X14189Y13707D01*
X14188Y13707D02*
X14186Y13691D01*
X14181Y13675D01*
X14172Y13661D01*
X14161Y13650D01*
X14147Y13641D01*
X14131Y13636D01*
X14115Y13634D01*
X14115Y13633D02*
X14018Y13633D01*
X14405Y13853D02*
X14405Y14220D01*
X14405Y13853D02*
X14407Y13837D01*
X14412Y13821D01*
X14421Y13807D01*
X14432Y13796D01*
X14446Y13787D01*
X14462Y13782D01*
X14478Y13780D01*
X14714Y13780D02*
X14837Y13780D01*
X14714Y13780D02*
X14698Y13782D01*
X14682Y13787D01*
X14668Y13796D01*
X14657Y13807D01*
X14648Y13821D01*
X14643Y13837D01*
X14641Y13853D01*
X14641Y13976D01*
X14643Y13994D01*
X14648Y14011D01*
X14656Y14028D01*
X14667Y14042D01*
X14680Y14054D01*
X14695Y14064D01*
X14712Y14070D01*
X14730Y14074D01*
X14748Y14074D01*
X14766Y14070D01*
X14783Y14064D01*
X14798Y14054D01*
X14811Y14042D01*
X14822Y14028D01*
X14830Y14011D01*
X14835Y13994D01*
X14837Y13976D01*
X14837Y13927D01*
X14641Y13927D01*
X2970Y13041D02*
X2677Y13041D01*
X2677Y13261D01*
X2679Y13277D01*
X2684Y13293D01*
X2693Y13307D01*
X2704Y13318D01*
X2718Y13327D01*
X2734Y13332D01*
X2750Y13334D01*
X2750Y13335D02*
X2970Y13335D01*
X2970Y13188D02*
X2677Y13188D01*
X2677Y13548D02*
X2970Y13548D01*
X2554Y13536D02*
X2530Y13536D01*
X2530Y13560D01*
X2554Y13560D01*
X2554Y13536D01*
X2970Y13809D02*
X2970Y13907D01*
X2970Y13809D02*
X2968Y13793D01*
X2963Y13777D01*
X2954Y13763D01*
X2943Y13752D01*
X2929Y13743D01*
X2913Y13738D01*
X2897Y13736D01*
X2750Y13736D01*
X2734Y13738D01*
X2718Y13743D01*
X2704Y13752D01*
X2693Y13763D01*
X2684Y13777D01*
X2679Y13793D01*
X2677Y13809D01*
X2677Y13907D01*
X2677Y14099D02*
X2970Y14099D01*
X2677Y14099D02*
X2677Y14245D01*
X2726Y14245D01*
X2774Y14395D02*
X2872Y14395D01*
X2774Y14395D02*
X2756Y14397D01*
X2739Y14402D01*
X2722Y14410D01*
X2708Y14421D01*
X2696Y14434D01*
X2686Y14449D01*
X2680Y14466D01*
X2676Y14484D01*
X2676Y14502D01*
X2680Y14520D01*
X2686Y14537D01*
X2696Y14552D01*
X2708Y14565D01*
X2722Y14576D01*
X2739Y14584D01*
X2756Y14589D01*
X2774Y14591D01*
X2872Y14591D01*
X2890Y14589D01*
X2907Y14584D01*
X2924Y14576D01*
X2938Y14565D01*
X2950Y14552D01*
X2960Y14537D01*
X2966Y14520D01*
X2970Y14502D01*
X2970Y14484D01*
X2966Y14466D01*
X2960Y14449D01*
X2950Y14434D01*
X2938Y14421D01*
X2924Y14410D01*
X2907Y14402D01*
X2890Y14397D01*
X2872Y14395D01*
X2848Y14806D02*
X2530Y14806D01*
X2848Y14806D02*
X2869Y14808D01*
X2890Y14813D01*
X2909Y14822D01*
X2926Y14835D01*
X2941Y14850D01*
X2954Y14867D01*
X2963Y14886D01*
X2968Y14907D01*
X2970Y14928D01*
X2968Y14949D01*
X2963Y14970D01*
X2954Y14989D01*
X2941Y15006D01*
X2926Y15021D01*
X2909Y15034D01*
X2890Y15043D01*
X2869Y15048D01*
X2848Y15050D01*
X2530Y15050D01*
X2970Y15402D02*
X2969Y15419D01*
X2964Y15436D01*
X2957Y15451D01*
X2947Y15465D01*
X2935Y15477D01*
X2921Y15487D01*
X2906Y15494D01*
X2889Y15499D01*
X2872Y15500D01*
X2970Y15403D02*
X2968Y15376D01*
X2963Y15349D01*
X2954Y15323D01*
X2942Y15299D01*
X2927Y15276D01*
X2909Y15256D01*
X2628Y15268D02*
X2611Y15269D01*
X2594Y15274D01*
X2579Y15281D01*
X2565Y15291D01*
X2553Y15303D01*
X2543Y15317D01*
X2536Y15332D01*
X2531Y15349D01*
X2530Y15366D01*
X2532Y15389D01*
X2536Y15413D01*
X2543Y15435D01*
X2554Y15456D01*
X2567Y15476D01*
X2713Y15317D02*
X2703Y15303D01*
X2691Y15291D01*
X2677Y15281D01*
X2662Y15274D01*
X2645Y15269D01*
X2628Y15268D01*
X2787Y15451D02*
X2797Y15465D01*
X2809Y15477D01*
X2823Y15487D01*
X2838Y15494D01*
X2855Y15499D01*
X2872Y15500D01*
X2787Y15451D02*
X2713Y15317D01*
X2726Y15714D02*
X2726Y15836D01*
X2728Y15857D01*
X2733Y15878D01*
X2742Y15897D01*
X2755Y15914D01*
X2770Y15929D01*
X2787Y15942D01*
X2806Y15951D01*
X2827Y15956D01*
X2848Y15958D01*
X2869Y15956D01*
X2890Y15951D01*
X2909Y15942D01*
X2926Y15929D01*
X2941Y15914D01*
X2954Y15897D01*
X2963Y15878D01*
X2968Y15857D01*
X2970Y15836D01*
X2970Y15714D01*
X2530Y15714D01*
X2530Y15836D01*
X2532Y15854D01*
X2537Y15871D01*
X2545Y15888D01*
X2556Y15902D01*
X2569Y15914D01*
X2584Y15924D01*
X2601Y15930D01*
X2619Y15934D01*
X2637Y15934D01*
X2655Y15930D01*
X2672Y15924D01*
X2687Y15914D01*
X2700Y15902D01*
X2711Y15888D01*
X2719Y15871D01*
X2724Y15854D01*
X2726Y15836D01*
X22677Y12786D02*
X22970Y12786D01*
X22677Y12786D02*
X22677Y13006D01*
X22679Y13022D01*
X22684Y13038D01*
X22693Y13052D01*
X22704Y13063D01*
X22718Y13072D01*
X22734Y13077D01*
X22750Y13079D01*
X22970Y13079D01*
X22970Y12932D02*
X22677Y12932D01*
X22677Y13292D02*
X22970Y13292D01*
X22554Y13280D02*
X22530Y13280D01*
X22530Y13304D01*
X22554Y13304D01*
X22554Y13280D01*
X22970Y13553D02*
X22970Y13651D01*
X22970Y13553D02*
X22968Y13537D01*
X22963Y13521D01*
X22954Y13507D01*
X22943Y13496D01*
X22929Y13487D01*
X22913Y13482D01*
X22897Y13480D01*
X22750Y13480D01*
X22734Y13482D01*
X22718Y13487D01*
X22704Y13496D01*
X22693Y13507D01*
X22684Y13521D01*
X22679Y13537D01*
X22677Y13553D01*
X22677Y13651D01*
X22677Y13843D02*
X22970Y13843D01*
X22677Y13843D02*
X22677Y13989D01*
X22726Y13989D01*
X22774Y14139D02*
X22872Y14139D01*
X22774Y14139D02*
X22756Y14141D01*
X22739Y14146D01*
X22722Y14154D01*
X22708Y14165D01*
X22696Y14178D01*
X22686Y14193D01*
X22680Y14210D01*
X22676Y14228D01*
X22676Y14246D01*
X22680Y14264D01*
X22686Y14281D01*
X22696Y14296D01*
X22708Y14309D01*
X22722Y14320D01*
X22739Y14328D01*
X22756Y14333D01*
X22774Y14335D01*
X22872Y14335D01*
X22890Y14333D01*
X22907Y14328D01*
X22924Y14320D01*
X22938Y14309D01*
X22950Y14296D01*
X22960Y14281D01*
X22966Y14264D01*
X22970Y14246D01*
X22970Y14228D01*
X22966Y14210D01*
X22960Y14193D01*
X22950Y14178D01*
X22938Y14165D01*
X22924Y14154D01*
X22907Y14146D01*
X22890Y14141D01*
X22872Y14139D01*
X22970Y14667D02*
X22969Y14684D01*
X22964Y14701D01*
X22957Y14716D01*
X22947Y14730D01*
X22935Y14742D01*
X22921Y14752D01*
X22906Y14759D01*
X22889Y14764D01*
X22872Y14765D01*
X22970Y14667D02*
X22968Y14640D01*
X22963Y14613D01*
X22954Y14587D01*
X22942Y14563D01*
X22927Y14540D01*
X22909Y14520D01*
X22628Y14532D02*
X22611Y14533D01*
X22594Y14538D01*
X22579Y14545D01*
X22565Y14555D01*
X22553Y14567D01*
X22543Y14581D01*
X22536Y14596D01*
X22531Y14613D01*
X22530Y14630D01*
X22532Y14653D01*
X22536Y14677D01*
X22543Y14699D01*
X22554Y14720D01*
X22567Y14740D01*
X22628Y14533D02*
X22645Y14534D01*
X22662Y14539D01*
X22677Y14546D01*
X22691Y14556D01*
X22703Y14568D01*
X22713Y14582D01*
X22787Y14715D02*
X22797Y14729D01*
X22809Y14741D01*
X22823Y14751D01*
X22838Y14758D01*
X22855Y14763D01*
X22872Y14764D01*
X22787Y14716D02*
X22713Y14581D01*
X22530Y14970D02*
X22970Y14970D01*
X22530Y14970D02*
X22530Y15092D01*
X22532Y15113D01*
X22537Y15134D01*
X22546Y15153D01*
X22559Y15170D01*
X22574Y15185D01*
X22591Y15198D01*
X22610Y15207D01*
X22631Y15212D01*
X22652Y15214D01*
X22848Y15214D01*
X22869Y15212D01*
X22890Y15207D01*
X22909Y15198D01*
X22926Y15185D01*
X22941Y15170D01*
X22954Y15153D01*
X22963Y15134D01*
X22968Y15113D01*
X22970Y15092D01*
X22970Y14970D01*
D13*
X11830Y8890D02*
X10830Y8890D01*
X9830Y8890D01*
X5830Y8890D01*
X4830Y8890D01*
X12830Y8890D02*
X12830Y11790D01*
X12830Y8890D02*
X13830Y8890D01*
X14830Y8890D01*
X15830Y8890D01*
X17830Y8890D01*
X19830Y8890D01*
X20830Y8890D01*
X11830Y18890D02*
X10830Y18890D01*
X9830Y18890D01*
X7830Y18890D01*
X5830Y18890D01*
X11830Y18890D02*
X12830Y18890D01*
X13830Y18890D01*
X14830Y18890D01*
X15830Y18890D01*
X16830Y18890D01*
X19830Y18890D01*
X20830Y18890D01*
X4830Y8890D02*
X4830Y7200D01*
X11830Y7050D02*
X11830Y8890D01*
X17830Y8890D02*
X17830Y7050D01*
X20830Y7200D02*
X20830Y8890D01*
X19830Y8890D02*
X19830Y11790D01*
X17830Y11790D02*
X17830Y8890D01*
X15830Y8890D02*
X15830Y11790D01*
X11830Y11790D02*
X11830Y8890D01*
X5830Y8890D02*
X5830Y11790D01*
X5830Y15990D02*
X5830Y18890D01*
X7830Y18890D02*
X7830Y15990D01*
X9830Y15990D02*
X9830Y18890D01*
X11830Y18890D02*
X11830Y15990D01*
X9830Y18890D02*
X9830Y20740D01*
X11830Y20740D02*
X11830Y18890D01*
X20830Y18890D02*
X20830Y20540D01*
X16830Y20740D02*
X16830Y18890D01*
X15830Y18890D02*
X15830Y15990D01*
X19830Y15990D02*
X19830Y18890D01*
X13830Y11790D02*
X13830Y8890D01*
X13830Y15990D02*
X13830Y18890D01*
D11*
X13548Y7475D02*
X13432Y7125D01*
X13665Y7125D02*
X13548Y7475D01*
X13636Y7213D02*
X13461Y7213D01*
X13836Y7125D02*
X13836Y7475D01*
X13798Y7125D02*
X13875Y7125D01*
X13875Y7475D02*
X13798Y7475D01*
X14039Y7475D02*
X14039Y7125D01*
X14234Y7125D02*
X14039Y7475D01*
X14234Y7475D02*
X14234Y7125D01*
X14603Y7300D02*
X14605Y7333D01*
X14610Y7366D01*
X14618Y7398D01*
X14629Y7429D01*
X14643Y7459D01*
X14661Y7487D01*
X14681Y7514D01*
X14603Y7300D02*
X14605Y7267D01*
X14610Y7234D01*
X14618Y7202D01*
X14629Y7171D01*
X14643Y7141D01*
X14661Y7113D01*
X14681Y7086D01*
X14831Y7397D02*
X14928Y7475D01*
X14928Y7125D01*
X14831Y7125D02*
X15026Y7125D01*
X15171Y7125D02*
X15171Y7144D01*
X15190Y7144D01*
X15190Y7125D01*
X15171Y7125D01*
X15335Y7222D02*
X15337Y7240D01*
X15342Y7257D01*
X15350Y7273D01*
X15360Y7287D01*
X15374Y7299D01*
X15389Y7309D01*
X15405Y7315D01*
X15423Y7319D01*
X15441Y7319D01*
X15459Y7315D01*
X15475Y7309D01*
X15490Y7299D01*
X15504Y7287D01*
X15514Y7273D01*
X15522Y7257D01*
X15527Y7240D01*
X15529Y7222D01*
X15527Y7204D01*
X15522Y7187D01*
X15514Y7171D01*
X15504Y7157D01*
X15490Y7145D01*
X15475Y7135D01*
X15459Y7129D01*
X15441Y7125D01*
X15423Y7125D01*
X15405Y7129D01*
X15389Y7135D01*
X15374Y7145D01*
X15360Y7157D01*
X15350Y7171D01*
X15342Y7187D01*
X15337Y7204D01*
X15335Y7222D01*
X15354Y7397D02*
X15356Y7413D01*
X15361Y7429D01*
X15369Y7443D01*
X15380Y7455D01*
X15393Y7465D01*
X15408Y7471D01*
X15424Y7475D01*
X15440Y7475D01*
X15456Y7471D01*
X15471Y7465D01*
X15484Y7455D01*
X15495Y7443D01*
X15503Y7429D01*
X15508Y7413D01*
X15510Y7397D01*
X15508Y7381D01*
X15503Y7365D01*
X15495Y7351D01*
X15484Y7339D01*
X15471Y7329D01*
X15456Y7323D01*
X15440Y7319D01*
X15424Y7319D01*
X15408Y7323D01*
X15393Y7329D01*
X15380Y7339D01*
X15369Y7351D01*
X15361Y7365D01*
X15356Y7381D01*
X15354Y7397D01*
X15676Y7475D02*
X15792Y7125D01*
X15909Y7475D01*
X16118Y7300D02*
X16116Y7267D01*
X16111Y7234D01*
X16103Y7202D01*
X16092Y7171D01*
X16078Y7141D01*
X16060Y7113D01*
X16040Y7086D01*
X16118Y7300D02*
X16116Y7333D01*
X16111Y7366D01*
X16103Y7398D01*
X16092Y7429D01*
X16078Y7459D01*
X16060Y7487D01*
X16040Y7514D01*
D12*
X16185Y20436D02*
X16465Y20436D01*
X16465Y20358D01*
X16463Y20342D01*
X16458Y20326D01*
X16450Y20312D01*
X16439Y20300D01*
X16426Y20290D01*
X16411Y20284D01*
X16395Y20280D01*
X16379Y20280D01*
X16363Y20284D01*
X16348Y20290D01*
X16335Y20300D01*
X16324Y20312D01*
X16316Y20326D01*
X16311Y20342D01*
X16309Y20358D01*
X16309Y20436D01*
X16309Y20342D02*
X16185Y20280D01*
X16185Y20066D02*
X16187Y20052D01*
X16191Y20039D01*
X16199Y20027D01*
X16208Y20018D01*
X16220Y20010D01*
X16233Y20006D01*
X16247Y20004D01*
X16185Y20066D02*
X16187Y20087D01*
X16191Y20107D01*
X16199Y20126D01*
X16210Y20143D01*
X16224Y20159D01*
X16403Y20152D02*
X16417Y20150D01*
X16430Y20146D01*
X16442Y20138D01*
X16451Y20129D01*
X16459Y20117D01*
X16463Y20104D01*
X16465Y20090D01*
X16463Y20071D01*
X16459Y20053D01*
X16452Y20036D01*
X16442Y20020D01*
X16403Y20152D02*
X16390Y20151D01*
X16378Y20147D01*
X16366Y20140D01*
X16356Y20131D01*
X16349Y20121D01*
X16301Y20035D02*
X16294Y20025D01*
X16284Y20016D01*
X16272Y20009D01*
X16260Y20005D01*
X16247Y20004D01*
X16302Y20035D02*
X16348Y20121D01*
X16465Y19823D02*
X16185Y19823D01*
X16465Y19901D02*
X16465Y19745D01*
D10*
X12545Y10407D02*
X12105Y10553D01*
X12105Y10260D02*
X12545Y10407D01*
X12215Y10297D02*
X12215Y10517D01*
X12276Y10073D02*
X12276Y9780D01*
X12129Y9927D02*
X12423Y9927D01*
X13435Y10230D02*
X13454Y10232D01*
X13473Y10237D01*
X13490Y10245D01*
X13506Y10256D01*
X13519Y10269D01*
X13530Y10285D01*
X13538Y10302D01*
X13543Y10321D01*
X13545Y10340D01*
X13543Y10362D01*
X13538Y10384D01*
X13530Y10404D01*
X13518Y10423D01*
X13504Y10440D01*
X13487Y10454D01*
X13468Y10466D01*
X13447Y10474D01*
X13350Y10267D02*
X13364Y10254D01*
X13380Y10244D01*
X13397Y10236D01*
X13416Y10232D01*
X13435Y10230D01*
X13349Y10267D02*
X13105Y10474D01*
X13105Y10230D01*
X13325Y10025D02*
X13358Y10024D01*
X13391Y10019D01*
X13423Y10012D01*
X13454Y10001D01*
X13484Y9988D01*
X13484Y9987D02*
X13501Y9979D01*
X13516Y9968D01*
X13528Y9954D01*
X13537Y9938D01*
X13543Y9920D01*
X13545Y9902D01*
X13543Y9884D01*
X13537Y9866D01*
X13528Y9850D01*
X13516Y9836D01*
X13501Y9825D01*
X13484Y9817D01*
X13454Y9804D01*
X13423Y9793D01*
X13391Y9786D01*
X13358Y9781D01*
X13325Y9780D01*
X13325Y10025D02*
X13292Y10024D01*
X13260Y10019D01*
X13227Y10012D01*
X13196Y10001D01*
X13166Y9988D01*
X13166Y9987D02*
X13149Y9979D01*
X13134Y9968D01*
X13122Y9954D01*
X13113Y9938D01*
X13107Y9920D01*
X13105Y9902D01*
X13166Y9817D02*
X13196Y9804D01*
X13227Y9793D01*
X13259Y9786D01*
X13292Y9781D01*
X13325Y9780D01*
X13166Y9817D02*
X13149Y9825D01*
X13134Y9836D01*
X13122Y9850D01*
X13113Y9866D01*
X13107Y9884D01*
X13105Y9902D01*
X13203Y10000D02*
X13447Y9804D01*
X14349Y10740D02*
X14349Y10813D01*
X14349Y10740D02*
X14105Y10740D01*
X14105Y10887D01*
X14106Y10904D01*
X14111Y10921D01*
X14118Y10936D01*
X14128Y10950D01*
X14140Y10962D01*
X14154Y10972D01*
X14169Y10979D01*
X14186Y10984D01*
X14203Y10985D01*
X14203Y10984D02*
X14447Y10984D01*
X14447Y10985D02*
X14466Y10983D01*
X14485Y10978D01*
X14501Y10968D01*
X14516Y10956D01*
X14528Y10941D01*
X14538Y10925D01*
X14543Y10906D01*
X14545Y10887D01*
X14545Y10740D01*
X14545Y10504D02*
X14105Y10504D01*
X14105Y10260D02*
X14545Y10504D01*
X14545Y10260D02*
X14105Y10260D01*
X14105Y10024D02*
X14545Y10024D01*
X14545Y9902D01*
X14543Y9881D01*
X14538Y9860D01*
X14529Y9841D01*
X14516Y9824D01*
X14501Y9809D01*
X14484Y9796D01*
X14465Y9787D01*
X14444Y9782D01*
X14423Y9780D01*
X14227Y9780D01*
X14206Y9782D01*
X14185Y9787D01*
X14166Y9796D01*
X14149Y9809D01*
X14134Y9824D01*
X14121Y9841D01*
X14112Y9860D01*
X14107Y9881D01*
X14105Y9902D01*
X14105Y10024D01*
D11*
X15125Y11101D02*
X15525Y11234D01*
X15525Y10968D02*
X15125Y11101D01*
X15236Y10807D02*
X15414Y10807D01*
X15433Y10805D01*
X15452Y10800D01*
X15470Y10792D01*
X15485Y10781D01*
X15499Y10767D01*
X15510Y10752D01*
X15518Y10734D01*
X15523Y10715D01*
X15525Y10696D01*
X15523Y10677D01*
X15518Y10658D01*
X15510Y10641D01*
X15499Y10625D01*
X15485Y10611D01*
X15470Y10600D01*
X15452Y10592D01*
X15433Y10587D01*
X15414Y10585D01*
X15236Y10585D01*
X15217Y10587D01*
X15198Y10592D01*
X15181Y10600D01*
X15165Y10611D01*
X15151Y10625D01*
X15140Y10641D01*
X15132Y10658D01*
X15127Y10677D01*
X15125Y10696D01*
X15127Y10715D01*
X15132Y10734D01*
X15140Y10752D01*
X15151Y10767D01*
X15165Y10781D01*
X15181Y10792D01*
X15198Y10800D01*
X15217Y10805D01*
X15236Y10807D01*
X15236Y10389D02*
X15525Y10389D01*
X15236Y10389D02*
X15217Y10387D01*
X15198Y10382D01*
X15181Y10374D01*
X15165Y10363D01*
X15151Y10349D01*
X15140Y10334D01*
X15132Y10316D01*
X15127Y10297D01*
X15125Y10278D01*
X15127Y10259D01*
X15132Y10240D01*
X15140Y10223D01*
X15151Y10207D01*
X15165Y10193D01*
X15181Y10182D01*
X15198Y10174D01*
X15217Y10169D01*
X15236Y10167D01*
X15236Y10166D02*
X15525Y10166D01*
X15525Y9886D02*
X15125Y9886D01*
X15525Y9997D02*
X15525Y9775D01*
X16214Y10621D02*
X16197Y10623D01*
X16180Y10628D01*
X16165Y10636D01*
X16151Y10647D01*
X16140Y10661D01*
X16132Y10676D01*
X16127Y10693D01*
X16125Y10710D01*
X16127Y10735D01*
X16131Y10759D01*
X16139Y10782D01*
X16150Y10804D01*
X16164Y10825D01*
X16181Y10843D01*
X16436Y10832D02*
X16453Y10830D01*
X16470Y10825D01*
X16485Y10817D01*
X16499Y10806D01*
X16510Y10792D01*
X16518Y10777D01*
X16523Y10760D01*
X16525Y10743D01*
X16524Y10722D01*
X16519Y10700D01*
X16513Y10680D01*
X16503Y10661D01*
X16492Y10643D01*
X16436Y10832D02*
X16417Y10830D01*
X16400Y10824D01*
X16383Y10815D01*
X16370Y10803D01*
X16358Y10788D01*
X16292Y10665D02*
X16280Y10650D01*
X16267Y10638D01*
X16250Y10629D01*
X16233Y10623D01*
X16214Y10621D01*
X16292Y10665D02*
X16358Y10787D01*
X16525Y10438D02*
X16125Y10438D01*
X16525Y10438D02*
X16525Y10327D01*
X16523Y10308D01*
X16518Y10289D01*
X16510Y10271D01*
X16499Y10256D01*
X16485Y10242D01*
X16469Y10231D01*
X16452Y10223D01*
X16433Y10218D01*
X16414Y10216D01*
X16236Y10216D01*
X16217Y10218D01*
X16198Y10223D01*
X16181Y10231D01*
X16165Y10242D01*
X16151Y10256D01*
X16140Y10272D01*
X16132Y10289D01*
X16127Y10308D01*
X16125Y10327D01*
X16125Y10438D01*
X16125Y10042D02*
X16525Y9908D01*
X16125Y9775D01*
X16225Y9808D02*
X16225Y10008D01*
X17125Y10563D02*
X17127Y10546D01*
X17132Y10529D01*
X17140Y10514D01*
X17151Y10500D01*
X17165Y10489D01*
X17180Y10481D01*
X17197Y10476D01*
X17214Y10474D01*
X17125Y10563D02*
X17127Y10588D01*
X17131Y10612D01*
X17139Y10635D01*
X17150Y10657D01*
X17164Y10678D01*
X17181Y10696D01*
X17436Y10685D02*
X17453Y10683D01*
X17470Y10678D01*
X17485Y10670D01*
X17499Y10659D01*
X17510Y10645D01*
X17518Y10630D01*
X17523Y10613D01*
X17525Y10596D01*
X17524Y10575D01*
X17519Y10553D01*
X17513Y10533D01*
X17503Y10514D01*
X17492Y10496D01*
X17436Y10685D02*
X17417Y10683D01*
X17400Y10677D01*
X17383Y10668D01*
X17370Y10656D01*
X17358Y10641D01*
X17292Y10518D02*
X17280Y10503D01*
X17267Y10491D01*
X17250Y10482D01*
X17233Y10476D01*
X17214Y10474D01*
X17292Y10518D02*
X17358Y10641D01*
X17125Y10217D02*
X17125Y10128D01*
X17125Y10217D02*
X17127Y10234D01*
X17132Y10251D01*
X17140Y10266D01*
X17151Y10280D01*
X17165Y10291D01*
X17180Y10299D01*
X17197Y10304D01*
X17214Y10306D01*
X17436Y10306D01*
X17453Y10304D01*
X17470Y10299D01*
X17485Y10291D01*
X17499Y10280D01*
X17510Y10266D01*
X17518Y10251D01*
X17523Y10234D01*
X17525Y10217D01*
X17525Y10128D01*
X17525Y9953D02*
X17125Y9953D01*
X17125Y9775D01*
D10*
X18105Y10347D02*
X18545Y10347D01*
X18545Y10469D02*
X18545Y10224D01*
X18545Y9780D02*
X18105Y10073D01*
X18105Y9780D02*
X18545Y10073D01*
X19105Y10495D02*
X19545Y10495D01*
X19545Y10373D01*
X19543Y10352D01*
X19538Y10331D01*
X19529Y10312D01*
X19516Y10295D01*
X19501Y10280D01*
X19484Y10267D01*
X19465Y10258D01*
X19444Y10253D01*
X19423Y10251D01*
X19402Y10253D01*
X19381Y10258D01*
X19362Y10267D01*
X19345Y10280D01*
X19330Y10295D01*
X19317Y10312D01*
X19308Y10331D01*
X19303Y10352D01*
X19301Y10373D01*
X19301Y10495D01*
X19301Y10349D02*
X19105Y10251D01*
X19105Y10073D02*
X19545Y9780D01*
X19545Y10073D02*
X19105Y9780D01*
X20435Y10230D02*
X20454Y10232D01*
X20473Y10237D01*
X20490Y10245D01*
X20506Y10256D01*
X20519Y10269D01*
X20530Y10285D01*
X20538Y10302D01*
X20543Y10321D01*
X20545Y10340D01*
X20543Y10362D01*
X20538Y10384D01*
X20530Y10404D01*
X20518Y10423D01*
X20504Y10440D01*
X20487Y10454D01*
X20468Y10466D01*
X20447Y10474D01*
X20350Y10267D02*
X20364Y10254D01*
X20380Y10244D01*
X20397Y10236D01*
X20416Y10232D01*
X20435Y10230D01*
X20349Y10267D02*
X20105Y10474D01*
X20105Y10230D01*
X20349Y10024D02*
X20349Y9878D01*
X20350Y9878D02*
X20349Y9861D01*
X20344Y9844D01*
X20337Y9829D01*
X20327Y9815D01*
X20315Y9803D01*
X20301Y9793D01*
X20286Y9786D01*
X20269Y9781D01*
X20252Y9780D01*
X20227Y9780D01*
X20206Y9782D01*
X20185Y9787D01*
X20166Y9796D01*
X20149Y9809D01*
X20134Y9824D01*
X20121Y9841D01*
X20112Y9860D01*
X20107Y9881D01*
X20105Y9902D01*
X20107Y9923D01*
X20112Y9944D01*
X20121Y9963D01*
X20134Y9980D01*
X20149Y9995D01*
X20166Y10008D01*
X20185Y10017D01*
X20206Y10022D01*
X20227Y10024D01*
X20349Y10024D01*
X20349Y10025D02*
X20375Y10023D01*
X20400Y10018D01*
X20424Y10010D01*
X20447Y9999D01*
X20468Y9984D01*
X20488Y9968D01*
X20504Y9948D01*
X20519Y9927D01*
X20530Y9904D01*
X20538Y9880D01*
X20543Y9855D01*
X20545Y9829D01*
X11349Y10740D02*
X11349Y10813D01*
X11349Y10740D02*
X11105Y10740D01*
X11105Y10887D01*
X11106Y10904D01*
X11111Y10921D01*
X11118Y10936D01*
X11128Y10950D01*
X11140Y10962D01*
X11154Y10972D01*
X11169Y10979D01*
X11186Y10984D01*
X11203Y10985D01*
X11203Y10984D02*
X11447Y10984D01*
X11447Y10985D02*
X11466Y10983D01*
X11485Y10978D01*
X11501Y10968D01*
X11516Y10956D01*
X11528Y10941D01*
X11538Y10925D01*
X11543Y10906D01*
X11545Y10887D01*
X11545Y10740D01*
X11545Y10504D02*
X11105Y10504D01*
X11105Y10260D02*
X11545Y10504D01*
X11545Y10260D02*
X11105Y10260D01*
X11105Y10024D02*
X11545Y10024D01*
X11545Y9902D01*
X11543Y9881D01*
X11538Y9860D01*
X11529Y9841D01*
X11516Y9824D01*
X11501Y9809D01*
X11484Y9796D01*
X11465Y9787D01*
X11444Y9782D01*
X11423Y9780D01*
X11227Y9780D01*
X11206Y9782D01*
X11185Y9787D01*
X11166Y9796D01*
X11149Y9809D01*
X11134Y9824D01*
X11121Y9841D01*
X11112Y9860D01*
X11107Y9881D01*
X11105Y9902D01*
X11105Y10024D01*
D11*
X10281Y11179D02*
X10281Y11446D01*
X10414Y11312D02*
X10147Y11312D01*
X10125Y10991D02*
X10125Y10880D01*
X10127Y10861D01*
X10132Y10842D01*
X10140Y10825D01*
X10151Y10809D01*
X10165Y10795D01*
X10181Y10784D01*
X10198Y10776D01*
X10217Y10771D01*
X10236Y10769D01*
X10255Y10771D01*
X10274Y10776D01*
X10292Y10784D01*
X10307Y10795D01*
X10321Y10809D01*
X10332Y10825D01*
X10340Y10842D01*
X10345Y10861D01*
X10347Y10880D01*
X10525Y10858D02*
X10525Y10991D01*
X10525Y10858D02*
X10523Y10839D01*
X10517Y10822D01*
X10508Y10806D01*
X10496Y10792D01*
X10481Y10781D01*
X10464Y10773D01*
X10445Y10769D01*
X10427Y10769D01*
X10408Y10773D01*
X10392Y10781D01*
X10376Y10792D01*
X10364Y10806D01*
X10355Y10822D01*
X10349Y10839D01*
X10347Y10858D01*
X10347Y10947D01*
X10147Y10608D02*
X10125Y10608D01*
X10147Y10608D02*
X10147Y10586D01*
X10125Y10586D01*
X10125Y10608D01*
X10125Y10424D02*
X10125Y10313D01*
X10127Y10294D01*
X10132Y10275D01*
X10140Y10258D01*
X10151Y10242D01*
X10165Y10228D01*
X10181Y10217D01*
X10198Y10209D01*
X10217Y10204D01*
X10236Y10202D01*
X10255Y10204D01*
X10274Y10209D01*
X10292Y10217D01*
X10307Y10228D01*
X10321Y10242D01*
X10332Y10258D01*
X10340Y10275D01*
X10345Y10294D01*
X10347Y10313D01*
X10525Y10291D02*
X10525Y10424D01*
X10525Y10291D02*
X10523Y10272D01*
X10517Y10255D01*
X10508Y10239D01*
X10496Y10225D01*
X10481Y10214D01*
X10464Y10206D01*
X10445Y10202D01*
X10427Y10202D01*
X10408Y10206D01*
X10392Y10214D01*
X10376Y10225D01*
X10364Y10239D01*
X10355Y10255D01*
X10349Y10272D01*
X10347Y10291D01*
X10347Y10380D01*
X10525Y10042D02*
X10125Y9908D01*
X10525Y9775D01*
D10*
X9545Y11251D02*
X9105Y11251D01*
X9301Y11104D02*
X9545Y11251D01*
X9301Y11104D02*
X9545Y10957D01*
X9105Y10957D01*
X9227Y10731D02*
X9423Y10731D01*
X9444Y10729D01*
X9465Y10724D01*
X9484Y10715D01*
X9501Y10702D01*
X9516Y10687D01*
X9529Y10670D01*
X9538Y10651D01*
X9543Y10630D01*
X9545Y10609D01*
X9543Y10588D01*
X9538Y10567D01*
X9529Y10548D01*
X9516Y10531D01*
X9501Y10516D01*
X9484Y10503D01*
X9465Y10494D01*
X9444Y10489D01*
X9423Y10487D01*
X9227Y10487D01*
X9206Y10489D01*
X9185Y10494D01*
X9166Y10503D01*
X9149Y10516D01*
X9134Y10531D01*
X9121Y10548D01*
X9112Y10567D01*
X9107Y10588D01*
X9105Y10609D01*
X9107Y10630D01*
X9112Y10651D01*
X9121Y10670D01*
X9134Y10687D01*
X9149Y10702D01*
X9166Y10715D01*
X9185Y10724D01*
X9206Y10729D01*
X9227Y10731D01*
X9105Y10149D02*
X9106Y10132D01*
X9111Y10115D01*
X9118Y10100D01*
X9128Y10086D01*
X9140Y10074D01*
X9154Y10064D01*
X9169Y10057D01*
X9186Y10052D01*
X9203Y10051D01*
X9105Y10149D02*
X9107Y10176D01*
X9112Y10203D01*
X9121Y10229D01*
X9133Y10253D01*
X9148Y10276D01*
X9166Y10296D01*
X9447Y10284D02*
X9464Y10283D01*
X9481Y10278D01*
X9496Y10271D01*
X9510Y10261D01*
X9522Y10249D01*
X9532Y10235D01*
X9539Y10220D01*
X9544Y10203D01*
X9545Y10186D01*
X9543Y10163D01*
X9539Y10139D01*
X9532Y10117D01*
X9521Y10096D01*
X9508Y10076D01*
X9362Y10235D02*
X9372Y10249D01*
X9384Y10261D01*
X9398Y10271D01*
X9413Y10278D01*
X9430Y10283D01*
X9447Y10284D01*
X9288Y10101D02*
X9278Y10087D01*
X9266Y10075D01*
X9252Y10065D01*
X9237Y10058D01*
X9220Y10053D01*
X9203Y10052D01*
X9288Y10101D02*
X9362Y10235D01*
X9545Y9829D02*
X9105Y9829D01*
X9105Y9878D02*
X9105Y9780D01*
X9545Y9780D02*
X9545Y9878D01*
X8545Y11234D02*
X8105Y11234D01*
X8301Y11087D02*
X8545Y11234D01*
X8301Y11087D02*
X8545Y10941D01*
X8105Y10941D01*
X8105Y10682D02*
X8545Y10682D01*
X8105Y10731D02*
X8105Y10633D01*
X8545Y10633D02*
X8545Y10731D01*
X8105Y10313D02*
X8106Y10296D01*
X8111Y10279D01*
X8118Y10264D01*
X8128Y10250D01*
X8140Y10238D01*
X8154Y10228D01*
X8169Y10221D01*
X8186Y10216D01*
X8203Y10215D01*
X8105Y10313D02*
X8107Y10340D01*
X8112Y10367D01*
X8121Y10393D01*
X8133Y10417D01*
X8148Y10440D01*
X8166Y10460D01*
X8447Y10447D02*
X8464Y10446D01*
X8481Y10441D01*
X8496Y10434D01*
X8510Y10424D01*
X8522Y10412D01*
X8532Y10398D01*
X8539Y10383D01*
X8544Y10366D01*
X8545Y10349D01*
X8543Y10326D01*
X8539Y10302D01*
X8532Y10280D01*
X8521Y10259D01*
X8508Y10239D01*
X8362Y10398D02*
X8372Y10412D01*
X8384Y10424D01*
X8398Y10434D01*
X8413Y10441D01*
X8430Y10446D01*
X8447Y10447D01*
X8288Y10264D02*
X8278Y10250D01*
X8266Y10238D01*
X8252Y10228D01*
X8237Y10221D01*
X8220Y10216D01*
X8203Y10215D01*
X8288Y10264D02*
X8362Y10398D01*
X8423Y10024D02*
X8227Y10024D01*
X8423Y10024D02*
X8444Y10022D01*
X8465Y10017D01*
X8484Y10008D01*
X8501Y9995D01*
X8516Y9980D01*
X8529Y9963D01*
X8538Y9944D01*
X8543Y9923D01*
X8545Y9902D01*
X8543Y9881D01*
X8538Y9860D01*
X8529Y9841D01*
X8516Y9824D01*
X8501Y9809D01*
X8484Y9796D01*
X8465Y9787D01*
X8444Y9782D01*
X8423Y9780D01*
X8227Y9780D01*
X8206Y9782D01*
X8185Y9787D01*
X8166Y9796D01*
X8149Y9809D01*
X8134Y9824D01*
X8121Y9841D01*
X8112Y9860D01*
X8107Y9881D01*
X8105Y9902D01*
X8107Y9923D01*
X8112Y9944D01*
X8121Y9963D01*
X8134Y9980D01*
X8149Y9995D01*
X8166Y10008D01*
X8185Y10017D01*
X8206Y10022D01*
X8227Y10024D01*
D11*
X7125Y10530D02*
X7125Y10619D01*
X7127Y10636D01*
X7132Y10653D01*
X7140Y10668D01*
X7151Y10682D01*
X7165Y10693D01*
X7180Y10701D01*
X7197Y10706D01*
X7214Y10708D01*
X7436Y10708D01*
X7453Y10706D01*
X7470Y10701D01*
X7485Y10693D01*
X7499Y10682D01*
X7510Y10668D01*
X7518Y10653D01*
X7523Y10636D01*
X7525Y10619D01*
X7525Y10530D01*
X7525Y10354D02*
X7125Y10354D01*
X7125Y10177D01*
X7125Y9997D02*
X7525Y9997D01*
X7525Y9775D02*
X7281Y9997D01*
X7369Y9908D02*
X7125Y9775D01*
D10*
X6105Y10626D02*
X6105Y10723D01*
X6106Y10740D01*
X6111Y10757D01*
X6118Y10772D01*
X6128Y10786D01*
X6140Y10798D01*
X6154Y10808D01*
X6169Y10815D01*
X6186Y10820D01*
X6203Y10821D01*
X6447Y10821D01*
X6466Y10819D01*
X6485Y10814D01*
X6501Y10804D01*
X6516Y10792D01*
X6528Y10777D01*
X6538Y10761D01*
X6543Y10742D01*
X6545Y10723D01*
X6545Y10626D01*
X6203Y10215D02*
X6186Y10216D01*
X6169Y10221D01*
X6154Y10228D01*
X6140Y10238D01*
X6128Y10250D01*
X6118Y10264D01*
X6111Y10279D01*
X6106Y10296D01*
X6105Y10313D01*
X6107Y10340D01*
X6112Y10367D01*
X6121Y10393D01*
X6133Y10417D01*
X6148Y10440D01*
X6166Y10460D01*
X6447Y10447D02*
X6464Y10446D01*
X6481Y10441D01*
X6496Y10434D01*
X6510Y10424D01*
X6522Y10412D01*
X6532Y10398D01*
X6539Y10383D01*
X6544Y10366D01*
X6545Y10349D01*
X6543Y10326D01*
X6539Y10302D01*
X6532Y10280D01*
X6521Y10259D01*
X6508Y10239D01*
X6362Y10398D02*
X6372Y10412D01*
X6384Y10424D01*
X6398Y10434D01*
X6413Y10441D01*
X6430Y10446D01*
X6447Y10447D01*
X6288Y10264D02*
X6278Y10250D01*
X6266Y10238D01*
X6252Y10228D01*
X6237Y10221D01*
X6220Y10216D01*
X6203Y10215D01*
X6288Y10264D02*
X6362Y10398D01*
X6325Y10025D02*
X6358Y10024D01*
X6391Y10019D01*
X6423Y10012D01*
X6454Y10001D01*
X6484Y9988D01*
X6484Y9987D02*
X6501Y9979D01*
X6516Y9968D01*
X6528Y9954D01*
X6537Y9938D01*
X6543Y9920D01*
X6545Y9902D01*
X6543Y9884D01*
X6537Y9866D01*
X6528Y9850D01*
X6516Y9836D01*
X6501Y9825D01*
X6484Y9817D01*
X6454Y9804D01*
X6423Y9793D01*
X6391Y9786D01*
X6358Y9781D01*
X6325Y9780D01*
X6325Y10025D02*
X6292Y10024D01*
X6260Y10019D01*
X6227Y10012D01*
X6196Y10001D01*
X6166Y9988D01*
X6166Y9987D02*
X6149Y9979D01*
X6134Y9968D01*
X6122Y9954D01*
X6113Y9938D01*
X6107Y9920D01*
X6105Y9902D01*
X6166Y9817D02*
X6196Y9804D01*
X6227Y9793D01*
X6259Y9786D01*
X6292Y9781D01*
X6325Y9780D01*
X6166Y9817D02*
X6149Y9825D01*
X6134Y9836D01*
X6122Y9850D01*
X6113Y9866D01*
X6107Y9884D01*
X6105Y9902D01*
X6203Y10000D02*
X6447Y9804D01*
X5227Y10230D02*
X5248Y10232D01*
X5269Y10237D01*
X5288Y10246D01*
X5305Y10259D01*
X5320Y10274D01*
X5333Y10291D01*
X5342Y10310D01*
X5347Y10331D01*
X5349Y10352D01*
X5347Y10373D01*
X5342Y10394D01*
X5333Y10413D01*
X5320Y10430D01*
X5305Y10445D01*
X5288Y10458D01*
X5269Y10467D01*
X5248Y10472D01*
X5227Y10474D01*
X5206Y10472D01*
X5185Y10467D01*
X5166Y10458D01*
X5149Y10445D01*
X5134Y10430D01*
X5121Y10413D01*
X5112Y10394D01*
X5107Y10373D01*
X5105Y10352D01*
X5107Y10331D01*
X5112Y10310D01*
X5121Y10291D01*
X5134Y10274D01*
X5149Y10259D01*
X5166Y10246D01*
X5185Y10237D01*
X5206Y10232D01*
X5227Y10230D01*
X5447Y10254D02*
X5465Y10256D01*
X5482Y10261D01*
X5499Y10269D01*
X5513Y10280D01*
X5525Y10293D01*
X5535Y10308D01*
X5541Y10325D01*
X5545Y10343D01*
X5545Y10361D01*
X5541Y10379D01*
X5535Y10396D01*
X5525Y10411D01*
X5513Y10424D01*
X5499Y10435D01*
X5482Y10443D01*
X5465Y10448D01*
X5447Y10450D01*
X5429Y10448D01*
X5412Y10443D01*
X5395Y10435D01*
X5381Y10424D01*
X5369Y10411D01*
X5359Y10396D01*
X5353Y10379D01*
X5349Y10361D01*
X5349Y10343D01*
X5353Y10325D01*
X5359Y10308D01*
X5369Y10293D01*
X5381Y10280D01*
X5395Y10269D01*
X5412Y10261D01*
X5429Y10256D01*
X5447Y10254D01*
X5301Y9927D02*
X5301Y9780D01*
X5300Y9927D02*
X5301Y9944D01*
X5306Y9961D01*
X5313Y9976D01*
X5323Y9990D01*
X5335Y10002D01*
X5349Y10012D01*
X5364Y10019D01*
X5381Y10024D01*
X5398Y10025D01*
X5398Y10024D02*
X5423Y10024D01*
X5444Y10022D01*
X5465Y10017D01*
X5484Y10008D01*
X5501Y9995D01*
X5516Y9980D01*
X5529Y9963D01*
X5538Y9944D01*
X5543Y9923D01*
X5545Y9902D01*
X5543Y9881D01*
X5538Y9860D01*
X5529Y9841D01*
X5516Y9824D01*
X5501Y9809D01*
X5484Y9796D01*
X5465Y9787D01*
X5444Y9782D01*
X5423Y9780D01*
X5301Y9780D01*
X5275Y9782D01*
X5250Y9787D01*
X5226Y9795D01*
X5203Y9806D01*
X5182Y9821D01*
X5162Y9837D01*
X5146Y9857D01*
X5131Y9878D01*
X5120Y9901D01*
X5112Y9925D01*
X5107Y9950D01*
X5105Y9976D01*
D11*
X4500Y11240D02*
X4150Y11357D01*
X4150Y11124D02*
X4500Y11240D01*
X4238Y11153D02*
X4238Y11328D01*
X4344Y10977D02*
X4344Y10861D01*
X4345Y10861D02*
X4344Y10846D01*
X4339Y10831D01*
X4332Y10818D01*
X4322Y10806D01*
X4310Y10796D01*
X4297Y10789D01*
X4282Y10784D01*
X4267Y10783D01*
X4247Y10783D01*
X4229Y10785D01*
X4212Y10790D01*
X4196Y10798D01*
X4182Y10808D01*
X4170Y10822D01*
X4160Y10837D01*
X4154Y10853D01*
X4150Y10871D01*
X4150Y10889D01*
X4154Y10907D01*
X4160Y10923D01*
X4170Y10938D01*
X4182Y10952D01*
X4196Y10962D01*
X4212Y10970D01*
X4229Y10975D01*
X4247Y10977D01*
X4344Y10977D01*
X4344Y10978D02*
X4368Y10976D01*
X4392Y10970D01*
X4415Y10961D01*
X4436Y10948D01*
X4454Y10932D01*
X4470Y10914D01*
X4483Y10893D01*
X4492Y10870D01*
X4498Y10846D01*
X4500Y10822D01*
X4539Y10478D02*
X4111Y10634D01*
X4247Y10329D02*
X4265Y10327D01*
X4282Y10322D01*
X4298Y10314D01*
X4312Y10304D01*
X4324Y10290D01*
X4334Y10275D01*
X4340Y10259D01*
X4344Y10241D01*
X4344Y10223D01*
X4340Y10205D01*
X4334Y10189D01*
X4324Y10174D01*
X4312Y10160D01*
X4298Y10150D01*
X4282Y10142D01*
X4265Y10137D01*
X4247Y10135D01*
X4229Y10137D01*
X4212Y10142D01*
X4196Y10150D01*
X4182Y10160D01*
X4170Y10174D01*
X4160Y10189D01*
X4154Y10205D01*
X4150Y10223D01*
X4150Y10241D01*
X4154Y10259D01*
X4160Y10275D01*
X4170Y10290D01*
X4182Y10304D01*
X4196Y10314D01*
X4212Y10322D01*
X4229Y10327D01*
X4247Y10329D01*
X4422Y10310D02*
X4438Y10308D01*
X4454Y10303D01*
X4468Y10295D01*
X4480Y10284D01*
X4490Y10271D01*
X4496Y10256D01*
X4500Y10240D01*
X4500Y10224D01*
X4496Y10208D01*
X4490Y10193D01*
X4480Y10180D01*
X4468Y10169D01*
X4454Y10161D01*
X4438Y10156D01*
X4422Y10154D01*
X4406Y10156D01*
X4390Y10161D01*
X4376Y10169D01*
X4364Y10180D01*
X4354Y10193D01*
X4348Y10208D01*
X4344Y10224D01*
X4344Y10240D01*
X4348Y10256D01*
X4354Y10271D01*
X4364Y10284D01*
X4376Y10295D01*
X4390Y10303D01*
X4406Y10308D01*
X4422Y10310D01*
X4461Y9969D02*
X4500Y9969D01*
X4500Y9775D01*
X4150Y9872D01*
D10*
X15203Y20449D02*
X15545Y20352D01*
X15203Y20449D02*
X15203Y20205D01*
X15301Y20278D02*
X15105Y20278D01*
X15203Y19999D02*
X15545Y19902D01*
X15203Y19999D02*
X15203Y19755D01*
X15301Y19828D02*
X15105Y19828D01*
X14545Y20352D02*
X14203Y20449D01*
X14203Y20205D01*
X14301Y20278D02*
X14105Y20278D01*
X14349Y19999D02*
X14349Y19853D01*
X14350Y19853D02*
X14349Y19836D01*
X14344Y19819D01*
X14337Y19804D01*
X14327Y19790D01*
X14315Y19778D01*
X14301Y19768D01*
X14286Y19761D01*
X14269Y19756D01*
X14252Y19755D01*
X14227Y19755D01*
X14206Y19757D01*
X14185Y19762D01*
X14166Y19771D01*
X14149Y19784D01*
X14134Y19799D01*
X14121Y19816D01*
X14112Y19835D01*
X14107Y19856D01*
X14105Y19877D01*
X14107Y19898D01*
X14112Y19919D01*
X14121Y19938D01*
X14134Y19955D01*
X14149Y19970D01*
X14166Y19983D01*
X14185Y19992D01*
X14206Y19997D01*
X14227Y19999D01*
X14349Y19999D01*
X14349Y20000D02*
X14375Y19998D01*
X14400Y19993D01*
X14424Y19985D01*
X14447Y19974D01*
X14468Y19959D01*
X14488Y19943D01*
X14504Y19923D01*
X14519Y19902D01*
X14530Y19879D01*
X14538Y19855D01*
X14543Y19830D01*
X14545Y19804D01*
X13349Y20303D02*
X13349Y20449D01*
X13350Y20303D02*
X13349Y20286D01*
X13344Y20269D01*
X13337Y20254D01*
X13327Y20240D01*
X13315Y20228D01*
X13301Y20218D01*
X13286Y20211D01*
X13269Y20206D01*
X13252Y20205D01*
X13227Y20205D01*
X13206Y20207D01*
X13185Y20212D01*
X13166Y20221D01*
X13149Y20234D01*
X13134Y20249D01*
X13121Y20266D01*
X13112Y20285D01*
X13107Y20306D01*
X13105Y20327D01*
X13107Y20348D01*
X13112Y20369D01*
X13121Y20388D01*
X13134Y20405D01*
X13149Y20420D01*
X13166Y20433D01*
X13185Y20442D01*
X13206Y20447D01*
X13227Y20449D01*
X13349Y20449D01*
X13349Y20450D02*
X13375Y20448D01*
X13400Y20443D01*
X13424Y20435D01*
X13447Y20424D01*
X13468Y20409D01*
X13488Y20393D01*
X13504Y20373D01*
X13519Y20352D01*
X13530Y20329D01*
X13538Y20305D01*
X13543Y20280D01*
X13545Y20254D01*
X13545Y19902D02*
X13203Y19999D01*
X13203Y19755D01*
X13301Y19828D02*
X13105Y19828D01*
X12545Y20352D02*
X12203Y20449D01*
X12203Y20205D01*
X12301Y20278D02*
X12105Y20278D01*
X12496Y19999D02*
X12545Y19999D01*
X12545Y19755D01*
X12105Y19877D01*
X11545Y19877D02*
X11105Y19877D01*
X11545Y19999D02*
X11545Y19755D01*
X10276Y19755D02*
X10276Y20048D01*
X10129Y19902D02*
X10423Y19902D01*
X9545Y20449D02*
X9105Y20449D01*
X9545Y20449D02*
X9545Y20327D01*
X9543Y20306D01*
X9538Y20285D01*
X9529Y20266D01*
X9516Y20249D01*
X9501Y20234D01*
X9484Y20221D01*
X9465Y20212D01*
X9444Y20207D01*
X9423Y20205D01*
X9402Y20207D01*
X9381Y20212D01*
X9362Y20221D01*
X9345Y20234D01*
X9330Y20249D01*
X9317Y20266D01*
X9308Y20285D01*
X9303Y20306D01*
X9301Y20327D01*
X9301Y20449D01*
X9349Y19999D02*
X9349Y19877D01*
X9347Y19856D01*
X9342Y19835D01*
X9333Y19816D01*
X9320Y19799D01*
X9305Y19784D01*
X9288Y19771D01*
X9269Y19762D01*
X9248Y19757D01*
X9227Y19755D01*
X9206Y19757D01*
X9185Y19762D01*
X9166Y19771D01*
X9149Y19784D01*
X9134Y19799D01*
X9121Y19816D01*
X9112Y19835D01*
X9107Y19856D01*
X9105Y19877D01*
X9105Y19999D01*
X9545Y19999D01*
X9545Y19877D01*
X9543Y19859D01*
X9538Y19842D01*
X9530Y19825D01*
X9519Y19811D01*
X9506Y19799D01*
X9491Y19789D01*
X9474Y19783D01*
X9456Y19779D01*
X9438Y19779D01*
X9420Y19783D01*
X9403Y19789D01*
X9388Y19799D01*
X9375Y19811D01*
X9364Y19825D01*
X9356Y19842D01*
X9351Y19859D01*
X9349Y19877D01*
X8105Y20303D02*
X8105Y20449D01*
X8105Y20303D02*
X8107Y20284D01*
X8112Y20265D01*
X8122Y20249D01*
X8134Y20234D01*
X8149Y20222D01*
X8165Y20212D01*
X8184Y20207D01*
X8203Y20205D01*
X8252Y20205D01*
X8269Y20206D01*
X8286Y20211D01*
X8301Y20218D01*
X8315Y20228D01*
X8327Y20240D01*
X8337Y20254D01*
X8344Y20269D01*
X8349Y20286D01*
X8350Y20303D01*
X8349Y20303D02*
X8349Y20449D01*
X8545Y20449D01*
X8545Y20205D01*
X8545Y19865D02*
X8543Y19846D01*
X8538Y19827D01*
X8530Y19810D01*
X8519Y19794D01*
X8506Y19781D01*
X8490Y19770D01*
X8473Y19762D01*
X8454Y19757D01*
X8435Y19755D01*
X8545Y19865D02*
X8543Y19887D01*
X8538Y19909D01*
X8530Y19929D01*
X8518Y19948D01*
X8504Y19965D01*
X8487Y19979D01*
X8468Y19991D01*
X8447Y19999D01*
X8350Y19792D02*
X8364Y19779D01*
X8380Y19769D01*
X8397Y19761D01*
X8416Y19757D01*
X8435Y19755D01*
X8349Y19792D02*
X8105Y19999D01*
X8105Y19755D01*
X7349Y20303D02*
X7349Y20449D01*
X7350Y20303D02*
X7349Y20286D01*
X7344Y20269D01*
X7337Y20254D01*
X7327Y20240D01*
X7315Y20228D01*
X7301Y20218D01*
X7286Y20211D01*
X7269Y20206D01*
X7252Y20205D01*
X7227Y20205D01*
X7206Y20207D01*
X7185Y20212D01*
X7166Y20221D01*
X7149Y20234D01*
X7134Y20249D01*
X7121Y20266D01*
X7112Y20285D01*
X7107Y20306D01*
X7105Y20327D01*
X7107Y20348D01*
X7112Y20369D01*
X7121Y20388D01*
X7134Y20405D01*
X7149Y20420D01*
X7166Y20433D01*
X7185Y20442D01*
X7206Y20447D01*
X7227Y20449D01*
X7349Y20449D01*
X7349Y20450D02*
X7375Y20448D01*
X7400Y20443D01*
X7424Y20435D01*
X7447Y20424D01*
X7468Y20409D01*
X7488Y20393D01*
X7504Y20373D01*
X7519Y20352D01*
X7530Y20329D01*
X7538Y20305D01*
X7543Y20280D01*
X7545Y20254D01*
X7484Y19963D02*
X7454Y19976D01*
X7423Y19987D01*
X7391Y19994D01*
X7358Y19999D01*
X7325Y20000D01*
X7484Y19962D02*
X7501Y19954D01*
X7516Y19943D01*
X7528Y19929D01*
X7537Y19913D01*
X7543Y19895D01*
X7545Y19877D01*
X7543Y19859D01*
X7537Y19841D01*
X7528Y19825D01*
X7516Y19811D01*
X7501Y19800D01*
X7484Y19792D01*
X7454Y19779D01*
X7423Y19768D01*
X7391Y19761D01*
X7358Y19756D01*
X7325Y19755D01*
X7325Y20000D02*
X7292Y19999D01*
X7260Y19994D01*
X7227Y19987D01*
X7196Y19976D01*
X7166Y19963D01*
X7166Y19962D02*
X7149Y19954D01*
X7134Y19943D01*
X7122Y19929D01*
X7113Y19913D01*
X7107Y19895D01*
X7105Y19877D01*
X7166Y19792D02*
X7196Y19779D01*
X7227Y19768D01*
X7259Y19761D01*
X7292Y19756D01*
X7325Y19755D01*
X7166Y19792D02*
X7149Y19800D01*
X7134Y19811D01*
X7122Y19825D01*
X7113Y19841D01*
X7107Y19859D01*
X7105Y19877D01*
X7203Y19975D02*
X7447Y19779D01*
X6105Y20303D02*
X6105Y20449D01*
X6105Y20303D02*
X6107Y20284D01*
X6112Y20265D01*
X6122Y20249D01*
X6134Y20234D01*
X6149Y20222D01*
X6165Y20212D01*
X6184Y20207D01*
X6203Y20205D01*
X6252Y20205D01*
X6269Y20206D01*
X6286Y20211D01*
X6301Y20218D01*
X6315Y20228D01*
X6327Y20240D01*
X6337Y20254D01*
X6344Y20269D01*
X6349Y20286D01*
X6350Y20303D01*
X6349Y20303D02*
X6349Y20449D01*
X6545Y20449D01*
X6545Y20205D01*
X6545Y19999D02*
X6496Y19999D01*
X6545Y19999D02*
X6545Y19755D01*
X6105Y19877D01*
D11*
X5125Y20244D02*
X5125Y20377D01*
X5125Y20244D02*
X5127Y20227D01*
X5132Y20210D01*
X5140Y20195D01*
X5151Y20181D01*
X5165Y20170D01*
X5180Y20162D01*
X5197Y20157D01*
X5214Y20155D01*
X5258Y20155D01*
X5275Y20157D01*
X5292Y20162D01*
X5307Y20170D01*
X5321Y20181D01*
X5332Y20195D01*
X5340Y20210D01*
X5345Y20227D01*
X5347Y20244D01*
X5347Y20377D01*
X5525Y20377D01*
X5525Y20155D01*
X5236Y19972D02*
X5255Y19970D01*
X5274Y19965D01*
X5292Y19957D01*
X5307Y19946D01*
X5321Y19932D01*
X5332Y19917D01*
X5340Y19899D01*
X5345Y19880D01*
X5347Y19861D01*
X5345Y19842D01*
X5340Y19823D01*
X5332Y19806D01*
X5321Y19790D01*
X5307Y19776D01*
X5292Y19765D01*
X5274Y19757D01*
X5255Y19752D01*
X5236Y19750D01*
X5217Y19752D01*
X5198Y19757D01*
X5181Y19765D01*
X5165Y19776D01*
X5151Y19790D01*
X5140Y19806D01*
X5132Y19823D01*
X5127Y19842D01*
X5125Y19861D01*
X5127Y19880D01*
X5132Y19899D01*
X5140Y19917D01*
X5151Y19932D01*
X5165Y19946D01*
X5181Y19957D01*
X5198Y19965D01*
X5217Y19970D01*
X5236Y19972D01*
X5436Y19950D02*
X5455Y19948D01*
X5472Y19942D01*
X5488Y19933D01*
X5502Y19921D01*
X5513Y19906D01*
X5521Y19889D01*
X5525Y19870D01*
X5525Y19852D01*
X5521Y19833D01*
X5513Y19817D01*
X5502Y19801D01*
X5488Y19789D01*
X5472Y19780D01*
X5455Y19774D01*
X5436Y19772D01*
X5417Y19774D01*
X5400Y19780D01*
X5384Y19789D01*
X5370Y19801D01*
X5359Y19817D01*
X5351Y19833D01*
X5347Y19852D01*
X5347Y19870D01*
X5351Y19889D01*
X5359Y19906D01*
X5370Y19921D01*
X5384Y19933D01*
X5400Y19942D01*
X5417Y19948D01*
X5436Y19950D01*
D10*
X3105Y19170D02*
X3105Y19023D01*
X3107Y19004D01*
X3112Y18985D01*
X3122Y18969D01*
X3134Y18954D01*
X3149Y18942D01*
X3165Y18932D01*
X3184Y18927D01*
X3203Y18925D01*
X3203Y18926D02*
X3252Y18926D01*
X3252Y18925D02*
X3269Y18926D01*
X3286Y18931D01*
X3301Y18938D01*
X3315Y18948D01*
X3327Y18960D01*
X3337Y18974D01*
X3344Y18989D01*
X3349Y19006D01*
X3350Y19023D01*
X3349Y19023D02*
X3349Y19170D01*
X3545Y19170D01*
X3545Y18926D01*
X3301Y18622D02*
X3301Y18476D01*
X3300Y18622D02*
X3301Y18639D01*
X3306Y18656D01*
X3313Y18671D01*
X3323Y18685D01*
X3335Y18697D01*
X3349Y18707D01*
X3364Y18714D01*
X3381Y18719D01*
X3398Y18720D01*
X3423Y18720D01*
X3444Y18718D01*
X3465Y18713D01*
X3484Y18704D01*
X3501Y18691D01*
X3516Y18676D01*
X3529Y18659D01*
X3538Y18640D01*
X3543Y18619D01*
X3545Y18598D01*
X3543Y18577D01*
X3538Y18556D01*
X3529Y18537D01*
X3516Y18520D01*
X3501Y18505D01*
X3484Y18492D01*
X3465Y18483D01*
X3444Y18478D01*
X3423Y18476D01*
X3301Y18476D01*
X3301Y18475D02*
X3275Y18477D01*
X3250Y18482D01*
X3226Y18490D01*
X3203Y18501D01*
X3182Y18516D01*
X3162Y18532D01*
X3146Y18552D01*
X3131Y18573D01*
X3120Y18596D01*
X3112Y18620D01*
X3107Y18645D01*
X3105Y18671D01*
X17349Y19853D02*
X17349Y19999D01*
X17350Y19853D02*
X17349Y19836D01*
X17344Y19819D01*
X17337Y19804D01*
X17327Y19790D01*
X17315Y19778D01*
X17301Y19768D01*
X17286Y19761D01*
X17269Y19756D01*
X17252Y19755D01*
X17227Y19755D01*
X17206Y19757D01*
X17185Y19762D01*
X17166Y19771D01*
X17149Y19784D01*
X17134Y19799D01*
X17121Y19816D01*
X17112Y19835D01*
X17107Y19856D01*
X17105Y19877D01*
X17107Y19898D01*
X17112Y19919D01*
X17121Y19938D01*
X17134Y19955D01*
X17149Y19970D01*
X17166Y19983D01*
X17185Y19992D01*
X17206Y19997D01*
X17227Y19999D01*
X17349Y19999D01*
X17349Y20000D02*
X17375Y19998D01*
X17400Y19993D01*
X17424Y19985D01*
X17447Y19974D01*
X17468Y19959D01*
X17488Y19943D01*
X17504Y19923D01*
X17519Y19902D01*
X17530Y19879D01*
X17538Y19855D01*
X17543Y19830D01*
X17545Y19804D01*
X18105Y19877D02*
X18105Y19999D01*
X18105Y19877D02*
X18107Y19856D01*
X18112Y19835D01*
X18121Y19816D01*
X18134Y19799D01*
X18149Y19784D01*
X18166Y19771D01*
X18185Y19762D01*
X18206Y19757D01*
X18227Y19755D01*
X18248Y19757D01*
X18269Y19762D01*
X18288Y19771D01*
X18305Y19784D01*
X18320Y19799D01*
X18333Y19816D01*
X18342Y19835D01*
X18347Y19856D01*
X18349Y19877D01*
X18545Y19853D02*
X18545Y19999D01*
X18545Y19853D02*
X18543Y19835D01*
X18538Y19818D01*
X18530Y19801D01*
X18519Y19787D01*
X18506Y19775D01*
X18491Y19765D01*
X18474Y19759D01*
X18456Y19755D01*
X18438Y19755D01*
X18420Y19759D01*
X18403Y19765D01*
X18388Y19775D01*
X18375Y19787D01*
X18364Y19801D01*
X18356Y19818D01*
X18351Y19835D01*
X18349Y19853D01*
X18349Y19951D01*
X19435Y19755D02*
X19454Y19757D01*
X19473Y19762D01*
X19490Y19770D01*
X19506Y19781D01*
X19519Y19794D01*
X19530Y19810D01*
X19538Y19827D01*
X19543Y19846D01*
X19545Y19865D01*
X19543Y19887D01*
X19538Y19909D01*
X19530Y19929D01*
X19518Y19948D01*
X19504Y19965D01*
X19487Y19979D01*
X19468Y19991D01*
X19447Y19999D01*
X19350Y19792D02*
X19364Y19779D01*
X19380Y19769D01*
X19397Y19761D01*
X19416Y19757D01*
X19435Y19755D01*
X19349Y19792D02*
X19105Y19999D01*
X19105Y19755D01*
X20105Y19853D02*
X20105Y19999D01*
X20105Y19853D02*
X20107Y19834D01*
X20112Y19815D01*
X20122Y19799D01*
X20134Y19784D01*
X20149Y19772D01*
X20165Y19762D01*
X20184Y19757D01*
X20203Y19755D01*
X20252Y19755D01*
X20269Y19756D01*
X20286Y19761D01*
X20301Y19768D01*
X20315Y19778D01*
X20327Y19790D01*
X20337Y19804D01*
X20344Y19819D01*
X20349Y19836D01*
X20350Y19853D01*
X20349Y19853D02*
X20349Y19999D01*
X20545Y19999D01*
X20545Y19755D01*
D11*
X22150Y19425D02*
X22500Y19308D01*
X22150Y19192D01*
X22238Y19221D02*
X22238Y19396D01*
X22461Y19046D02*
X22500Y19046D01*
X22500Y18851D01*
X22150Y18948D01*
X22325Y18686D02*
X22358Y18684D01*
X22391Y18679D01*
X22423Y18671D01*
X22454Y18660D01*
X22484Y18646D01*
X22512Y18628D01*
X22539Y18608D01*
X22325Y18686D02*
X22292Y18684D01*
X22259Y18679D01*
X22227Y18671D01*
X22196Y18660D01*
X22166Y18646D01*
X22138Y18628D01*
X22111Y18608D01*
X22422Y18458D02*
X22500Y18360D01*
X22150Y18360D01*
X22150Y18263D02*
X22150Y18458D01*
X22150Y18118D02*
X22169Y18118D01*
X22169Y18099D01*
X22150Y18099D01*
X22150Y18118D01*
X22247Y17953D02*
X22265Y17951D01*
X22282Y17946D01*
X22298Y17938D01*
X22312Y17928D01*
X22324Y17914D01*
X22334Y17899D01*
X22340Y17883D01*
X22344Y17865D01*
X22344Y17847D01*
X22340Y17829D01*
X22334Y17813D01*
X22324Y17798D01*
X22312Y17784D01*
X22298Y17774D01*
X22282Y17766D01*
X22265Y17761D01*
X22247Y17759D01*
X22229Y17761D01*
X22212Y17766D01*
X22196Y17774D01*
X22182Y17784D01*
X22170Y17798D01*
X22160Y17813D01*
X22154Y17829D01*
X22150Y17847D01*
X22150Y17865D01*
X22154Y17883D01*
X22160Y17899D01*
X22170Y17914D01*
X22182Y17928D01*
X22196Y17938D01*
X22212Y17946D01*
X22229Y17951D01*
X22247Y17953D01*
X22422Y17934D02*
X22438Y17932D01*
X22454Y17927D01*
X22468Y17919D01*
X22480Y17908D01*
X22490Y17895D01*
X22496Y17880D01*
X22500Y17864D01*
X22500Y17848D01*
X22496Y17832D01*
X22490Y17817D01*
X22480Y17804D01*
X22468Y17793D01*
X22454Y17785D01*
X22438Y17780D01*
X22422Y17778D01*
X22406Y17780D01*
X22390Y17785D01*
X22376Y17793D01*
X22364Y17804D01*
X22354Y17817D01*
X22348Y17832D01*
X22344Y17848D01*
X22344Y17864D01*
X22348Y17880D01*
X22354Y17895D01*
X22364Y17908D01*
X22376Y17919D01*
X22390Y17927D01*
X22406Y17932D01*
X22422Y17934D01*
X22325Y17531D02*
X22292Y17533D01*
X22259Y17538D01*
X22227Y17546D01*
X22196Y17557D01*
X22166Y17571D01*
X22138Y17589D01*
X22111Y17609D01*
X22325Y17531D02*
X22358Y17533D01*
X22391Y17538D01*
X22423Y17546D01*
X22454Y17557D01*
X22484Y17571D01*
X22512Y17589D01*
X22539Y17609D01*
D13*
X21830Y18890D02*
X20830Y18890D01*
D11*
X4500Y17925D02*
X4150Y17925D01*
X4500Y17925D02*
X4500Y17828D01*
X4498Y17810D01*
X4493Y17793D01*
X4485Y17777D01*
X4475Y17763D01*
X4461Y17751D01*
X4446Y17741D01*
X4430Y17735D01*
X4412Y17731D01*
X4394Y17731D01*
X4376Y17735D01*
X4360Y17741D01*
X4345Y17751D01*
X4331Y17763D01*
X4321Y17777D01*
X4313Y17793D01*
X4308Y17810D01*
X4306Y17828D01*
X4306Y17925D01*
X4500Y17594D02*
X4150Y17516D01*
X4383Y17439D01*
X4150Y17361D01*
X4500Y17283D01*
X4500Y17111D02*
X4150Y17111D01*
X4306Y16995D02*
X4500Y17111D01*
X4306Y16995D02*
X4500Y16878D01*
X4150Y16878D01*
X4422Y16696D02*
X4500Y16599D01*
X4150Y16599D01*
X4150Y16696D02*
X4150Y16501D01*
X4150Y16355D02*
X4500Y16239D01*
X4150Y16122D01*
X4238Y16151D02*
X4238Y16326D01*
D10*
X5435Y17676D02*
X5454Y17678D01*
X5473Y17683D01*
X5490Y17691D01*
X5506Y17702D01*
X5519Y17715D01*
X5530Y17731D01*
X5538Y17748D01*
X5543Y17767D01*
X5545Y17786D01*
X5543Y17808D01*
X5538Y17830D01*
X5530Y17850D01*
X5518Y17869D01*
X5504Y17886D01*
X5487Y17900D01*
X5468Y17912D01*
X5447Y17920D01*
X5350Y17713D02*
X5364Y17700D01*
X5380Y17690D01*
X5397Y17682D01*
X5416Y17678D01*
X5435Y17676D01*
X5349Y17712D02*
X5105Y17920D01*
X5105Y17676D01*
X5105Y17470D02*
X5105Y17348D01*
X5107Y17327D01*
X5112Y17306D01*
X5121Y17287D01*
X5134Y17270D01*
X5149Y17255D01*
X5166Y17242D01*
X5185Y17233D01*
X5206Y17228D01*
X5227Y17226D01*
X5248Y17228D01*
X5269Y17233D01*
X5288Y17242D01*
X5305Y17255D01*
X5320Y17270D01*
X5333Y17287D01*
X5342Y17306D01*
X5347Y17327D01*
X5349Y17348D01*
X5545Y17323D02*
X5545Y17470D01*
X5545Y17323D02*
X5543Y17305D01*
X5538Y17288D01*
X5530Y17271D01*
X5519Y17257D01*
X5506Y17245D01*
X5491Y17235D01*
X5474Y17229D01*
X5456Y17225D01*
X5438Y17225D01*
X5420Y17229D01*
X5403Y17235D01*
X5388Y17245D01*
X5375Y17257D01*
X5364Y17271D01*
X5356Y17288D01*
X5351Y17305D01*
X5349Y17323D01*
X5349Y17421D01*
X6105Y17920D02*
X6545Y17920D01*
X6545Y17798D01*
X6543Y17777D01*
X6538Y17756D01*
X6529Y17737D01*
X6516Y17720D01*
X6501Y17705D01*
X6484Y17692D01*
X6465Y17683D01*
X6444Y17678D01*
X6423Y17676D01*
X6402Y17678D01*
X6381Y17683D01*
X6362Y17692D01*
X6345Y17705D01*
X6330Y17720D01*
X6317Y17737D01*
X6308Y17756D01*
X6303Y17777D01*
X6301Y17798D01*
X6301Y17920D01*
X6301Y17773D02*
X6105Y17676D01*
X6105Y17498D02*
X6545Y17205D01*
X6545Y17498D02*
X6105Y17205D01*
X7105Y17798D02*
X7545Y17798D01*
X7545Y17920D02*
X7545Y17676D01*
X7545Y17231D02*
X7105Y17524D01*
X7105Y17231D02*
X7545Y17524D01*
D11*
X8125Y17792D02*
X8127Y17775D01*
X8132Y17758D01*
X8140Y17743D01*
X8151Y17729D01*
X8165Y17718D01*
X8180Y17710D01*
X8197Y17705D01*
X8214Y17703D01*
X8125Y17792D02*
X8127Y17817D01*
X8131Y17841D01*
X8139Y17864D01*
X8150Y17886D01*
X8164Y17907D01*
X8181Y17925D01*
X8436Y17914D02*
X8453Y17912D01*
X8470Y17907D01*
X8485Y17899D01*
X8499Y17888D01*
X8510Y17874D01*
X8518Y17859D01*
X8523Y17842D01*
X8525Y17825D01*
X8524Y17804D01*
X8519Y17782D01*
X8513Y17762D01*
X8503Y17743D01*
X8492Y17725D01*
X8436Y17914D02*
X8417Y17912D01*
X8400Y17906D01*
X8383Y17897D01*
X8370Y17885D01*
X8358Y17870D01*
X8292Y17747D02*
X8280Y17732D01*
X8267Y17720D01*
X8250Y17711D01*
X8233Y17705D01*
X8214Y17703D01*
X8292Y17747D02*
X8358Y17869D01*
X8125Y17446D02*
X8125Y17357D01*
X8125Y17446D02*
X8127Y17463D01*
X8132Y17480D01*
X8140Y17495D01*
X8151Y17509D01*
X8165Y17520D01*
X8180Y17528D01*
X8197Y17533D01*
X8214Y17535D01*
X8436Y17535D01*
X8453Y17533D01*
X8470Y17528D01*
X8485Y17520D01*
X8499Y17509D01*
X8510Y17495D01*
X8518Y17480D01*
X8523Y17463D01*
X8525Y17446D01*
X8525Y17357D01*
X8525Y17182D02*
X8125Y17182D01*
X8125Y17004D01*
X9125Y17792D02*
X9127Y17775D01*
X9132Y17758D01*
X9140Y17743D01*
X9151Y17729D01*
X9165Y17718D01*
X9180Y17710D01*
X9197Y17705D01*
X9214Y17703D01*
X9125Y17792D02*
X9127Y17817D01*
X9131Y17841D01*
X9139Y17864D01*
X9150Y17886D01*
X9164Y17907D01*
X9181Y17925D01*
X9436Y17914D02*
X9453Y17912D01*
X9470Y17907D01*
X9485Y17899D01*
X9499Y17888D01*
X9510Y17874D01*
X9518Y17859D01*
X9523Y17842D01*
X9525Y17825D01*
X9524Y17804D01*
X9519Y17782D01*
X9513Y17762D01*
X9503Y17743D01*
X9492Y17725D01*
X9436Y17914D02*
X9417Y17912D01*
X9400Y17906D01*
X9383Y17897D01*
X9370Y17885D01*
X9358Y17870D01*
X9292Y17747D02*
X9280Y17732D01*
X9267Y17720D01*
X9250Y17711D01*
X9233Y17705D01*
X9214Y17703D01*
X9292Y17747D02*
X9358Y17869D01*
X9525Y17520D02*
X9125Y17520D01*
X9525Y17520D02*
X9525Y17409D01*
X9523Y17390D01*
X9518Y17371D01*
X9510Y17353D01*
X9499Y17338D01*
X9485Y17324D01*
X9469Y17313D01*
X9452Y17305D01*
X9433Y17300D01*
X9414Y17298D01*
X9236Y17298D01*
X9217Y17300D01*
X9198Y17305D01*
X9181Y17313D01*
X9165Y17324D01*
X9151Y17338D01*
X9140Y17354D01*
X9132Y17371D01*
X9127Y17390D01*
X9125Y17409D01*
X9125Y17520D01*
X9125Y17124D02*
X9525Y16990D01*
X9125Y16857D01*
X9225Y16890D02*
X9225Y17090D01*
D10*
X10105Y17773D02*
X10545Y17920D01*
X10545Y17627D02*
X10105Y17773D01*
X10227Y17446D02*
X10423Y17446D01*
X10423Y17445D02*
X10444Y17443D01*
X10465Y17438D01*
X10484Y17429D01*
X10501Y17416D01*
X10516Y17401D01*
X10529Y17384D01*
X10538Y17365D01*
X10543Y17344D01*
X10545Y17323D01*
X10543Y17302D01*
X10538Y17281D01*
X10529Y17262D01*
X10516Y17245D01*
X10501Y17230D01*
X10484Y17217D01*
X10465Y17208D01*
X10444Y17203D01*
X10423Y17201D01*
X10227Y17201D01*
X10206Y17203D01*
X10185Y17208D01*
X10166Y17217D01*
X10149Y17230D01*
X10134Y17245D01*
X10121Y17262D01*
X10112Y17281D01*
X10107Y17302D01*
X10105Y17323D01*
X10107Y17344D01*
X10112Y17365D01*
X10121Y17384D01*
X10134Y17401D01*
X10149Y17416D01*
X10166Y17429D01*
X10185Y17438D01*
X10206Y17443D01*
X10227Y17445D01*
X10227Y16981D02*
X10545Y16981D01*
X10227Y16980D02*
X10206Y16978D01*
X10185Y16973D01*
X10166Y16964D01*
X10149Y16951D01*
X10134Y16936D01*
X10121Y16919D01*
X10112Y16900D01*
X10107Y16879D01*
X10105Y16858D01*
X10107Y16837D01*
X10112Y16816D01*
X10121Y16797D01*
X10134Y16780D01*
X10149Y16765D01*
X10166Y16752D01*
X10185Y16743D01*
X10206Y16738D01*
X10227Y16736D01*
X10545Y16736D01*
X10545Y16423D02*
X10105Y16423D01*
X10545Y16546D02*
X10545Y16301D01*
X11349Y17676D02*
X11349Y17749D01*
X11349Y17676D02*
X11105Y17676D01*
X11105Y17822D01*
X11106Y17839D01*
X11111Y17856D01*
X11118Y17871D01*
X11128Y17885D01*
X11140Y17897D01*
X11154Y17907D01*
X11169Y17914D01*
X11186Y17919D01*
X11203Y17920D01*
X11447Y17920D01*
X11466Y17918D01*
X11485Y17913D01*
X11501Y17903D01*
X11516Y17891D01*
X11528Y17876D01*
X11538Y17860D01*
X11543Y17841D01*
X11545Y17822D01*
X11545Y17676D01*
X11545Y17440D02*
X11105Y17440D01*
X11105Y17196D02*
X11545Y17440D01*
X11545Y17196D02*
X11105Y17196D01*
X11105Y16960D02*
X11545Y16960D01*
X11545Y16838D01*
X11543Y16817D01*
X11538Y16796D01*
X11529Y16777D01*
X11516Y16760D01*
X11501Y16745D01*
X11484Y16732D01*
X11465Y16723D01*
X11444Y16718D01*
X11423Y16716D01*
X11227Y16716D01*
X11206Y16718D01*
X11185Y16723D01*
X11166Y16732D01*
X11149Y16745D01*
X11134Y16760D01*
X11121Y16777D01*
X11112Y16796D01*
X11107Y16817D01*
X11105Y16838D01*
X11105Y16960D01*
X12349Y17773D02*
X12349Y17920D01*
X12350Y17773D02*
X12349Y17756D01*
X12344Y17739D01*
X12337Y17724D01*
X12327Y17710D01*
X12315Y17698D01*
X12301Y17688D01*
X12286Y17681D01*
X12269Y17676D01*
X12252Y17675D01*
X12252Y17676D02*
X12227Y17676D01*
X12206Y17678D01*
X12185Y17683D01*
X12166Y17692D01*
X12149Y17705D01*
X12134Y17720D01*
X12121Y17737D01*
X12112Y17756D01*
X12107Y17777D01*
X12105Y17798D01*
X12107Y17819D01*
X12112Y17840D01*
X12121Y17859D01*
X12134Y17876D01*
X12149Y17891D01*
X12166Y17904D01*
X12185Y17913D01*
X12206Y17918D01*
X12227Y17920D01*
X12349Y17920D01*
X12375Y17918D01*
X12400Y17913D01*
X12424Y17905D01*
X12447Y17894D01*
X12468Y17879D01*
X12488Y17863D01*
X12504Y17843D01*
X12519Y17822D01*
X12530Y17799D01*
X12538Y17775D01*
X12543Y17750D01*
X12545Y17724D01*
X12105Y17470D02*
X12105Y17323D01*
X12107Y17304D01*
X12112Y17285D01*
X12122Y17269D01*
X12134Y17254D01*
X12149Y17242D01*
X12165Y17232D01*
X12184Y17227D01*
X12203Y17225D01*
X12203Y17226D02*
X12252Y17226D01*
X12252Y17225D02*
X12269Y17226D01*
X12286Y17231D01*
X12301Y17238D01*
X12315Y17248D01*
X12327Y17260D01*
X12337Y17274D01*
X12344Y17289D01*
X12349Y17306D01*
X12350Y17323D01*
X12349Y17323D02*
X12349Y17470D01*
X12545Y17470D01*
X12545Y17226D01*
X13435Y17676D02*
X13454Y17678D01*
X13473Y17683D01*
X13490Y17691D01*
X13506Y17702D01*
X13519Y17715D01*
X13530Y17731D01*
X13538Y17748D01*
X13543Y17767D01*
X13545Y17786D01*
X13543Y17808D01*
X13538Y17830D01*
X13530Y17850D01*
X13518Y17869D01*
X13504Y17886D01*
X13487Y17900D01*
X13468Y17912D01*
X13447Y17920D01*
X13350Y17713D02*
X13364Y17700D01*
X13380Y17690D01*
X13397Y17682D01*
X13416Y17678D01*
X13435Y17676D01*
X13349Y17712D02*
X13105Y17920D01*
X13105Y17676D01*
X13496Y17470D02*
X13545Y17470D01*
X13545Y17226D01*
X13105Y17348D01*
X14349Y17676D02*
X14349Y17749D01*
X14349Y17676D02*
X14105Y17676D01*
X14105Y17822D01*
X14106Y17839D01*
X14111Y17856D01*
X14118Y17871D01*
X14128Y17885D01*
X14140Y17897D01*
X14154Y17907D01*
X14169Y17914D01*
X14186Y17919D01*
X14203Y17920D01*
X14447Y17920D01*
X14466Y17918D01*
X14485Y17913D01*
X14501Y17903D01*
X14516Y17891D01*
X14528Y17876D01*
X14538Y17860D01*
X14543Y17841D01*
X14545Y17822D01*
X14545Y17676D01*
X14545Y17440D02*
X14105Y17440D01*
X14105Y17196D02*
X14545Y17440D01*
X14545Y17196D02*
X14105Y17196D01*
X14105Y16960D02*
X14545Y16960D01*
X14545Y16838D01*
X14543Y16817D01*
X14538Y16796D01*
X14529Y16777D01*
X14516Y16760D01*
X14501Y16745D01*
X14484Y16732D01*
X14465Y16723D01*
X14444Y16718D01*
X14423Y16716D01*
X14227Y16716D01*
X14206Y16718D01*
X14185Y16723D01*
X14166Y16732D01*
X14149Y16745D01*
X14134Y16760D01*
X14121Y16777D01*
X14112Y16796D01*
X14107Y16817D01*
X14105Y16838D01*
X14105Y16960D01*
D11*
X15281Y17658D02*
X15281Y17925D01*
X15147Y17792D02*
X15414Y17792D01*
X15125Y17471D02*
X15125Y17360D01*
X15127Y17341D01*
X15132Y17322D01*
X15140Y17305D01*
X15151Y17289D01*
X15165Y17275D01*
X15181Y17264D01*
X15198Y17256D01*
X15217Y17251D01*
X15236Y17249D01*
X15255Y17251D01*
X15274Y17256D01*
X15292Y17264D01*
X15307Y17275D01*
X15321Y17289D01*
X15332Y17305D01*
X15340Y17322D01*
X15345Y17341D01*
X15347Y17360D01*
X15525Y17337D02*
X15525Y17471D01*
X15525Y17337D02*
X15523Y17318D01*
X15517Y17301D01*
X15508Y17285D01*
X15496Y17271D01*
X15481Y17260D01*
X15464Y17252D01*
X15445Y17248D01*
X15427Y17248D01*
X15408Y17252D01*
X15392Y17260D01*
X15376Y17271D01*
X15364Y17285D01*
X15355Y17301D01*
X15349Y17318D01*
X15347Y17337D01*
X15347Y17426D01*
X15147Y17087D02*
X15125Y17087D01*
X15147Y17087D02*
X15147Y17065D01*
X15125Y17065D01*
X15125Y17087D01*
X15125Y16904D02*
X15125Y16793D01*
X15127Y16774D01*
X15132Y16755D01*
X15140Y16738D01*
X15151Y16722D01*
X15165Y16708D01*
X15181Y16697D01*
X15198Y16689D01*
X15217Y16684D01*
X15236Y16682D01*
X15255Y16684D01*
X15274Y16689D01*
X15292Y16697D01*
X15307Y16708D01*
X15321Y16722D01*
X15332Y16738D01*
X15340Y16755D01*
X15345Y16774D01*
X15347Y16793D01*
X15525Y16770D02*
X15525Y16904D01*
X15525Y16770D02*
X15523Y16751D01*
X15517Y16734D01*
X15508Y16718D01*
X15496Y16704D01*
X15481Y16693D01*
X15464Y16685D01*
X15445Y16681D01*
X15427Y16681D01*
X15408Y16685D01*
X15392Y16693D01*
X15376Y16704D01*
X15364Y16718D01*
X15355Y16734D01*
X15349Y16751D01*
X15347Y16770D01*
X15347Y16859D01*
X15525Y16521D02*
X15125Y16388D01*
X15525Y16254D01*
D10*
X16105Y17920D02*
X16545Y17920D01*
X16301Y17773D01*
X16545Y17627D01*
X16105Y17627D01*
X16227Y17401D02*
X16423Y17401D01*
X16423Y17400D02*
X16444Y17398D01*
X16465Y17393D01*
X16484Y17384D01*
X16501Y17371D01*
X16516Y17356D01*
X16529Y17339D01*
X16538Y17320D01*
X16543Y17299D01*
X16545Y17278D01*
X16543Y17257D01*
X16538Y17236D01*
X16529Y17217D01*
X16516Y17200D01*
X16501Y17185D01*
X16484Y17172D01*
X16465Y17163D01*
X16444Y17158D01*
X16423Y17156D01*
X16227Y17156D01*
X16206Y17158D01*
X16185Y17163D01*
X16166Y17172D01*
X16149Y17185D01*
X16134Y17200D01*
X16121Y17217D01*
X16112Y17236D01*
X16107Y17257D01*
X16105Y17278D01*
X16107Y17299D01*
X16112Y17320D01*
X16121Y17339D01*
X16134Y17356D01*
X16149Y17371D01*
X16166Y17384D01*
X16185Y17393D01*
X16206Y17398D01*
X16227Y17400D01*
X16105Y16819D02*
X16106Y16802D01*
X16111Y16785D01*
X16118Y16770D01*
X16128Y16756D01*
X16140Y16744D01*
X16154Y16734D01*
X16169Y16727D01*
X16186Y16722D01*
X16203Y16721D01*
X16105Y16819D02*
X16107Y16846D01*
X16112Y16873D01*
X16121Y16899D01*
X16133Y16923D01*
X16148Y16946D01*
X16166Y16966D01*
X16447Y16954D02*
X16464Y16953D01*
X16481Y16948D01*
X16496Y16941D01*
X16510Y16931D01*
X16522Y16919D01*
X16532Y16905D01*
X16539Y16890D01*
X16544Y16873D01*
X16545Y16856D01*
X16543Y16833D01*
X16539Y16809D01*
X16532Y16787D01*
X16521Y16766D01*
X16508Y16746D01*
X16447Y16953D02*
X16430Y16952D01*
X16413Y16947D01*
X16398Y16940D01*
X16384Y16930D01*
X16372Y16918D01*
X16362Y16904D01*
X16288Y16770D02*
X16278Y16756D01*
X16266Y16744D01*
X16252Y16734D01*
X16237Y16727D01*
X16220Y16722D01*
X16203Y16721D01*
X16288Y16770D02*
X16362Y16904D01*
X16545Y16498D02*
X16105Y16498D01*
X16105Y16547D02*
X16105Y16449D01*
X16545Y16449D02*
X16545Y16547D01*
X17105Y17920D02*
X17545Y17920D01*
X17301Y17773D01*
X17545Y17627D01*
X17105Y17627D01*
X17105Y17368D02*
X17545Y17368D01*
X17105Y17417D02*
X17105Y17319D01*
X17545Y17319D02*
X17545Y17417D01*
X17105Y16999D02*
X17106Y16982D01*
X17111Y16965D01*
X17118Y16950D01*
X17128Y16936D01*
X17140Y16924D01*
X17154Y16914D01*
X17169Y16907D01*
X17186Y16902D01*
X17203Y16901D01*
X17105Y16999D02*
X17107Y17026D01*
X17112Y17053D01*
X17121Y17079D01*
X17133Y17103D01*
X17148Y17126D01*
X17166Y17146D01*
X17447Y17134D02*
X17464Y17133D01*
X17481Y17128D01*
X17496Y17121D01*
X17510Y17111D01*
X17522Y17099D01*
X17532Y17085D01*
X17539Y17070D01*
X17544Y17053D01*
X17545Y17036D01*
X17543Y17013D01*
X17539Y16989D01*
X17532Y16967D01*
X17521Y16946D01*
X17508Y16926D01*
X17447Y17133D02*
X17430Y17132D01*
X17413Y17127D01*
X17398Y17120D01*
X17384Y17110D01*
X17372Y17098D01*
X17362Y17084D01*
X17288Y16950D02*
X17278Y16936D01*
X17266Y16924D01*
X17252Y16914D01*
X17237Y16907D01*
X17220Y16902D01*
X17203Y16901D01*
X17288Y16950D02*
X17362Y17084D01*
X17423Y16711D02*
X17227Y16711D01*
X17423Y16710D02*
X17444Y16708D01*
X17465Y16703D01*
X17484Y16694D01*
X17501Y16681D01*
X17516Y16666D01*
X17529Y16649D01*
X17538Y16630D01*
X17543Y16609D01*
X17545Y16588D01*
X17543Y16567D01*
X17538Y16546D01*
X17529Y16527D01*
X17516Y16510D01*
X17501Y16495D01*
X17484Y16482D01*
X17465Y16473D01*
X17444Y16468D01*
X17423Y16466D01*
X17227Y16466D01*
X17206Y16468D01*
X17185Y16473D01*
X17166Y16482D01*
X17149Y16495D01*
X17134Y16510D01*
X17121Y16527D01*
X17112Y16546D01*
X17107Y16567D01*
X17105Y16588D01*
X17107Y16609D01*
X17112Y16630D01*
X17121Y16649D01*
X17134Y16666D01*
X17149Y16681D01*
X17166Y16694D01*
X17185Y16703D01*
X17206Y16708D01*
X17227Y16710D01*
D11*
X18125Y17747D02*
X18125Y17836D01*
X18127Y17853D01*
X18132Y17870D01*
X18140Y17885D01*
X18151Y17899D01*
X18165Y17910D01*
X18180Y17918D01*
X18197Y17923D01*
X18214Y17925D01*
X18436Y17925D01*
X18453Y17923D01*
X18470Y17918D01*
X18485Y17910D01*
X18499Y17899D01*
X18510Y17885D01*
X18518Y17870D01*
X18523Y17853D01*
X18525Y17836D01*
X18525Y17747D01*
X18525Y17572D02*
X18125Y17572D01*
X18125Y17394D01*
X18125Y17214D02*
X18525Y17214D01*
X18525Y16992D02*
X18281Y17214D01*
X18369Y17126D02*
X18125Y16992D01*
D10*
X19105Y17724D02*
X19105Y17822D01*
X19106Y17839D01*
X19111Y17856D01*
X19118Y17871D01*
X19128Y17885D01*
X19140Y17897D01*
X19154Y17907D01*
X19169Y17914D01*
X19186Y17919D01*
X19203Y17920D01*
X19447Y17920D01*
X19466Y17918D01*
X19485Y17913D01*
X19501Y17903D01*
X19516Y17891D01*
X19528Y17876D01*
X19538Y17860D01*
X19543Y17841D01*
X19545Y17822D01*
X19545Y17724D01*
X19203Y17314D02*
X19186Y17315D01*
X19169Y17320D01*
X19154Y17327D01*
X19140Y17337D01*
X19128Y17349D01*
X19118Y17363D01*
X19111Y17378D01*
X19106Y17395D01*
X19105Y17412D01*
X19107Y17439D01*
X19112Y17466D01*
X19121Y17492D01*
X19133Y17516D01*
X19148Y17539D01*
X19166Y17559D01*
X19447Y17546D02*
X19464Y17545D01*
X19481Y17540D01*
X19496Y17533D01*
X19510Y17523D01*
X19522Y17511D01*
X19532Y17497D01*
X19539Y17482D01*
X19544Y17465D01*
X19545Y17448D01*
X19543Y17425D01*
X19539Y17401D01*
X19532Y17379D01*
X19521Y17358D01*
X19508Y17338D01*
X19362Y17497D02*
X19372Y17511D01*
X19384Y17523D01*
X19398Y17533D01*
X19413Y17540D01*
X19430Y17545D01*
X19447Y17546D01*
X19288Y17363D02*
X19278Y17349D01*
X19266Y17337D01*
X19252Y17327D01*
X19237Y17320D01*
X19220Y17315D01*
X19203Y17314D01*
X19288Y17363D02*
X19362Y17497D01*
X19447Y17123D02*
X19545Y17001D01*
X19105Y17001D01*
X19105Y17123D02*
X19105Y16879D01*
X20203Y17920D02*
X20545Y17822D01*
X20203Y17920D02*
X20203Y17676D01*
X20301Y17749D02*
X20105Y17749D01*
X20105Y17470D02*
X20105Y17323D01*
X20107Y17304D01*
X20112Y17285D01*
X20122Y17269D01*
X20134Y17254D01*
X20149Y17242D01*
X20165Y17232D01*
X20184Y17227D01*
X20203Y17225D01*
X20203Y17226D02*
X20252Y17226D01*
X20252Y17225D02*
X20269Y17226D01*
X20286Y17231D01*
X20301Y17238D01*
X20315Y17248D01*
X20327Y17260D01*
X20337Y17274D01*
X20344Y17289D01*
X20349Y17306D01*
X20350Y17323D01*
X20349Y17323D02*
X20349Y17470D01*
X20545Y17470D01*
X20545Y17226D01*
D11*
X21150Y17925D02*
X21500Y17808D01*
X21150Y17692D01*
X21238Y17721D02*
X21238Y17896D01*
X21150Y17546D02*
X21150Y17429D01*
X21152Y17412D01*
X21158Y17395D01*
X21167Y17380D01*
X21179Y17368D01*
X21194Y17359D01*
X21211Y17353D01*
X21228Y17351D01*
X21267Y17351D01*
X21282Y17352D01*
X21297Y17357D01*
X21310Y17364D01*
X21322Y17374D01*
X21332Y17386D01*
X21339Y17399D01*
X21344Y17414D01*
X21345Y17429D01*
X21344Y17429D02*
X21344Y17546D01*
X21500Y17546D01*
X21500Y17351D01*
X21539Y17047D02*
X21111Y17202D01*
X21247Y16897D02*
X21265Y16895D01*
X21282Y16890D01*
X21298Y16882D01*
X21312Y16872D01*
X21324Y16858D01*
X21334Y16843D01*
X21340Y16827D01*
X21344Y16809D01*
X21344Y16791D01*
X21340Y16773D01*
X21334Y16757D01*
X21324Y16742D01*
X21312Y16728D01*
X21298Y16718D01*
X21282Y16710D01*
X21265Y16705D01*
X21247Y16703D01*
X21229Y16705D01*
X21212Y16710D01*
X21196Y16718D01*
X21182Y16728D01*
X21170Y16742D01*
X21160Y16757D01*
X21154Y16773D01*
X21150Y16791D01*
X21150Y16809D01*
X21154Y16827D01*
X21160Y16843D01*
X21170Y16858D01*
X21182Y16872D01*
X21196Y16882D01*
X21212Y16890D01*
X21229Y16895D01*
X21247Y16897D01*
X21422Y16878D02*
X21438Y16876D01*
X21454Y16871D01*
X21468Y16863D01*
X21480Y16852D01*
X21490Y16839D01*
X21496Y16824D01*
X21500Y16808D01*
X21500Y16792D01*
X21496Y16776D01*
X21490Y16761D01*
X21480Y16748D01*
X21468Y16737D01*
X21454Y16729D01*
X21438Y16724D01*
X21422Y16722D01*
X21406Y16724D01*
X21390Y16729D01*
X21376Y16737D01*
X21364Y16748D01*
X21354Y16761D01*
X21348Y16776D01*
X21344Y16792D01*
X21344Y16808D01*
X21348Y16824D01*
X21354Y16839D01*
X21364Y16852D01*
X21376Y16863D01*
X21390Y16871D01*
X21406Y16876D01*
X21422Y16878D01*
X21344Y16538D02*
X21344Y16421D01*
X21345Y16421D02*
X21344Y16406D01*
X21339Y16391D01*
X21332Y16378D01*
X21322Y16366D01*
X21310Y16356D01*
X21297Y16349D01*
X21282Y16344D01*
X21267Y16343D01*
X21247Y16343D01*
X21229Y16345D01*
X21212Y16350D01*
X21196Y16358D01*
X21182Y16368D01*
X21170Y16382D01*
X21160Y16397D01*
X21154Y16413D01*
X21150Y16431D01*
X21150Y16449D01*
X21154Y16467D01*
X21160Y16483D01*
X21170Y16498D01*
X21182Y16512D01*
X21196Y16522D01*
X21212Y16530D01*
X21229Y16535D01*
X21247Y16537D01*
X21247Y16538D02*
X21344Y16538D01*
X21368Y16536D01*
X21392Y16530D01*
X21415Y16521D01*
X21436Y16508D01*
X21454Y16492D01*
X21470Y16474D01*
X21483Y16453D01*
X21492Y16430D01*
X21498Y16406D01*
X21500Y16382D01*
X5125Y7925D02*
X5125Y7747D01*
X5125Y7925D02*
X5525Y7925D01*
X5525Y7747D01*
X5347Y7792D02*
X5347Y7925D01*
X5525Y7575D02*
X5125Y7575D01*
X5125Y7353D02*
X5525Y7575D01*
X5525Y7353D02*
X5125Y7353D01*
D10*
X6105Y7773D02*
X6545Y7920D01*
X6545Y7627D02*
X6105Y7773D01*
X6349Y7422D02*
X6349Y7300D01*
X6347Y7279D01*
X6342Y7258D01*
X6333Y7239D01*
X6320Y7222D01*
X6305Y7207D01*
X6288Y7194D01*
X6269Y7185D01*
X6248Y7180D01*
X6227Y7178D01*
X6206Y7180D01*
X6185Y7185D01*
X6166Y7194D01*
X6149Y7207D01*
X6134Y7222D01*
X6121Y7239D01*
X6112Y7258D01*
X6107Y7279D01*
X6105Y7300D01*
X6105Y7422D01*
X6545Y7422D01*
X6545Y7300D01*
X6543Y7282D01*
X6538Y7265D01*
X6530Y7248D01*
X6519Y7234D01*
X6506Y7222D01*
X6491Y7212D01*
X6474Y7206D01*
X6456Y7202D01*
X6438Y7202D01*
X6420Y7206D01*
X6403Y7212D01*
X6388Y7222D01*
X6375Y7234D01*
X6364Y7248D01*
X6356Y7265D01*
X6351Y7282D01*
X6349Y7300D01*
X7105Y7773D02*
X7545Y7920D01*
X7545Y7627D02*
X7105Y7773D01*
X7105Y7413D02*
X7545Y7413D01*
X7105Y7462D02*
X7105Y7364D01*
X7545Y7364D02*
X7545Y7462D01*
X8276Y7627D02*
X8276Y7920D01*
X9276Y7920D02*
X9276Y7627D01*
X9129Y7773D02*
X9423Y7773D01*
X10105Y7871D02*
X10545Y7871D01*
X10105Y7920D02*
X10105Y7822D01*
X10545Y7822D02*
X10545Y7920D01*
X10545Y7618D02*
X10105Y7618D01*
X10545Y7618D02*
X10545Y7496D01*
X10543Y7475D01*
X10538Y7454D01*
X10529Y7435D01*
X10516Y7418D01*
X10501Y7403D01*
X10484Y7390D01*
X10465Y7381D01*
X10444Y7376D01*
X10423Y7374D01*
X10227Y7374D01*
X10206Y7376D01*
X10185Y7381D01*
X10166Y7390D01*
X10149Y7403D01*
X10134Y7418D01*
X10121Y7435D01*
X10112Y7454D01*
X10107Y7475D01*
X10105Y7496D01*
X10105Y7618D01*
D12*
X11341Y7774D02*
X11341Y7821D01*
X11341Y7774D02*
X11185Y7774D01*
X11185Y7868D01*
X11187Y7882D01*
X11191Y7895D01*
X11199Y7907D01*
X11208Y7916D01*
X11220Y7924D01*
X11233Y7928D01*
X11247Y7930D01*
X11403Y7930D01*
X11417Y7928D01*
X11430Y7924D01*
X11442Y7916D01*
X11451Y7907D01*
X11459Y7895D01*
X11463Y7882D01*
X11465Y7868D01*
X11465Y7774D01*
X11465Y7623D02*
X11185Y7623D01*
X11185Y7467D02*
X11465Y7623D01*
X11465Y7467D02*
X11185Y7467D01*
X11185Y7316D02*
X11465Y7316D01*
X11465Y7238D01*
X11464Y7223D01*
X11459Y7208D01*
X11452Y7195D01*
X11442Y7183D01*
X11430Y7173D01*
X11417Y7166D01*
X11402Y7161D01*
X11387Y7160D01*
X11263Y7160D01*
X11248Y7161D01*
X11233Y7166D01*
X11220Y7173D01*
X11208Y7183D01*
X11198Y7195D01*
X11191Y7208D01*
X11186Y7223D01*
X11185Y7238D01*
X11185Y7316D01*
D10*
X12276Y7627D02*
X12276Y7920D01*
X13325Y7920D02*
X13358Y7919D01*
X13391Y7914D01*
X13423Y7907D01*
X13454Y7896D01*
X13484Y7883D01*
X13501Y7875D01*
X13516Y7864D01*
X13528Y7850D01*
X13537Y7834D01*
X13543Y7816D01*
X13545Y7798D01*
X13543Y7780D01*
X13537Y7762D01*
X13528Y7746D01*
X13516Y7732D01*
X13501Y7721D01*
X13484Y7713D01*
X13484Y7712D02*
X13454Y7699D01*
X13423Y7688D01*
X13391Y7681D01*
X13358Y7676D01*
X13325Y7675D01*
X13325Y7920D02*
X13292Y7919D01*
X13260Y7914D01*
X13227Y7907D01*
X13196Y7896D01*
X13166Y7883D01*
X13149Y7875D01*
X13134Y7864D01*
X13122Y7850D01*
X13113Y7834D01*
X13107Y7816D01*
X13105Y7798D01*
X13166Y7712D02*
X13196Y7699D01*
X13227Y7688D01*
X13259Y7681D01*
X13292Y7676D01*
X13325Y7675D01*
X13166Y7713D02*
X13149Y7721D01*
X13134Y7732D01*
X13122Y7746D01*
X13113Y7762D01*
X13107Y7780D01*
X13105Y7798D01*
X13203Y7896D02*
X13447Y7700D01*
X14447Y7920D02*
X14545Y7798D01*
X14105Y7798D01*
X14105Y7920D02*
X14105Y7676D01*
X15435Y7676D02*
X15454Y7678D01*
X15473Y7683D01*
X15490Y7691D01*
X15506Y7702D01*
X15519Y7715D01*
X15530Y7731D01*
X15538Y7748D01*
X15543Y7767D01*
X15545Y7786D01*
X15543Y7808D01*
X15538Y7830D01*
X15530Y7850D01*
X15518Y7869D01*
X15504Y7886D01*
X15487Y7900D01*
X15468Y7912D01*
X15447Y7920D01*
X15350Y7713D02*
X15364Y7700D01*
X15380Y7690D01*
X15397Y7682D01*
X15416Y7678D01*
X15435Y7676D01*
X15349Y7712D02*
X15105Y7920D01*
X15105Y7676D01*
X16105Y7798D02*
X16105Y7920D01*
X16105Y7798D02*
X16107Y7777D01*
X16112Y7756D01*
X16121Y7737D01*
X16134Y7720D01*
X16149Y7705D01*
X16166Y7692D01*
X16185Y7683D01*
X16206Y7678D01*
X16227Y7676D01*
X16248Y7678D01*
X16269Y7683D01*
X16288Y7692D01*
X16305Y7705D01*
X16320Y7720D01*
X16333Y7737D01*
X16342Y7756D01*
X16347Y7777D01*
X16349Y7798D01*
X16545Y7773D02*
X16545Y7920D01*
X16545Y7773D02*
X16543Y7755D01*
X16538Y7738D01*
X16530Y7721D01*
X16519Y7707D01*
X16506Y7695D01*
X16491Y7685D01*
X16474Y7679D01*
X16456Y7675D01*
X16438Y7675D01*
X16420Y7679D01*
X16403Y7685D01*
X16388Y7695D01*
X16375Y7707D01*
X16364Y7721D01*
X16356Y7738D01*
X16351Y7755D01*
X16349Y7773D01*
X16349Y7871D01*
X17203Y7920D02*
X17545Y7822D01*
X17203Y7920D02*
X17203Y7676D01*
X17301Y7749D02*
X17105Y7749D01*
X18496Y7920D02*
X18545Y7920D01*
X18545Y7676D01*
X18105Y7798D01*
X19203Y7920D02*
X19545Y7822D01*
X19203Y7920D02*
X19203Y7676D01*
X19301Y7749D02*
X19105Y7749D01*
X20447Y7920D02*
X20545Y7798D01*
X20105Y7798D01*
X20105Y7920D02*
X20105Y7676D01*
X22130Y10031D02*
X22570Y10031D01*
X22570Y9909D01*
X22568Y9888D01*
X22563Y9867D01*
X22554Y9848D01*
X22541Y9831D01*
X22526Y9816D01*
X22509Y9803D01*
X22490Y9794D01*
X22469Y9789D01*
X22448Y9787D01*
X22427Y9789D01*
X22406Y9794D01*
X22387Y9803D01*
X22370Y9816D01*
X22355Y9831D01*
X22342Y9848D01*
X22333Y9867D01*
X22328Y9888D01*
X22326Y9909D01*
X22326Y10031D01*
X22472Y9604D02*
X22570Y9482D01*
X22130Y9482D01*
X22130Y9604D02*
X22130Y9360D01*
X22130Y9179D02*
X22154Y9179D01*
X22154Y9155D01*
X22130Y9155D01*
X22130Y9179D01*
X22472Y8974D02*
X22570Y8852D01*
X22130Y8852D01*
X22130Y8974D02*
X22130Y8730D01*
X22350Y8525D02*
X22383Y8524D01*
X22416Y8519D01*
X22448Y8512D01*
X22479Y8501D01*
X22509Y8488D01*
X22509Y8487D02*
X22526Y8479D01*
X22541Y8468D01*
X22553Y8454D01*
X22562Y8438D01*
X22568Y8420D01*
X22570Y8402D01*
X22568Y8384D01*
X22562Y8366D01*
X22553Y8350D01*
X22541Y8336D01*
X22526Y8325D01*
X22509Y8317D01*
X22479Y8304D01*
X22448Y8293D01*
X22416Y8286D01*
X22383Y8281D01*
X22350Y8280D01*
X22350Y8525D02*
X22317Y8524D01*
X22285Y8519D01*
X22252Y8512D01*
X22221Y8501D01*
X22191Y8488D01*
X22191Y8487D02*
X22174Y8479D01*
X22159Y8468D01*
X22147Y8454D01*
X22138Y8438D01*
X22132Y8420D01*
X22130Y8402D01*
X22191Y8317D02*
X22221Y8304D01*
X22252Y8293D01*
X22284Y8286D01*
X22317Y8281D01*
X22350Y8280D01*
X22191Y8317D02*
X22174Y8325D01*
X22159Y8336D01*
X22147Y8350D01*
X22138Y8366D01*
X22132Y8384D01*
X22130Y8402D01*
X22228Y8500D02*
X22472Y8304D01*
D11*
X21500Y11578D02*
X21150Y11578D01*
X21500Y11578D02*
X21500Y11481D01*
X21498Y11463D01*
X21493Y11446D01*
X21485Y11430D01*
X21475Y11416D01*
X21461Y11404D01*
X21446Y11394D01*
X21430Y11388D01*
X21412Y11384D01*
X21394Y11384D01*
X21376Y11388D01*
X21360Y11394D01*
X21345Y11404D01*
X21331Y11416D01*
X21321Y11430D01*
X21313Y11446D01*
X21308Y11463D01*
X21306Y11481D01*
X21306Y11578D01*
X21500Y11247D02*
X21150Y11169D01*
X21383Y11092D01*
X21150Y11014D01*
X21500Y10936D01*
X21500Y10764D02*
X21150Y10764D01*
X21306Y10648D02*
X21500Y10764D01*
X21306Y10648D02*
X21500Y10531D01*
X21150Y10531D01*
X21325Y10348D02*
X21358Y10346D01*
X21390Y10341D01*
X21421Y10331D01*
X21451Y10319D01*
X21451Y10320D02*
X21465Y10314D01*
X21477Y10305D01*
X21487Y10294D01*
X21494Y10281D01*
X21498Y10267D01*
X21500Y10252D01*
X21498Y10237D01*
X21494Y10223D01*
X21487Y10210D01*
X21477Y10199D01*
X21465Y10190D01*
X21451Y10184D01*
X21421Y10172D01*
X21390Y10162D01*
X21358Y10157D01*
X21325Y10155D01*
X21325Y10348D02*
X21292Y10346D01*
X21260Y10341D01*
X21229Y10331D01*
X21199Y10319D01*
X21199Y10320D02*
X21185Y10314D01*
X21173Y10305D01*
X21163Y10294D01*
X21156Y10281D01*
X21152Y10267D01*
X21150Y10252D01*
X21199Y10184D02*
X21229Y10172D01*
X21260Y10162D01*
X21292Y10157D01*
X21325Y10155D01*
X21199Y10184D02*
X21185Y10190D01*
X21173Y10199D01*
X21163Y10210D01*
X21156Y10223D01*
X21152Y10237D01*
X21150Y10252D01*
X21228Y10329D02*
X21422Y10174D01*
X21500Y9892D02*
X21150Y10008D01*
X21150Y9775D02*
X21500Y9892D01*
X21238Y9804D02*
X21238Y9979D01*
D10*
X3570Y9584D02*
X3130Y9437D01*
X3570Y9291D01*
X3570Y9077D02*
X3130Y9077D01*
X3130Y9126D02*
X3130Y9028D01*
X3570Y9028D02*
X3570Y9126D01*
X3570Y8824D02*
X3130Y8824D01*
X3130Y8580D02*
X3570Y8824D01*
X3570Y8580D02*
X3130Y8580D01*
D11*
X18629Y7475D02*
X18629Y7125D01*
X18629Y7475D02*
X18726Y7475D01*
X18744Y7473D01*
X18761Y7468D01*
X18777Y7460D01*
X18791Y7450D01*
X18803Y7436D01*
X18813Y7421D01*
X18819Y7405D01*
X18823Y7387D01*
X18823Y7369D01*
X18819Y7351D01*
X18813Y7335D01*
X18803Y7320D01*
X18791Y7306D01*
X18777Y7296D01*
X18761Y7288D01*
X18744Y7283D01*
X18726Y7281D01*
X18629Y7281D01*
X18985Y7125D02*
X18985Y7475D01*
X19083Y7475D01*
X19101Y7473D01*
X19118Y7468D01*
X19134Y7460D01*
X19148Y7450D01*
X19160Y7436D01*
X19170Y7421D01*
X19176Y7405D01*
X19180Y7387D01*
X19180Y7369D01*
X19176Y7351D01*
X19170Y7335D01*
X19160Y7320D01*
X19148Y7306D01*
X19134Y7296D01*
X19118Y7288D01*
X19101Y7283D01*
X19083Y7281D01*
X18985Y7281D01*
X19102Y7281D02*
X19180Y7125D01*
X19354Y7222D02*
X19354Y7475D01*
X19355Y7222D02*
X19357Y7204D01*
X19362Y7187D01*
X19370Y7171D01*
X19380Y7157D01*
X19394Y7145D01*
X19409Y7135D01*
X19425Y7129D01*
X19443Y7125D01*
X19461Y7125D01*
X19479Y7129D01*
X19495Y7135D01*
X19510Y7145D01*
X19524Y7157D01*
X19534Y7171D01*
X19542Y7187D01*
X19547Y7204D01*
X19549Y7222D01*
X19549Y7475D01*
X19756Y7426D02*
X19744Y7396D01*
X19734Y7365D01*
X19729Y7333D01*
X19727Y7300D01*
X19756Y7426D02*
X19762Y7440D01*
X19771Y7452D01*
X19782Y7462D01*
X19795Y7469D01*
X19809Y7473D01*
X19824Y7475D01*
X19839Y7473D01*
X19853Y7469D01*
X19866Y7462D01*
X19877Y7452D01*
X19886Y7440D01*
X19892Y7426D01*
X19891Y7426D02*
X19903Y7396D01*
X19913Y7365D01*
X19918Y7333D01*
X19920Y7300D01*
X19727Y7300D02*
X19729Y7267D01*
X19734Y7235D01*
X19744Y7204D01*
X19756Y7174D01*
X19762Y7160D01*
X19771Y7148D01*
X19782Y7138D01*
X19795Y7131D01*
X19809Y7127D01*
X19824Y7125D01*
X19891Y7174D02*
X19903Y7204D01*
X19913Y7235D01*
X19918Y7267D01*
X19920Y7300D01*
X19892Y7174D02*
X19886Y7160D01*
X19877Y7148D01*
X19866Y7138D01*
X19853Y7131D01*
X19839Y7127D01*
X19824Y7125D01*
X19746Y7203D02*
X19901Y7397D01*
X18204Y20300D02*
X18204Y20650D01*
X18301Y20650D01*
X18319Y20648D01*
X18336Y20643D01*
X18352Y20635D01*
X18366Y20625D01*
X18378Y20611D01*
X18388Y20596D01*
X18394Y20580D01*
X18398Y20562D01*
X18398Y20544D01*
X18394Y20526D01*
X18388Y20510D01*
X18378Y20495D01*
X18366Y20481D01*
X18352Y20471D01*
X18336Y20463D01*
X18319Y20458D01*
X18301Y20456D01*
X18204Y20456D01*
X18560Y20300D02*
X18560Y20650D01*
X18658Y20650D01*
X18676Y20648D01*
X18693Y20643D01*
X18709Y20635D01*
X18723Y20625D01*
X18735Y20611D01*
X18745Y20596D01*
X18751Y20580D01*
X18755Y20562D01*
X18755Y20544D01*
X18751Y20526D01*
X18745Y20510D01*
X18735Y20495D01*
X18723Y20481D01*
X18709Y20471D01*
X18693Y20463D01*
X18676Y20458D01*
X18658Y20456D01*
X18560Y20456D01*
X18677Y20456D02*
X18755Y20300D01*
X18929Y20397D02*
X18929Y20650D01*
X18930Y20397D02*
X18932Y20379D01*
X18937Y20362D01*
X18945Y20346D01*
X18955Y20332D01*
X18969Y20320D01*
X18984Y20310D01*
X19000Y20304D01*
X19018Y20300D01*
X19036Y20300D01*
X19054Y20304D01*
X19070Y20310D01*
X19085Y20320D01*
X19099Y20332D01*
X19109Y20346D01*
X19117Y20362D01*
X19122Y20379D01*
X19124Y20397D01*
X19124Y20650D01*
X19331Y20601D02*
X19319Y20571D01*
X19309Y20540D01*
X19304Y20508D01*
X19302Y20475D01*
X19331Y20601D02*
X19337Y20615D01*
X19346Y20627D01*
X19357Y20637D01*
X19370Y20644D01*
X19384Y20648D01*
X19399Y20650D01*
X19414Y20648D01*
X19428Y20644D01*
X19441Y20637D01*
X19452Y20627D01*
X19461Y20615D01*
X19467Y20601D01*
X19466Y20601D02*
X19478Y20571D01*
X19488Y20540D01*
X19493Y20508D01*
X19495Y20475D01*
X19302Y20475D02*
X19304Y20442D01*
X19309Y20410D01*
X19319Y20379D01*
X19331Y20349D01*
X19337Y20335D01*
X19346Y20323D01*
X19357Y20313D01*
X19370Y20306D01*
X19384Y20302D01*
X19399Y20300D01*
X19466Y20349D02*
X19478Y20379D01*
X19488Y20410D01*
X19493Y20442D01*
X19495Y20475D01*
X19467Y20349D02*
X19461Y20335D01*
X19452Y20323D01*
X19441Y20313D01*
X19428Y20306D01*
X19414Y20302D01*
X19399Y20300D01*
X19321Y20378D02*
X19476Y20572D01*
X10461Y20494D02*
X10364Y20494D01*
X10461Y20494D02*
X10479Y20492D01*
X10496Y20487D01*
X10512Y20479D01*
X10526Y20469D01*
X10538Y20455D01*
X10548Y20440D01*
X10554Y20424D01*
X10558Y20406D01*
X10558Y20388D01*
X10554Y20370D01*
X10548Y20354D01*
X10538Y20339D01*
X10526Y20325D01*
X10512Y20315D01*
X10496Y20307D01*
X10479Y20302D01*
X10461Y20300D01*
X10364Y20300D01*
X10364Y20650D01*
X10461Y20650D01*
X10477Y20648D01*
X10493Y20643D01*
X10507Y20635D01*
X10519Y20624D01*
X10529Y20611D01*
X10535Y20596D01*
X10539Y20580D01*
X10539Y20564D01*
X10535Y20548D01*
X10529Y20533D01*
X10519Y20520D01*
X10507Y20509D01*
X10493Y20501D01*
X10477Y20496D01*
X10461Y20494D01*
X10686Y20300D02*
X10803Y20650D01*
X10919Y20300D01*
X10890Y20388D02*
X10715Y20388D01*
X11139Y20300D02*
X11139Y20650D01*
X11236Y20650D02*
X11041Y20650D01*
D13*
X21830Y18890D02*
X21830Y17190D01*
X21830Y15990D01*
X5830Y18890D02*
X4830Y18890D01*
X3830Y18890D01*
X3830Y8890D02*
X4830Y8890D01*
X3830Y8890D02*
X3830Y10590D01*
X3830Y11790D01*
X4830Y11790D02*
X5830Y11790D01*
X4830Y11790D02*
X3830Y11790D01*
X5830Y11790D02*
X9830Y11790D01*
X9830Y8890D01*
D11*
X6460Y11328D02*
X6459Y11313D01*
X6454Y11298D01*
X6447Y11285D01*
X6437Y11273D01*
X6425Y11263D01*
X6412Y11256D01*
X6397Y11251D01*
X6382Y11250D01*
X6360Y11251D01*
X6339Y11256D01*
X6319Y11263D01*
X6300Y11272D01*
X6282Y11284D01*
X6266Y11299D01*
X6275Y11522D02*
X6276Y11537D01*
X6281Y11552D01*
X6288Y11565D01*
X6298Y11577D01*
X6310Y11587D01*
X6323Y11594D01*
X6338Y11599D01*
X6353Y11600D01*
X6376Y11598D01*
X6399Y11593D01*
X6421Y11583D01*
X6441Y11571D01*
X6314Y11454D02*
X6301Y11464D01*
X6290Y11476D01*
X6282Y11490D01*
X6277Y11506D01*
X6275Y11522D01*
X6421Y11396D02*
X6434Y11386D01*
X6445Y11374D01*
X6453Y11360D01*
X6458Y11344D01*
X6460Y11328D01*
X6421Y11396D02*
X6314Y11454D01*
X6633Y11600D02*
X6633Y11250D01*
X6633Y11600D02*
X6730Y11600D01*
X6748Y11598D01*
X6765Y11593D01*
X6781Y11585D01*
X6795Y11575D01*
X6807Y11561D01*
X6817Y11546D01*
X6823Y11530D01*
X6827Y11512D01*
X6827Y11494D01*
X6823Y11476D01*
X6817Y11460D01*
X6807Y11445D01*
X6795Y11431D01*
X6781Y11421D01*
X6765Y11413D01*
X6748Y11408D01*
X6730Y11406D01*
X6633Y11406D01*
X6999Y11250D02*
X6999Y11600D01*
X6960Y11250D02*
X7038Y11250D01*
X7038Y11600D02*
X6960Y11600D01*
X7219Y11551D02*
X7207Y11521D01*
X7197Y11490D01*
X7192Y11458D01*
X7190Y11425D01*
X7219Y11551D02*
X7225Y11565D01*
X7234Y11577D01*
X7245Y11587D01*
X7258Y11594D01*
X7272Y11598D01*
X7287Y11600D01*
X7302Y11598D01*
X7316Y11594D01*
X7329Y11587D01*
X7340Y11577D01*
X7349Y11565D01*
X7355Y11551D01*
X7367Y11521D01*
X7377Y11490D01*
X7382Y11458D01*
X7384Y11425D01*
X7190Y11425D02*
X7192Y11392D01*
X7197Y11360D01*
X7207Y11329D01*
X7219Y11299D01*
X7225Y11285D01*
X7234Y11273D01*
X7245Y11263D01*
X7258Y11256D01*
X7272Y11252D01*
X7287Y11250D01*
X7355Y11299D02*
X7367Y11329D01*
X7377Y11360D01*
X7382Y11392D01*
X7384Y11425D01*
X7355Y11299D02*
X7349Y11285D01*
X7340Y11273D01*
X7329Y11263D01*
X7316Y11256D01*
X7302Y11252D01*
X7287Y11250D01*
X7209Y11328D02*
X7365Y11522D01*
X8294Y7475D02*
X8294Y7222D01*
X8296Y7204D01*
X8301Y7187D01*
X8309Y7171D01*
X8319Y7157D01*
X8333Y7145D01*
X8348Y7135D01*
X8364Y7129D01*
X8382Y7125D01*
X8400Y7125D01*
X8418Y7129D01*
X8434Y7135D01*
X8449Y7145D01*
X8463Y7157D01*
X8473Y7171D01*
X8481Y7187D01*
X8486Y7204D01*
X8488Y7222D01*
X8488Y7475D01*
X8770Y7125D02*
X8785Y7126D01*
X8800Y7131D01*
X8813Y7138D01*
X8825Y7148D01*
X8835Y7160D01*
X8842Y7173D01*
X8847Y7188D01*
X8848Y7203D01*
X8770Y7125D02*
X8748Y7126D01*
X8727Y7131D01*
X8707Y7138D01*
X8688Y7147D01*
X8670Y7159D01*
X8654Y7174D01*
X8663Y7397D02*
X8664Y7412D01*
X8669Y7427D01*
X8676Y7440D01*
X8686Y7452D01*
X8698Y7462D01*
X8711Y7469D01*
X8726Y7474D01*
X8741Y7475D01*
X8764Y7473D01*
X8787Y7468D01*
X8809Y7458D01*
X8829Y7446D01*
X8702Y7329D02*
X8689Y7339D01*
X8678Y7351D01*
X8670Y7365D01*
X8665Y7381D01*
X8663Y7397D01*
X8809Y7271D02*
X8822Y7261D01*
X8833Y7249D01*
X8841Y7235D01*
X8846Y7219D01*
X8848Y7203D01*
X8809Y7271D02*
X8702Y7329D01*
X9021Y7319D02*
X9118Y7319D01*
X9136Y7317D01*
X9153Y7312D01*
X9169Y7304D01*
X9183Y7294D01*
X9195Y7280D01*
X9205Y7265D01*
X9211Y7249D01*
X9215Y7231D01*
X9215Y7213D01*
X9211Y7195D01*
X9205Y7179D01*
X9195Y7164D01*
X9183Y7150D01*
X9169Y7140D01*
X9153Y7132D01*
X9136Y7127D01*
X9118Y7125D01*
X9021Y7125D01*
X9021Y7475D01*
X9118Y7475D01*
X9134Y7473D01*
X9150Y7468D01*
X9164Y7460D01*
X9176Y7449D01*
X9186Y7436D01*
X9192Y7421D01*
X9196Y7405D01*
X9196Y7389D01*
X9192Y7373D01*
X9186Y7358D01*
X9176Y7345D01*
X9164Y7334D01*
X9150Y7326D01*
X9134Y7321D01*
X9118Y7319D01*
X9362Y7397D02*
X9459Y7475D01*
X9459Y7125D01*
X9362Y7125D02*
X9556Y7125D01*
D13*
X10830Y11790D02*
X11830Y11790D01*
X10830Y11790D02*
X9830Y11790D01*
X11830Y11790D02*
X12830Y11790D01*
X13830Y11790D01*
X14830Y11790D01*
X15830Y11790D01*
X17830Y11790D01*
X19830Y11790D01*
X20830Y11790D01*
X21830Y11790D01*
X21830Y10590D02*
X21830Y8890D01*
X21830Y10590D02*
X21830Y11790D01*
X21830Y8890D02*
X20830Y8890D01*
X20830Y11790D01*
X21830Y10590D02*
X22830Y10590D01*
X22830Y8540D01*
D11*
X16322Y11250D02*
X16322Y11600D01*
X16283Y11250D02*
X16361Y11250D01*
X16361Y11600D02*
X16283Y11600D01*
X16620Y11601D02*
X16637Y11599D01*
X16654Y11594D01*
X16669Y11586D01*
X16682Y11575D01*
X16693Y11562D01*
X16701Y11547D01*
X16706Y11530D01*
X16708Y11513D01*
X16620Y11600D02*
X16600Y11598D01*
X16581Y11593D01*
X16563Y11584D01*
X16546Y11572D01*
X16532Y11558D01*
X16521Y11541D01*
X16513Y11523D01*
X16678Y11445D02*
X16690Y11459D01*
X16699Y11476D01*
X16705Y11494D01*
X16707Y11513D01*
X16678Y11444D02*
X16513Y11250D01*
X16707Y11250D01*
X16949Y11250D02*
X17027Y11250D01*
X16949Y11250D02*
X16934Y11251D01*
X16919Y11256D01*
X16906Y11263D01*
X16894Y11273D01*
X16884Y11285D01*
X16877Y11298D01*
X16872Y11313D01*
X16871Y11328D01*
X16871Y11522D01*
X16873Y11539D01*
X16879Y11556D01*
X16888Y11571D01*
X16900Y11583D01*
X16915Y11592D01*
X16932Y11598D01*
X16949Y11600D01*
X17027Y11600D01*
X17280Y11601D02*
X17297Y11599D01*
X17314Y11594D01*
X17329Y11586D01*
X17342Y11575D01*
X17353Y11562D01*
X17361Y11547D01*
X17366Y11530D01*
X17368Y11513D01*
X17280Y11600D02*
X17260Y11598D01*
X17241Y11593D01*
X17223Y11584D01*
X17206Y11572D01*
X17192Y11558D01*
X17181Y11541D01*
X17173Y11523D01*
X17338Y11445D02*
X17350Y11459D01*
X17359Y11476D01*
X17365Y11494D01*
X17367Y11513D01*
X17338Y11444D02*
X17173Y11250D01*
X17367Y11250D01*
D13*
X3830Y10590D02*
X2830Y10590D01*
X2830Y8540D01*
D11*
X18407Y16175D02*
X18422Y16176D01*
X18437Y16181D01*
X18450Y16188D01*
X18462Y16198D01*
X18472Y16210D01*
X18479Y16223D01*
X18484Y16238D01*
X18485Y16253D01*
X18407Y16175D02*
X18385Y16176D01*
X18364Y16181D01*
X18344Y16188D01*
X18325Y16197D01*
X18307Y16209D01*
X18291Y16224D01*
X18300Y16447D02*
X18301Y16462D01*
X18306Y16477D01*
X18313Y16490D01*
X18323Y16502D01*
X18335Y16512D01*
X18348Y16519D01*
X18363Y16524D01*
X18378Y16525D01*
X18401Y16523D01*
X18424Y16518D01*
X18446Y16508D01*
X18466Y16496D01*
X18339Y16379D02*
X18326Y16389D01*
X18315Y16401D01*
X18307Y16415D01*
X18302Y16431D01*
X18300Y16447D01*
X18446Y16321D02*
X18459Y16311D01*
X18470Y16299D01*
X18478Y16285D01*
X18483Y16269D01*
X18485Y16253D01*
X18446Y16321D02*
X18339Y16379D01*
X18658Y16525D02*
X18658Y16175D01*
X18658Y16525D02*
X18755Y16525D01*
X18773Y16523D01*
X18790Y16518D01*
X18806Y16510D01*
X18820Y16500D01*
X18832Y16486D01*
X18842Y16471D01*
X18848Y16455D01*
X18852Y16437D01*
X18852Y16419D01*
X18848Y16401D01*
X18842Y16385D01*
X18832Y16370D01*
X18820Y16356D01*
X18806Y16346D01*
X18790Y16338D01*
X18773Y16333D01*
X18755Y16331D01*
X18658Y16331D01*
X19024Y16175D02*
X19024Y16525D01*
X18985Y16175D02*
X19063Y16175D01*
X19063Y16525D02*
X18985Y16525D01*
X19215Y16447D02*
X19312Y16525D01*
X19312Y16175D01*
X19215Y16175D02*
X19409Y16175D01*
D13*
X19830Y15990D02*
X15830Y15990D01*
X19830Y15990D02*
X20830Y15990D01*
X21830Y15990D01*
X14830Y15990D02*
X13830Y15990D01*
X14830Y15990D02*
X15830Y15990D01*
X12830Y15990D02*
X11830Y15990D01*
X12830Y15990D02*
X13830Y15990D01*
X10830Y15990D02*
X9830Y15990D01*
X10830Y15990D02*
X11830Y15990D01*
X9830Y15990D02*
X7830Y15990D01*
X5830Y15990D01*
X4830Y15990D02*
X3830Y15990D01*
X4830Y15990D02*
X5830Y15990D01*
X3830Y17190D02*
X3830Y18890D01*
X3830Y17190D02*
X3830Y15990D01*
X3830Y17190D02*
X2830Y17190D01*
X2830Y19240D01*
X15830Y18890D02*
X15830Y20740D01*
X4830Y11790D02*
X4830Y8890D01*
X20830Y15990D02*
X20830Y18890D01*
X14830Y18890D02*
X14830Y15990D01*
X12830Y15990D02*
X12830Y18890D01*
X10830Y18890D02*
X10830Y15990D01*
X4830Y15990D02*
X4830Y18890D01*
X21830Y17190D02*
X22830Y17190D01*
X22830Y19240D01*
D11*
X8247Y16525D02*
X8247Y16175D01*
X8208Y16175D02*
X8286Y16175D01*
X8286Y16525D02*
X8208Y16525D01*
X8545Y16526D02*
X8562Y16524D01*
X8579Y16519D01*
X8594Y16511D01*
X8607Y16500D01*
X8618Y16487D01*
X8626Y16472D01*
X8631Y16455D01*
X8633Y16438D01*
X8545Y16525D02*
X8525Y16523D01*
X8506Y16518D01*
X8488Y16509D01*
X8471Y16497D01*
X8457Y16483D01*
X8446Y16466D01*
X8438Y16448D01*
X8603Y16370D02*
X8615Y16384D01*
X8624Y16401D01*
X8630Y16419D01*
X8632Y16438D01*
X8603Y16369D02*
X8438Y16175D01*
X8632Y16175D01*
X8874Y16175D02*
X8952Y16175D01*
X8874Y16175D02*
X8859Y16176D01*
X8844Y16181D01*
X8831Y16188D01*
X8819Y16198D01*
X8809Y16210D01*
X8802Y16223D01*
X8797Y16238D01*
X8796Y16253D01*
X8796Y16447D01*
X8798Y16464D01*
X8804Y16481D01*
X8813Y16496D01*
X8825Y16508D01*
X8840Y16517D01*
X8857Y16523D01*
X8874Y16525D01*
X8952Y16525D01*
X9098Y16447D02*
X9195Y16525D01*
X9195Y16175D01*
X9098Y16175D02*
X9292Y16175D01*
X6517Y16272D02*
X6517Y16525D01*
X6517Y16272D02*
X6519Y16254D01*
X6524Y16237D01*
X6532Y16221D01*
X6542Y16207D01*
X6556Y16195D01*
X6571Y16185D01*
X6587Y16179D01*
X6605Y16175D01*
X6623Y16175D01*
X6641Y16179D01*
X6657Y16185D01*
X6672Y16195D01*
X6686Y16207D01*
X6696Y16221D01*
X6704Y16237D01*
X6709Y16254D01*
X6711Y16272D01*
X6711Y16525D01*
X6967Y16525D02*
X6889Y16253D01*
X7083Y16253D01*
X7025Y16331D02*
X7025Y16175D01*
D14*
X22268Y11485D02*
X22268Y10915D01*
X22268Y11485D02*
X22426Y11485D01*
X22450Y11483D01*
X22473Y11478D01*
X22495Y11469D01*
X22515Y11458D01*
X22533Y11443D01*
X22550Y11426D01*
X22563Y11406D01*
X22573Y11385D01*
X22580Y11362D01*
X22584Y11339D01*
X22584Y11315D01*
X22580Y11292D01*
X22573Y11269D01*
X22563Y11248D01*
X22550Y11228D01*
X22533Y11211D01*
X22515Y11196D01*
X22495Y11185D01*
X22473Y11176D01*
X22450Y11171D01*
X22426Y11169D01*
X22426Y11168D02*
X22268Y11168D01*
X22816Y11358D02*
X22974Y11485D01*
X22974Y10915D01*
X22816Y10915D02*
X23132Y10915D01*
X22268Y16290D02*
X22268Y16860D01*
X22426Y16860D01*
X22450Y16858D01*
X22473Y16853D01*
X22495Y16844D01*
X22515Y16833D01*
X22533Y16818D01*
X22550Y16801D01*
X22563Y16781D01*
X22573Y16760D01*
X22580Y16737D01*
X22584Y16714D01*
X22584Y16690D01*
X22580Y16667D01*
X22573Y16644D01*
X22563Y16623D01*
X22550Y16603D01*
X22533Y16586D01*
X22515Y16571D01*
X22495Y16560D01*
X22473Y16551D01*
X22450Y16546D01*
X22426Y16544D01*
X22426Y16543D02*
X22268Y16543D01*
X22990Y16861D02*
X23012Y16859D01*
X23034Y16854D01*
X23055Y16845D01*
X23074Y16834D01*
X23091Y16819D01*
X23106Y16802D01*
X23117Y16783D01*
X23126Y16762D01*
X23131Y16740D01*
X23133Y16718D01*
X22990Y16860D02*
X22965Y16858D01*
X22940Y16853D01*
X22916Y16844D01*
X22893Y16832D01*
X22872Y16817D01*
X22854Y16799D01*
X22838Y16779D01*
X22825Y16757D01*
X22816Y16733D01*
X23085Y16607D02*
X23098Y16622D01*
X23110Y16639D01*
X23120Y16658D01*
X23126Y16677D01*
X23131Y16697D01*
X23132Y16718D01*
X23085Y16607D02*
X22816Y16290D01*
X23132Y16290D01*
D13*
X14830Y11790D02*
X14830Y8890D01*
X10830Y8890D02*
X10830Y11790D01*
D11*
X18542Y11600D02*
X18542Y11347D01*
X18544Y11329D01*
X18549Y11312D01*
X18557Y11296D01*
X18567Y11282D01*
X18581Y11270D01*
X18596Y11260D01*
X18612Y11254D01*
X18630Y11250D01*
X18648Y11250D01*
X18666Y11254D01*
X18682Y11260D01*
X18697Y11270D01*
X18711Y11282D01*
X18721Y11296D01*
X18729Y11312D01*
X18734Y11329D01*
X18736Y11347D01*
X18736Y11600D01*
X18943Y11551D02*
X18931Y11521D01*
X18921Y11490D01*
X18916Y11458D01*
X18914Y11425D01*
X18943Y11551D02*
X18949Y11565D01*
X18958Y11577D01*
X18969Y11587D01*
X18982Y11594D01*
X18996Y11598D01*
X19011Y11600D01*
X19026Y11598D01*
X19040Y11594D01*
X19053Y11587D01*
X19064Y11577D01*
X19073Y11565D01*
X19079Y11551D01*
X19091Y11521D01*
X19101Y11490D01*
X19106Y11458D01*
X19108Y11425D01*
X18914Y11425D02*
X18916Y11392D01*
X18921Y11360D01*
X18931Y11329D01*
X18943Y11299D01*
X18949Y11285D01*
X18958Y11273D01*
X18969Y11263D01*
X18982Y11256D01*
X18996Y11252D01*
X19011Y11250D01*
X19079Y11299D02*
X19091Y11329D01*
X19101Y11360D01*
X19106Y11392D01*
X19108Y11425D01*
X19079Y11299D02*
X19073Y11285D01*
X19064Y11273D01*
X19053Y11263D01*
X19040Y11256D01*
X19026Y11252D01*
X19011Y11250D01*
X18933Y11328D02*
X19089Y11522D01*
D13*
X4830Y18890D02*
X4830Y19690D01*
D15*
X23461Y1825D02*
X23463Y1837D01*
X23468Y1848D01*
X23477Y1857D01*
X23488Y1862D01*
X23500Y1864D01*
X23512Y1862D01*
X23523Y1857D01*
X23532Y1848D01*
X23537Y1837D01*
X23539Y1825D01*
X23537Y1813D01*
X23532Y1802D01*
X23523Y1793D01*
X23512Y1788D01*
X23500Y1786D01*
X23488Y1788D01*
X23477Y1793D01*
X23468Y1802D01*
X23463Y1813D01*
X23461Y1825D01*
D11*
X23063Y2602D02*
X23063Y5398D01*
X30937Y5398D02*
X30937Y2602D01*
D12*
X22773Y2976D02*
X22313Y2976D01*
X22773Y2976D02*
X22773Y3181D01*
X22428Y3606D02*
X22408Y3604D01*
X22389Y3599D01*
X22371Y3591D01*
X22354Y3579D01*
X22340Y3565D01*
X22328Y3549D01*
X22320Y3530D01*
X22315Y3511D01*
X22313Y3491D01*
X22315Y3468D01*
X22320Y3445D01*
X22329Y3424D01*
X22341Y3404D01*
X22356Y3386D01*
X22374Y3371D01*
X22394Y3359D01*
X22415Y3350D01*
X22518Y3568D02*
X22503Y3581D01*
X22486Y3592D01*
X22467Y3600D01*
X22448Y3604D01*
X22428Y3606D01*
X22518Y3568D02*
X22773Y3350D01*
X22773Y3606D01*
X22569Y3903D02*
X22569Y4056D01*
X22569Y3903D02*
X22567Y3885D01*
X22563Y3868D01*
X22555Y3852D01*
X22545Y3837D01*
X22533Y3825D01*
X22518Y3815D01*
X22502Y3807D01*
X22485Y3803D01*
X22467Y3801D01*
X22467Y3800D02*
X22441Y3800D01*
X22420Y3802D01*
X22399Y3807D01*
X22380Y3815D01*
X22362Y3827D01*
X22347Y3841D01*
X22334Y3858D01*
X22324Y3877D01*
X22317Y3897D01*
X22313Y3917D01*
X22313Y3939D01*
X22317Y3959D01*
X22324Y3979D01*
X22334Y3998D01*
X22347Y4015D01*
X22362Y4029D01*
X22380Y4041D01*
X22399Y4049D01*
X22420Y4054D01*
X22441Y4056D01*
X22569Y4056D01*
X22596Y4054D01*
X22622Y4049D01*
X22647Y4040D01*
X22671Y4029D01*
X22693Y4014D01*
X22713Y3996D01*
X22731Y3976D01*
X22746Y3954D01*
X22757Y3930D01*
X22766Y3905D01*
X22771Y3879D01*
X22773Y3852D01*
X22773Y4250D02*
X22773Y4378D01*
X22774Y4378D02*
X22772Y4399D01*
X22767Y4420D01*
X22759Y4439D01*
X22747Y4457D01*
X22733Y4472D01*
X22716Y4485D01*
X22697Y4495D01*
X22677Y4502D01*
X22657Y4506D01*
X22635Y4506D01*
X22615Y4502D01*
X22595Y4495D01*
X22576Y4485D01*
X22559Y4472D01*
X22545Y4457D01*
X22533Y4439D01*
X22525Y4420D01*
X22520Y4399D01*
X22518Y4378D01*
X22313Y4404D02*
X22313Y4250D01*
X22314Y4404D02*
X22316Y4423D01*
X22321Y4441D01*
X22329Y4458D01*
X22341Y4473D01*
X22355Y4485D01*
X22371Y4495D01*
X22388Y4502D01*
X22407Y4506D01*
X22425Y4506D01*
X22444Y4502D01*
X22461Y4495D01*
X22477Y4485D01*
X22491Y4473D01*
X22503Y4458D01*
X22511Y4441D01*
X22516Y4423D01*
X22518Y4404D01*
X22518Y4302D01*
X22313Y4715D02*
X22773Y4715D01*
X22313Y4715D02*
X22313Y4843D01*
X22315Y4863D01*
X22319Y4883D01*
X22327Y4901D01*
X22337Y4918D01*
X22350Y4934D01*
X22366Y4947D01*
X22383Y4957D01*
X22401Y4965D01*
X22421Y4969D01*
X22441Y4971D01*
X22646Y4971D01*
X22666Y4969D01*
X22686Y4965D01*
X22704Y4957D01*
X22721Y4947D01*
X22737Y4934D01*
X22750Y4918D01*
X22760Y4901D01*
X22768Y4883D01*
X22772Y4863D01*
X22774Y4843D01*
X22773Y4843D02*
X22773Y4715D01*
D10*
X19750Y4000D02*
X19500Y4250D01*
X19500Y4750D01*
X19750Y5000D01*
X20250Y5000D01*
X20500Y4750D01*
X20500Y4250D01*
X20250Y4000D01*
X19500Y2750D02*
X19500Y2250D01*
X19500Y2750D02*
X19750Y3000D01*
X20250Y3000D01*
X20500Y2750D01*
X19750Y3000D02*
X19500Y3250D01*
X19500Y3750D01*
X19750Y4000D01*
X20250Y4000D01*
X20500Y3750D01*
X20500Y3250D01*
X20250Y3000D01*
X20250Y2000D02*
X19750Y2000D01*
X19500Y2250D01*
X20250Y2000D02*
X20500Y2250D01*
X20500Y2750D01*
X19500Y5250D02*
X19500Y5750D01*
X19750Y6000D01*
X20250Y6000D01*
X20500Y5750D01*
X19750Y5000D02*
X19500Y5250D01*
X20250Y5000D02*
X20500Y5250D01*
X20500Y5750D01*
D11*
X19255Y1995D02*
X18805Y1995D01*
X19055Y2145D01*
X18805Y2295D01*
X19255Y2295D01*
X19130Y2515D02*
X18930Y2515D01*
X18909Y2517D01*
X18889Y2522D01*
X18871Y2530D01*
X18853Y2541D01*
X18838Y2555D01*
X18825Y2572D01*
X18816Y2590D01*
X18809Y2609D01*
X18805Y2630D01*
X18805Y2650D01*
X18809Y2671D01*
X18816Y2690D01*
X18825Y2708D01*
X18838Y2725D01*
X18853Y2739D01*
X18871Y2750D01*
X18889Y2758D01*
X18909Y2763D01*
X18930Y2765D01*
X19130Y2765D01*
X19151Y2763D01*
X19171Y2758D01*
X19189Y2750D01*
X19207Y2739D01*
X19222Y2725D01*
X19235Y2708D01*
X19244Y2690D01*
X19251Y2671D01*
X19255Y2650D01*
X19255Y2630D01*
X19251Y2609D01*
X19244Y2590D01*
X19235Y2572D01*
X19222Y2555D01*
X19207Y2541D01*
X19189Y2530D01*
X19171Y2522D01*
X19151Y2517D01*
X19130Y2515D01*
X19255Y3060D02*
X18805Y3060D01*
X18805Y2935D02*
X18805Y3185D01*
X18930Y3355D02*
X19130Y3355D01*
X18930Y3355D02*
X18909Y3357D01*
X18889Y3362D01*
X18871Y3370D01*
X18853Y3381D01*
X18838Y3395D01*
X18825Y3412D01*
X18816Y3430D01*
X18809Y3449D01*
X18805Y3470D01*
X18805Y3490D01*
X18809Y3511D01*
X18816Y3530D01*
X18825Y3548D01*
X18838Y3565D01*
X18853Y3579D01*
X18871Y3590D01*
X18889Y3598D01*
X18909Y3603D01*
X18930Y3605D01*
X19130Y3605D01*
X19151Y3603D01*
X19171Y3598D01*
X19189Y3590D01*
X19207Y3579D01*
X19222Y3565D01*
X19235Y3548D01*
X19244Y3530D01*
X19251Y3511D01*
X19255Y3490D01*
X19255Y3470D01*
X19251Y3449D01*
X19244Y3430D01*
X19235Y3412D01*
X19222Y3395D01*
X19207Y3381D01*
X19189Y3370D01*
X19171Y3362D01*
X19151Y3357D01*
X19130Y3355D01*
X19255Y3823D02*
X18805Y3823D01*
X18805Y3948D01*
X18807Y3969D01*
X18812Y3989D01*
X18820Y4007D01*
X18831Y4025D01*
X18845Y4040D01*
X18862Y4053D01*
X18880Y4062D01*
X18899Y4069D01*
X18920Y4073D01*
X18940Y4073D01*
X18961Y4069D01*
X18980Y4062D01*
X18998Y4053D01*
X19015Y4040D01*
X19029Y4025D01*
X19040Y4007D01*
X19048Y3989D01*
X19053Y3969D01*
X19055Y3948D01*
X19055Y3823D01*
X19055Y3973D02*
X19255Y4073D01*
X19305Y4250D02*
X19305Y4450D01*
X19130Y4630D02*
X18930Y4630D01*
X18909Y4632D01*
X18889Y4637D01*
X18871Y4645D01*
X18853Y4656D01*
X18838Y4670D01*
X18825Y4687D01*
X18816Y4705D01*
X18809Y4724D01*
X18805Y4745D01*
X18805Y4765D01*
X18809Y4786D01*
X18816Y4805D01*
X18825Y4823D01*
X18838Y4840D01*
X18853Y4854D01*
X18871Y4865D01*
X18889Y4873D01*
X18909Y4878D01*
X18930Y4880D01*
X19130Y4880D01*
X19151Y4878D01*
X19171Y4873D01*
X19189Y4865D01*
X19207Y4854D01*
X19222Y4840D01*
X19235Y4823D01*
X19244Y4805D01*
X19251Y4786D01*
X19255Y4765D01*
X19255Y4745D01*
X19251Y4724D01*
X19244Y4705D01*
X19235Y4687D01*
X19222Y4670D01*
X19207Y4656D01*
X19189Y4645D01*
X19171Y4637D01*
X19151Y4632D01*
X19130Y4630D01*
X19130Y5095D02*
X18805Y5095D01*
X19130Y5095D02*
X19151Y5097D01*
X19171Y5102D01*
X19189Y5110D01*
X19207Y5121D01*
X19222Y5135D01*
X19235Y5152D01*
X19244Y5170D01*
X19251Y5189D01*
X19255Y5210D01*
X19255Y5230D01*
X19251Y5251D01*
X19244Y5270D01*
X19235Y5288D01*
X19222Y5305D01*
X19207Y5319D01*
X19189Y5330D01*
X19171Y5338D01*
X19151Y5343D01*
X19130Y5345D01*
X18805Y5345D01*
X18805Y5655D02*
X19255Y5655D01*
X18805Y5530D02*
X18805Y5780D01*
D10*
X17500Y2250D02*
X17250Y2000D01*
X17500Y2750D02*
X17250Y3000D01*
X17500Y3250D01*
X17500Y3750D02*
X17250Y4000D01*
X17500Y4250D01*
X17500Y4750D02*
X17250Y5000D01*
X17250Y2000D02*
X15750Y2000D01*
X15500Y2250D01*
X15500Y2750D01*
X15750Y3000D01*
X15500Y3250D01*
X15500Y3750D01*
X15750Y4000D01*
X15500Y4250D01*
X15500Y4750D01*
X15750Y5000D01*
X15750Y3000D02*
X17250Y3000D01*
X17250Y4000D02*
X15750Y4000D01*
X15750Y5000D02*
X17250Y5000D01*
X17500Y4750D02*
X17500Y4250D01*
X17500Y3750D02*
X17500Y3250D01*
X17500Y2750D02*
X17500Y2250D01*
X17250Y5000D02*
X17500Y5250D01*
X17500Y5750D02*
X17250Y6000D01*
X15750Y5000D02*
X15500Y5250D01*
X15500Y5750D01*
X15750Y6000D01*
X17250Y6000D01*
X17500Y5750D02*
X17500Y5250D01*
D11*
X15225Y2925D02*
X14775Y2925D01*
X14775Y3125D01*
X14975Y3125D02*
X14975Y2925D01*
X14775Y3315D02*
X15225Y3315D01*
X15225Y3515D01*
X15225Y3705D02*
X15225Y3905D01*
X15225Y3705D02*
X14775Y3705D01*
X14775Y3905D01*
X14975Y3855D02*
X14975Y3705D01*
X15225Y4054D02*
X14775Y4354D01*
X14775Y4054D02*
X15225Y4354D01*
X15275Y4509D02*
X15275Y4709D01*
X15100Y4889D02*
X14900Y4889D01*
X14879Y4891D01*
X14859Y4896D01*
X14841Y4904D01*
X14823Y4915D01*
X14808Y4929D01*
X14795Y4946D01*
X14786Y4964D01*
X14779Y4983D01*
X14775Y5004D01*
X14775Y5024D01*
X14779Y5045D01*
X14786Y5064D01*
X14795Y5082D01*
X14808Y5099D01*
X14823Y5113D01*
X14841Y5124D01*
X14859Y5132D01*
X14879Y5137D01*
X14900Y5139D01*
X15100Y5139D01*
X15121Y5137D01*
X15141Y5132D01*
X15159Y5124D01*
X15177Y5113D01*
X15192Y5099D01*
X15205Y5082D01*
X15214Y5064D01*
X15221Y5045D01*
X15225Y5024D01*
X15225Y5004D01*
X15221Y4983D01*
X15214Y4964D01*
X15205Y4946D01*
X15192Y4929D01*
X15177Y4915D01*
X15159Y4904D01*
X15141Y4896D01*
X15121Y4891D01*
X15100Y4889D01*
D10*
X12750Y4000D02*
X12500Y4250D01*
X12500Y4750D01*
X12750Y5000D01*
X13250Y5000D01*
X13500Y4750D01*
X13500Y4250D01*
X13250Y4000D01*
X12500Y2750D02*
X12500Y2250D01*
X12500Y2750D02*
X12750Y3000D01*
X13250Y3000D01*
X13500Y2750D01*
X12750Y3000D02*
X12500Y3250D01*
X12500Y3750D01*
X12750Y4000D01*
X13250Y4000D01*
X13500Y3750D01*
X13500Y3250D01*
X13250Y3000D01*
X13250Y2000D02*
X12750Y2000D01*
X12500Y2250D01*
X13250Y2000D02*
X13500Y2250D01*
X13500Y2750D01*
X12500Y5250D02*
X12500Y5750D01*
X12750Y6000D01*
X13250Y6000D01*
X13500Y5750D01*
X12750Y5000D02*
X12500Y5250D01*
X13250Y5000D02*
X13500Y5250D01*
X13500Y5750D01*
D11*
X12255Y2695D02*
X11805Y2695D01*
X11805Y2820D01*
X11807Y2841D01*
X11812Y2861D01*
X11820Y2879D01*
X11831Y2897D01*
X11845Y2912D01*
X11862Y2925D01*
X11880Y2934D01*
X11899Y2941D01*
X11920Y2945D01*
X11940Y2945D01*
X11961Y2941D01*
X11980Y2934D01*
X11998Y2925D01*
X12015Y2912D01*
X12029Y2897D01*
X12040Y2879D01*
X12048Y2861D01*
X12053Y2841D01*
X12055Y2820D01*
X12055Y2695D01*
X12055Y2845D02*
X12255Y2945D01*
X12255Y3158D02*
X12255Y3358D01*
X12255Y3158D02*
X11805Y3158D01*
X11805Y3358D01*
X12005Y3308D02*
X12005Y3158D01*
X12255Y3667D02*
X12253Y3684D01*
X12249Y3701D01*
X12242Y3717D01*
X12232Y3731D01*
X12219Y3744D01*
X12205Y3754D01*
X12189Y3761D01*
X12172Y3765D01*
X12155Y3767D01*
X12255Y3667D02*
X12253Y3639D01*
X12248Y3612D01*
X12239Y3586D01*
X12226Y3561D01*
X12211Y3538D01*
X12193Y3517D01*
X11905Y3529D02*
X11888Y3531D01*
X11871Y3535D01*
X11855Y3542D01*
X11841Y3552D01*
X11828Y3565D01*
X11818Y3579D01*
X11811Y3595D01*
X11807Y3612D01*
X11805Y3629D01*
X11807Y3653D01*
X11811Y3677D01*
X11819Y3700D01*
X11829Y3722D01*
X11843Y3742D01*
X11905Y3529D02*
X11923Y3531D01*
X11940Y3535D01*
X11956Y3542D01*
X11970Y3552D01*
X11983Y3565D01*
X11993Y3579D01*
X12067Y3717D02*
X12077Y3731D01*
X12090Y3744D01*
X12104Y3754D01*
X12120Y3761D01*
X12137Y3765D01*
X12155Y3767D01*
X12068Y3717D02*
X11993Y3579D01*
X12305Y3932D02*
X12305Y4132D01*
X12130Y4312D02*
X11930Y4312D01*
X11909Y4314D01*
X11889Y4319D01*
X11871Y4327D01*
X11853Y4338D01*
X11838Y4352D01*
X11825Y4369D01*
X11816Y4387D01*
X11809Y4406D01*
X11805Y4427D01*
X11805Y4447D01*
X11809Y4468D01*
X11816Y4487D01*
X11825Y4505D01*
X11838Y4522D01*
X11853Y4536D01*
X11871Y4547D01*
X11889Y4555D01*
X11909Y4560D01*
X11930Y4562D01*
X12130Y4562D01*
X12151Y4560D01*
X12171Y4555D01*
X12189Y4547D01*
X12207Y4536D01*
X12222Y4522D01*
X12235Y4505D01*
X12244Y4487D01*
X12251Y4468D01*
X12255Y4447D01*
X12255Y4427D01*
X12251Y4406D01*
X12244Y4387D01*
X12235Y4369D01*
X12222Y4352D01*
X12207Y4338D01*
X12189Y4327D01*
X12171Y4319D01*
X12151Y4314D01*
X12130Y4312D01*
X12130Y4777D02*
X11805Y4777D01*
X12130Y4777D02*
X12151Y4779D01*
X12171Y4784D01*
X12189Y4792D01*
X12207Y4803D01*
X12222Y4817D01*
X12235Y4834D01*
X12244Y4852D01*
X12251Y4871D01*
X12255Y4892D01*
X12255Y4912D01*
X12251Y4933D01*
X12244Y4952D01*
X12235Y4970D01*
X12222Y4987D01*
X12207Y5001D01*
X12189Y5012D01*
X12171Y5020D01*
X12151Y5025D01*
X12130Y5027D01*
X11805Y5027D01*
X11805Y5337D02*
X12255Y5337D01*
X11805Y5212D02*
X11805Y5462D01*
D10*
X4250Y3500D02*
X4000Y3750D01*
X4000Y4250D01*
X4250Y4500D01*
X4750Y4500D01*
X5000Y4250D01*
X5000Y3750D01*
X4750Y3500D01*
X4000Y2250D02*
X4000Y1750D01*
X4000Y2250D02*
X4250Y2500D01*
X4750Y2500D01*
X5000Y2250D01*
X4250Y2500D02*
X4000Y2750D01*
X4000Y3250D01*
X4250Y3500D01*
X4750Y3500D01*
X5000Y3250D01*
X5000Y2750D01*
X4750Y2500D01*
X4750Y1500D02*
X4250Y1500D01*
X4000Y1750D01*
X4750Y1500D02*
X5000Y1750D01*
X5000Y2250D01*
X4000Y4750D02*
X4000Y5250D01*
X4250Y5500D01*
X4750Y5500D01*
X5000Y5250D01*
X4250Y4500D02*
X4000Y4750D01*
X4750Y4500D02*
X5000Y4750D01*
X5000Y5250D01*
D11*
X3505Y3345D02*
X3055Y3345D01*
X3055Y3470D01*
X3057Y3491D01*
X3062Y3511D01*
X3070Y3529D01*
X3081Y3547D01*
X3095Y3562D01*
X3112Y3575D01*
X3130Y3584D01*
X3149Y3591D01*
X3170Y3595D01*
X3190Y3595D01*
X3211Y3591D01*
X3230Y3584D01*
X3248Y3575D01*
X3265Y3562D01*
X3279Y3547D01*
X3290Y3529D01*
X3298Y3511D01*
X3303Y3491D01*
X3305Y3470D01*
X3305Y3345D01*
X3305Y3495D02*
X3505Y3595D01*
X3505Y3808D02*
X3505Y4008D01*
X3505Y3808D02*
X3055Y3808D01*
X3055Y4008D01*
X3255Y3958D02*
X3255Y3808D01*
X3505Y4317D02*
X3503Y4334D01*
X3499Y4351D01*
X3492Y4367D01*
X3482Y4381D01*
X3469Y4394D01*
X3455Y4404D01*
X3439Y4411D01*
X3422Y4415D01*
X3405Y4417D01*
X3505Y4317D02*
X3503Y4289D01*
X3498Y4262D01*
X3489Y4236D01*
X3476Y4211D01*
X3461Y4188D01*
X3443Y4167D01*
X3155Y4179D02*
X3138Y4181D01*
X3121Y4185D01*
X3105Y4192D01*
X3091Y4202D01*
X3078Y4215D01*
X3068Y4229D01*
X3061Y4245D01*
X3057Y4262D01*
X3055Y4279D01*
X3057Y4303D01*
X3061Y4327D01*
X3069Y4350D01*
X3079Y4372D01*
X3093Y4392D01*
X3155Y4179D02*
X3173Y4181D01*
X3190Y4185D01*
X3206Y4192D01*
X3220Y4202D01*
X3233Y4215D01*
X3243Y4229D01*
X3317Y4367D02*
X3327Y4381D01*
X3340Y4394D01*
X3354Y4404D01*
X3370Y4411D01*
X3387Y4415D01*
X3405Y4417D01*
X3318Y4367D02*
X3243Y4229D01*
X3555Y4582D02*
X3555Y4782D01*
X3255Y5152D02*
X3255Y5227D01*
X3505Y5227D01*
X3505Y5077D01*
X3503Y5060D01*
X3499Y5043D01*
X3492Y5027D01*
X3482Y5013D01*
X3469Y5000D01*
X3455Y4990D01*
X3439Y4983D01*
X3422Y4979D01*
X3405Y4977D01*
X3155Y4977D01*
X3138Y4979D01*
X3121Y4983D01*
X3105Y4990D01*
X3091Y5000D01*
X3078Y5013D01*
X3068Y5027D01*
X3061Y5043D01*
X3057Y5060D01*
X3055Y5077D01*
X3055Y5227D01*
X3055Y5457D02*
X3505Y5457D01*
X3505Y5707D02*
X3055Y5457D01*
X3055Y5707D02*
X3505Y5707D01*
X3505Y5937D02*
X3055Y5937D01*
X3055Y6062D01*
X3057Y6082D01*
X3061Y6101D01*
X3069Y6119D01*
X3079Y6135D01*
X3092Y6150D01*
X3107Y6163D01*
X3123Y6173D01*
X3141Y6181D01*
X3160Y6185D01*
X3180Y6187D01*
X3380Y6187D01*
X3400Y6185D01*
X3419Y6181D01*
X3437Y6173D01*
X3453Y6163D01*
X3468Y6150D01*
X3481Y6135D01*
X3491Y6119D01*
X3499Y6101D01*
X3503Y6082D01*
X3505Y6062D01*
X3505Y5937D01*
D10*
X7248Y6443D02*
X9752Y6443D01*
X9752Y5557D02*
X7248Y5557D01*
X9752Y5557D02*
X9752Y6443D01*
X7248Y6443D02*
X7248Y5557D01*
D16*
X9891Y6000D03*
X7109Y6000D03*
D11*
X5278Y5825D02*
X5278Y6275D01*
X5403Y6275D01*
X5424Y6273D01*
X5444Y6268D01*
X5462Y6260D01*
X5480Y6249D01*
X5495Y6235D01*
X5508Y6218D01*
X5517Y6200D01*
X5524Y6181D01*
X5528Y6160D01*
X5528Y6140D01*
X5524Y6119D01*
X5517Y6100D01*
X5508Y6082D01*
X5495Y6065D01*
X5480Y6051D01*
X5462Y6040D01*
X5444Y6032D01*
X5424Y6027D01*
X5403Y6025D01*
X5278Y6025D01*
X5428Y6025D02*
X5528Y5825D01*
X5725Y5925D02*
X5825Y6275D01*
X5725Y5925D02*
X5975Y5925D01*
X5900Y6025D02*
X5900Y5825D01*
D10*
X7248Y1943D02*
X9752Y1943D01*
X9752Y1057D02*
X7248Y1057D01*
X9752Y1057D02*
X9752Y1943D01*
X7248Y1943D02*
X7248Y1057D01*
D16*
X9891Y1500D03*
X7109Y1500D03*
D11*
X6178Y2025D02*
X6178Y2475D01*
X6303Y2475D01*
X6324Y2473D01*
X6344Y2468D01*
X6362Y2460D01*
X6380Y2449D01*
X6395Y2435D01*
X6408Y2418D01*
X6417Y2400D01*
X6424Y2381D01*
X6428Y2360D01*
X6428Y2340D01*
X6424Y2319D01*
X6417Y2300D01*
X6408Y2282D01*
X6395Y2265D01*
X6380Y2251D01*
X6362Y2240D01*
X6344Y2232D01*
X6324Y2227D01*
X6303Y2225D01*
X6178Y2225D01*
X6328Y2225D02*
X6428Y2025D01*
X6625Y2375D02*
X6750Y2475D01*
X6750Y2025D01*
X6625Y2025D02*
X6875Y2025D01*
D10*
X7248Y3443D02*
X9752Y3443D01*
X9752Y2557D02*
X7248Y2557D01*
X9752Y2557D02*
X9752Y3443D01*
X7248Y3443D02*
X7248Y2557D01*
D16*
X9891Y3000D03*
X7109Y3000D03*
D11*
X6178Y3425D02*
X6178Y3875D01*
X6303Y3875D01*
X6324Y3873D01*
X6344Y3868D01*
X6362Y3860D01*
X6380Y3849D01*
X6395Y3835D01*
X6408Y3818D01*
X6417Y3800D01*
X6424Y3781D01*
X6428Y3760D01*
X6428Y3740D01*
X6424Y3719D01*
X6417Y3700D01*
X6408Y3682D01*
X6395Y3665D01*
X6380Y3651D01*
X6362Y3640D01*
X6344Y3632D01*
X6324Y3627D01*
X6303Y3625D01*
X6178Y3625D01*
X6328Y3625D02*
X6428Y3425D01*
X6876Y3763D02*
X6874Y3783D01*
X6869Y3802D01*
X6861Y3820D01*
X6850Y3836D01*
X6836Y3850D01*
X6820Y3861D01*
X6802Y3869D01*
X6783Y3874D01*
X6763Y3876D01*
X6763Y3875D02*
X6740Y3873D01*
X6718Y3868D01*
X6697Y3859D01*
X6678Y3847D01*
X6660Y3832D01*
X6646Y3815D01*
X6634Y3796D01*
X6625Y3775D01*
X6837Y3675D02*
X6850Y3690D01*
X6861Y3706D01*
X6869Y3724D01*
X6873Y3743D01*
X6875Y3763D01*
X6838Y3675D02*
X6625Y3425D01*
X6875Y3425D01*
D10*
X7248Y4943D02*
X9752Y4943D01*
X9752Y4057D02*
X7248Y4057D01*
X9752Y4057D02*
X9752Y4943D01*
X7248Y4943D02*
X7248Y4057D01*
D16*
X9891Y4500D03*
X7109Y4500D03*
D11*
X6178Y5025D02*
X6178Y5475D01*
X6303Y5475D01*
X6324Y5473D01*
X6344Y5468D01*
X6362Y5460D01*
X6380Y5449D01*
X6395Y5435D01*
X6408Y5418D01*
X6417Y5400D01*
X6424Y5381D01*
X6428Y5360D01*
X6428Y5340D01*
X6424Y5319D01*
X6417Y5300D01*
X6408Y5282D01*
X6395Y5265D01*
X6380Y5251D01*
X6362Y5240D01*
X6344Y5232D01*
X6324Y5227D01*
X6303Y5225D01*
X6178Y5225D01*
X6328Y5225D02*
X6428Y5025D01*
X6625Y5025D02*
X6750Y5025D01*
X6771Y5027D01*
X6791Y5032D01*
X6809Y5040D01*
X6827Y5051D01*
X6842Y5065D01*
X6855Y5082D01*
X6864Y5100D01*
X6871Y5119D01*
X6875Y5140D01*
X6875Y5160D01*
X6871Y5181D01*
X6864Y5200D01*
X6855Y5218D01*
X6842Y5235D01*
X6827Y5249D01*
X6809Y5260D01*
X6791Y5268D01*
X6771Y5273D01*
X6750Y5275D01*
X6775Y5475D02*
X6625Y5475D01*
X6775Y5475D02*
X6793Y5473D01*
X6811Y5468D01*
X6828Y5460D01*
X6842Y5449D01*
X6855Y5435D01*
X6865Y5420D01*
X6871Y5402D01*
X6875Y5384D01*
X6875Y5366D01*
X6871Y5348D01*
X6865Y5330D01*
X6855Y5315D01*
X6842Y5301D01*
X6828Y5290D01*
X6811Y5282D01*
X6793Y5277D01*
X6775Y5275D01*
X6675Y5275D01*
X33750Y5200D02*
X33750Y4800D01*
D17*
X33315Y5315D02*
X33315Y5605D01*
X33396Y5605D01*
X33413Y5603D01*
X33429Y5598D01*
X33444Y5590D01*
X33456Y5578D01*
X33466Y5565D01*
X33473Y5549D01*
X33477Y5532D01*
X33477Y5516D01*
X33473Y5499D01*
X33466Y5484D01*
X33456Y5470D01*
X33444Y5458D01*
X33429Y5450D01*
X33413Y5445D01*
X33396Y5443D01*
X33396Y5444D02*
X33315Y5444D01*
X33412Y5444D02*
X33476Y5315D01*
X33601Y5315D02*
X33698Y5315D01*
X33712Y5317D01*
X33726Y5321D01*
X33738Y5329D01*
X33748Y5339D01*
X33756Y5351D01*
X33760Y5365D01*
X33762Y5379D01*
X33762Y5412D01*
X33760Y5426D01*
X33756Y5440D01*
X33748Y5452D01*
X33738Y5462D01*
X33726Y5470D01*
X33712Y5474D01*
X33698Y5476D01*
X33601Y5476D01*
X33601Y5605D01*
X33762Y5605D01*
M02*
