G04 EAGLE Gerber RS-274X export*
G75*
%MOIN*%
%FSLAX34Y34*%
%LPD*%
%INSoldermask Top*%
%IPPOS*%
%AMOC8*
5,1,8,0,0,1.08239X$1,22.5*%
G01*
%ADD10R,0.116236X0.116236*%
%ADD11R,0.066000X0.066000*%
%ADD12P,0.071438X8X22.500000*%
%ADD13R,0.055606X0.055606*%
%ADD14C,0.055606*%
%ADD15C,0.062000*%
%ADD16P,0.067108X8X112.500000*%
%ADD17C,0.065055*%
%ADD18C,0.181000*%
%ADD19C,0.024000*%
%ADD20C,0.046000*%
%ADD21R,0.043400X0.046600*%


D10*
X24819Y19213D03*
X30181Y19213D03*
X30181Y8787D03*
X24819Y8787D03*
D11*
X4327Y8390D03*
D12*
X4327Y9390D03*
X5327Y8390D03*
X5327Y9390D03*
X6327Y8390D03*
X6327Y9390D03*
X7327Y8390D03*
X7327Y9390D03*
X8327Y8390D03*
X8327Y9390D03*
X9327Y8390D03*
X9327Y9390D03*
X10327Y8390D03*
X10327Y9390D03*
X11327Y8390D03*
X11327Y9390D03*
X12327Y8390D03*
X12327Y9390D03*
X13327Y8390D03*
X13327Y9390D03*
X14327Y8390D03*
X14327Y9390D03*
X15327Y8390D03*
X15327Y9390D03*
X16327Y8390D03*
X16327Y9390D03*
X17327Y8390D03*
X17327Y9390D03*
X18327Y8390D03*
X18327Y9390D03*
X19327Y8390D03*
X19327Y9390D03*
X20327Y8390D03*
X20327Y9390D03*
X21327Y8390D03*
X21327Y9390D03*
D11*
X4327Y18390D03*
D12*
X4327Y19390D03*
X5327Y18390D03*
X5327Y19390D03*
X6327Y18390D03*
X6327Y19390D03*
X7327Y18390D03*
X7327Y19390D03*
X8327Y18390D03*
X8327Y19390D03*
X9327Y18390D03*
X9327Y19390D03*
X10327Y18390D03*
X10327Y19390D03*
X11327Y18390D03*
X11327Y19390D03*
X12327Y18390D03*
X12327Y19390D03*
X13327Y18390D03*
X13327Y19390D03*
X14327Y18390D03*
X14327Y19390D03*
X15327Y18390D03*
X15327Y19390D03*
X16327Y18390D03*
X16327Y19390D03*
X17327Y18390D03*
X17327Y19390D03*
X18327Y18390D03*
X18327Y19390D03*
X19327Y18390D03*
X19327Y19390D03*
X20327Y18390D03*
X20327Y19390D03*
X21327Y18390D03*
X21327Y19390D03*
D13*
X23500Y2268D03*
D14*
X24500Y2268D03*
X25500Y2268D03*
X26500Y2268D03*
X27500Y2268D03*
X28500Y2268D03*
X29500Y2268D03*
X30500Y2268D03*
X30500Y5732D03*
X29500Y5732D03*
X28500Y5732D03*
X27500Y5732D03*
X26500Y5732D03*
X25500Y5732D03*
X24500Y5732D03*
X23500Y5732D03*
D15*
X20280Y2500D02*
X19720Y2500D01*
X19720Y3500D02*
X20280Y3500D01*
X20280Y4500D02*
X19720Y4500D01*
X19720Y5500D02*
X20280Y5500D01*
D16*
X17000Y2500D03*
X16000Y2500D03*
X17000Y3500D03*
X16000Y3500D03*
X17000Y4500D03*
X16000Y4500D03*
X17000Y5500D03*
X16000Y5500D03*
D15*
X13280Y2500D02*
X12720Y2500D01*
X12720Y3500D02*
X13280Y3500D01*
X13280Y4500D02*
X12720Y4500D01*
X12720Y5500D02*
X13280Y5500D01*
X4780Y2000D02*
X4220Y2000D01*
X4220Y3000D02*
X4780Y3000D01*
X4780Y4000D02*
X4220Y4000D01*
X4220Y5000D02*
X4780Y5000D01*
D17*
X10500Y6000D03*
X6500Y6000D03*
X10500Y1500D03*
X6500Y1500D03*
X10500Y3000D03*
X6500Y3000D03*
X10500Y4500D03*
X6500Y4500D03*
D18*
X1500Y1500D03*
X1500Y20500D03*
X33500Y20500D03*
X33500Y1500D03*
D19*
X2700Y2500D02*
X2702Y2534D01*
X2708Y2568D01*
X2717Y2601D01*
X2731Y2632D01*
X2748Y2662D01*
X2768Y2690D01*
X2791Y2715D01*
X2817Y2738D01*
X2845Y2757D01*
X2875Y2773D01*
X2907Y2785D01*
X2940Y2794D01*
X2974Y2799D01*
X3009Y2800D01*
X3043Y2797D01*
X3076Y2790D01*
X3109Y2780D01*
X3140Y2765D01*
X3169Y2748D01*
X3196Y2727D01*
X3221Y2703D01*
X3243Y2676D01*
X3261Y2648D01*
X3276Y2617D01*
X3288Y2585D01*
X3296Y2551D01*
X3300Y2517D01*
X3300Y2483D01*
X3296Y2449D01*
X3288Y2415D01*
X3276Y2383D01*
X3261Y2352D01*
X3243Y2324D01*
X3221Y2297D01*
X3196Y2273D01*
X3169Y2252D01*
X3140Y2235D01*
X3109Y2220D01*
X3076Y2210D01*
X3043Y2203D01*
X3009Y2200D01*
X2974Y2201D01*
X2940Y2206D01*
X2907Y2215D01*
X2875Y2227D01*
X2845Y2243D01*
X2817Y2262D01*
X2791Y2285D01*
X2768Y2310D01*
X2748Y2338D01*
X2731Y2368D01*
X2717Y2399D01*
X2708Y2432D01*
X2702Y2466D01*
X2700Y2500D01*
D20*
X3000Y2500D03*
D19*
X31700Y2500D02*
X31702Y2534D01*
X31708Y2568D01*
X31717Y2601D01*
X31731Y2632D01*
X31748Y2662D01*
X31768Y2690D01*
X31791Y2715D01*
X31817Y2738D01*
X31845Y2757D01*
X31875Y2773D01*
X31907Y2785D01*
X31940Y2794D01*
X31974Y2799D01*
X32009Y2800D01*
X32043Y2797D01*
X32076Y2790D01*
X32109Y2780D01*
X32140Y2765D01*
X32169Y2748D01*
X32196Y2727D01*
X32221Y2703D01*
X32243Y2676D01*
X32261Y2648D01*
X32276Y2617D01*
X32288Y2585D01*
X32296Y2551D01*
X32300Y2517D01*
X32300Y2483D01*
X32296Y2449D01*
X32288Y2415D01*
X32276Y2383D01*
X32261Y2352D01*
X32243Y2324D01*
X32221Y2297D01*
X32196Y2273D01*
X32169Y2252D01*
X32140Y2235D01*
X32109Y2220D01*
X32076Y2210D01*
X32043Y2203D01*
X32009Y2200D01*
X31974Y2201D01*
X31940Y2206D01*
X31907Y2215D01*
X31875Y2227D01*
X31845Y2243D01*
X31817Y2262D01*
X31791Y2285D01*
X31768Y2310D01*
X31748Y2338D01*
X31731Y2368D01*
X31717Y2399D01*
X31708Y2432D01*
X31702Y2466D01*
X31700Y2500D01*
D20*
X32000Y2500D03*
D19*
X31700Y19000D02*
X31702Y19034D01*
X31708Y19068D01*
X31717Y19101D01*
X31731Y19132D01*
X31748Y19162D01*
X31768Y19190D01*
X31791Y19215D01*
X31817Y19238D01*
X31845Y19257D01*
X31875Y19273D01*
X31907Y19285D01*
X31940Y19294D01*
X31974Y19299D01*
X32009Y19300D01*
X32043Y19297D01*
X32076Y19290D01*
X32109Y19280D01*
X32140Y19265D01*
X32169Y19248D01*
X32196Y19227D01*
X32221Y19203D01*
X32243Y19176D01*
X32261Y19148D01*
X32276Y19117D01*
X32288Y19085D01*
X32296Y19051D01*
X32300Y19017D01*
X32300Y18983D01*
X32296Y18949D01*
X32288Y18915D01*
X32276Y18883D01*
X32261Y18852D01*
X32243Y18824D01*
X32221Y18797D01*
X32196Y18773D01*
X32169Y18752D01*
X32140Y18735D01*
X32109Y18720D01*
X32076Y18710D01*
X32043Y18703D01*
X32009Y18700D01*
X31974Y18701D01*
X31940Y18706D01*
X31907Y18715D01*
X31875Y18727D01*
X31845Y18743D01*
X31817Y18762D01*
X31791Y18785D01*
X31768Y18810D01*
X31748Y18838D01*
X31731Y18868D01*
X31717Y18899D01*
X31708Y18932D01*
X31702Y18966D01*
X31700Y19000D01*
D20*
X32000Y19000D03*
D21*
X33435Y5000D03*
X34065Y5000D03*
M02*
